<svg width="25" height="25" viewBox="0 0 25 25" fill="none" xmlns="http://www.w3.org/2000/svg">
<path d="M12.5 0C15.9517 0 19.0771 1.39941 21.3389 3.66113C23.6006 5.92334 25 9.04834 25 12.5C25 15.9517 23.6006 19.0771 21.3389 21.3389C19.0771 23.6006 15.9517 25 12.5 25C9.04834 25 5.92285 23.6006 3.66113 21.3389C1.39941 19.0771 0 15.9517 0 12.5C0 9.04834 1.39941 5.92334 3.66113 3.66113C5.92285 1.39941 9.04834 0 12.5 0ZM13.3667 16.7114H14.79V18.1431H10.2104V16.7114H11.6147V12.2026H10.2104V10.771H13.3667V16.7114ZM12.0024 9.36914C11.6567 9.3667 11.3618 9.24561 11.1138 9C10.8657 8.75537 10.7446 8.45752 10.7446 8.10889C10.7446 7.7666 10.8657 7.47119 11.1138 7.22607C11.3618 6.98096 11.6567 6.85742 12.0024 6.85742C12.3418 6.85742 12.6367 6.98096 12.8853 7.22607C13.1357 7.47119 13.2598 7.7666 13.2598 8.10889C13.2598 8.33936 13.2012 8.55176 13.0859 8.74072C12.9707 8.93262 12.8198 9.08594 12.6313 9.19824C12.4424 9.31055 12.2324 9.3667 12.0024 9.36914ZM20.396 4.604C18.3755 2.58398 15.5835 1.33398 12.5 1.33398C9.4165 1.33398 6.62451 2.58398 4.604 4.604C2.58398 6.625 1.33398 9.4165 1.33398 12.5C1.33398 15.5835 2.58398 18.3755 4.604 20.396C6.62451 22.416 9.4165 23.666 12.5 23.666C15.5835 23.666 18.3755 22.416 20.396 20.396C22.416 18.3755 23.666 15.5835 23.666 12.5C23.666 9.4165 22.416 6.625 20.396 4.604Z" fill="white"/>
</svg>
