<svg width="20" height="20" viewBox="0 0 20 20" fill="none" xmlns="http://www.w3.org/2000/svg">
<path d="M7.26341 0H12.735C12.9076 0 13.0732 0.0686588 13.1953 0.190872C13.3174 0.313085 13.386 0.478842 13.386 0.651678V6.60964H19.349C19.5217 6.60964 19.6872 6.6783 19.8093 6.80052C19.9314 6.92273 20 7.08849 20 7.26132V12.737C20 12.9099 19.9314 13.0756 19.8093 13.1979C19.6872 13.3201 19.5217 13.3887 19.349 13.3887H13.3843V19.3483C13.3843 19.5212 13.3157 19.6869 13.1937 19.8091C13.0716 19.9313 12.906 20 12.7333 20H7.26341C7.09075 20 6.92517 19.9313 6.80309 19.8091C6.681 19.6869 6.61242 19.5212 6.61242 19.3483V13.3887H0.650989C0.478336 13.3887 0.312754 13.3201 0.19067 13.1979C0.0685861 13.0756 0 12.9099 0 12.737V7.25969C0 7.08686 0.0685861 6.9211 0.19067 6.79889C0.312754 6.67667 0.478336 6.60802 0.650989 6.60802H6.61242V0.651678C6.61242 0.478842 6.681 0.313085 6.80309 0.190872C6.92517 0.0686588 7.09075 0 7.26341 0Z" fill="white"/>
</svg>
