<svg width="20" height="20" viewBox="0 0 20 20" fill="none" xmlns="http://www.w3.org/2000/svg">
<path id="Vector" d="M11.4326 0.902101C11.4326 0.545537 11.771 0.254456 12.1924 0.254456C12.6138 0.254456 12.9525 0.544022 12.9525 0.902101V3.73531C12.9525 4.09188 12.6138 4.38296 12.1924 4.38296C11.771 4.38296 11.4326 4.09339 11.4326 3.73531V0.902101ZM16.7145 13.9693V14.7241C16.7145 14.9016 16.5721 15.05 16.4013 15.05H15.1542V16.3468C15.1542 16.5236 15.0114 16.672 14.8406 16.672H14.1136C13.9435 16.672 13.8008 16.5258 13.8008 16.3468V15.05H12.5526C12.3818 15.05 12.239 14.9035 12.239 14.7241V13.9693C12.239 13.7899 12.3803 13.6434 12.5526 13.6434H13.8008V12.3466C13.8008 12.1676 13.9413 12.0215 14.1136 12.0215H14.8406C15.0132 12.0215 15.1542 12.1698 15.1542 12.3466V13.6434H16.4013C16.5739 13.6434 16.7145 13.7937 16.7145 13.9693ZM14.4767 9.26737C15.8236 9.26737 17.0467 9.83666 17.9306 10.7568C18.8161 11.6744 19.3638 12.9443 19.3638 14.3471C19.3638 15.7472 18.8161 17.0179 17.9325 17.9366C17.0467 18.8568 15.824 19.4261 14.4767 19.4261C13.128 19.4261 11.9068 18.8568 11.0225 17.9385C10.1367 17.0198 9.58965 15.7484 9.58965 14.3471C9.58965 12.9443 10.1374 11.6744 11.0214 10.7553L11.0465 10.7315C11.9294 9.82682 13.1419 9.26737 14.4767 9.26737ZM17.3446 11.3647C16.6129 10.6035 15.5978 10.1315 14.4767 10.1315C13.3659 10.1315 12.3592 10.5952 11.6289 11.3435L11.6089 11.3663C10.875 12.1286 10.4208 13.1831 10.4208 14.3471C10.4208 15.511 10.8746 16.5652 11.6085 17.3279C12.3406 18.0899 13.356 18.5619 14.4767 18.5619C15.5971 18.5619 16.6129 18.0899 17.3457 17.3287C18.0781 16.5671 18.5323 15.5114 18.5323 14.3471C18.5323 13.1831 18.0781 12.1286 17.3446 11.3647ZM2.78495 9.42521C2.74197 9.42521 2.70336 9.22838 2.70336 8.98726C2.70336 8.74577 2.7376 8.55083 2.78495 8.55083H4.85881C4.90215 8.55083 4.94076 8.74766 4.94076 8.98726C4.94076 9.22914 4.90653 9.42521 4.85881 9.42521H2.78495ZM6.09133 9.42521C6.04799 9.42521 6.00975 9.22838 6.00975 8.98726C6.00975 8.74577 6.04362 8.55083 6.09133 8.55083H8.16519C8.20817 8.55083 8.24678 8.74766 8.24678 8.98726C8.24678 9.22914 8.21254 9.42521 8.16519 9.42521H6.09133ZM9.39735 9.42521C9.35437 9.42521 9.31576 9.22838 9.31576 8.98726C9.31576 8.74577 9.34963 8.55083 9.39735 8.55083H11.4712C11.5142 8.55083 11.5528 8.74577 11.5528 8.98575C11.3453 9.12018 11.1453 9.26691 10.954 9.42521H9.39735ZM2.78968 11.9325C2.74671 11.9325 2.7081 11.7357 2.7081 11.4946C2.7081 11.2527 2.74197 11.0562 2.78968 11.0562H4.86355C4.90653 11.0562 4.94513 11.2527 4.94513 11.4946C4.94513 11.7357 4.91126 11.9325 4.86355 11.9325H2.78968ZM6.0957 11.9325C6.05272 11.9325 6.01412 11.7357 6.01412 11.4946C6.01412 11.2527 6.04799 11.0562 6.0957 11.0562H8.16956C8.21254 11.0562 8.25115 11.2527 8.25115 11.4946C8.25115 11.7357 8.21728 11.9325 8.16956 11.9325H6.0957ZM2.79405 14.4413C2.75108 14.4413 2.71247 14.2445 2.71247 14.0026C2.71247 13.7619 2.74671 13.5651 2.79405 13.5651H4.86792C4.91126 13.5651 4.94987 13.7619 4.94987 14.0026C4.94987 14.2445 4.91563 14.4413 4.86792 14.4413H2.79405ZM6.10044 14.4413C6.05709 14.4413 6.01849 14.2445 6.01849 14.0026C6.01849 13.7619 6.05272 13.5651 6.10044 13.5651H8.1743C8.21728 13.5651 8.25588 13.7619 8.25588 14.0026C8.25588 14.2445 8.22165 14.4413 8.1743 14.4413H6.10044ZM4.60677 0.902101C4.60677 0.545537 4.94513 0.254456 5.36653 0.254456C5.78794 0.254456 6.1263 0.544022 6.1263 0.902101V3.73531C6.1263 4.09188 5.78684 4.38296 5.36653 4.38296C4.94513 4.38296 4.60677 4.09339 4.60677 3.73531V0.902101ZM1.5528 6.44854H16.0265V3.18646C16.0265 2.9673 15.8542 2.78864 15.6433 2.78864H14.2557C14.0229 2.78864 13.8343 2.59181 13.8343 2.35069C13.8343 2.1092 14.0229 1.91237 14.2557 1.91237H15.6433C16.3204 1.91237 16.8708 2.48469 16.8708 3.18835V8.36687C16.5943 8.2677 16.3095 8.18783 16.017 8.12878V7.31951H16.0265H1.5528V15.7665C1.5528 15.9853 1.72471 16.1644 1.93559 16.1644H8.81423C8.89254 16.4679 8.99124 16.7639 9.10998 17.0486H1.9436C1.26688 17.0486 0.71582 16.4781 0.71582 15.7745V3.18987C0.71582 2.48582 1.26579 1.91388 1.9436 1.91388H3.42488C3.65725 1.91388 3.84665 2.11109 3.84665 2.35183C3.84665 2.5937 3.65725 2.79053 3.42488 2.79053H1.9436C1.73272 2.79053 1.56008 2.96844 1.56008 3.18835V6.44967H1.5528V6.44854ZM7.34169 2.78864C7.10969 2.78864 6.92029 2.59181 6.92029 2.35069C6.92029 2.1092 7.10969 1.91237 7.34169 1.91237H10.1662C10.3989 1.91237 10.5883 2.1092 10.5883 2.35069C10.5883 2.59181 10.3989 2.78864 10.1662 2.78864H7.34169Z" fill="black"/>
</svg>
