<svg width="15" height="15" viewBox="0 0 15 15" fill="none" xmlns="http://www.w3.org/2000/svg">
<path d="M3.09873 12.7589L4.88057 10.7045C4.9415 11.0755 5.02852 11.4409 5.14131 11.7971L2.99326 14.2742C2.95385 14.3276 2.90548 14.3702 2.85134 14.3995C2.79721 14.4287 2.73853 14.4437 2.6792 14.4437C2.44746 14.4437 2.25967 14.2179 2.25967 13.9392V11.5001H1.01777C0.753809 11.5001 0.512695 11.3753 0.331641 11.1752L0.299414 11.1403C0.115137 10.9184 0 10.6108 0 10.2761V1.22396C0 0.889607 0.116602 0.582384 0.300293 0.361127C0.484277 0.140223 0.739746 0 1.01777 0H10.5563C10.834 0 11.09 0.138814 11.2743 0.360775C11.4574 0.580975 11.5734 0.887493 11.5734 1.22396V2.86858C11.2969 2.79389 11.0162 2.74386 10.7344 2.72061V1.22396C10.7344 1.16618 10.7136 1.11262 10.6813 1.07387C10.6488 1.03441 10.6034 1.00904 10.5563 1.00904H1.01777C0.970899 1.00904 0.926074 1.03511 0.893262 1.07422C0.860742 1.11368 0.839062 1.16759 0.839062 1.22396V10.2761C0.839062 10.3332 0.859863 10.3878 0.892383 10.4272L0.904102 10.4413C0.934863 10.4716 0.975 10.4907 1.01777 10.4907H2.6792C2.91094 10.4907 3.09873 10.7169 3.09873 10.9952V12.7589ZM13.6359 5.44334C14.545 6.54081 15 7.97228 15 9.402C15 10.8095 14.5588 12.2191 13.6781 13.3057L13.6368 13.36C12.7245 14.4528 11.5339 15 10.3447 15C9.15322 15 7.96172 14.4528 7.05322 13.3603C6.14443 12.2632 5.68975 10.8321 5.68975 9.402C5.68975 7.96982 6.14443 6.53658 7.05293 5.44439C7.96553 4.35079 9.15586 3.80399 10.3447 3.80399C11.5151 3.80399 12.6873 4.33459 13.5908 5.39331L13.6359 5.44334ZM10.974 10.7204H9.68672L9.50185 11.4497H8.34199L9.72598 7.02701H10.9696L12.3478 11.4497H11.158L10.974 10.7204ZM10.7335 9.76348L10.3321 8.17381L9.92871 9.76348H10.7335ZM13.118 6.06729C11.5863 4.22537 9.10283 4.22537 7.57178 6.06729C6.03984 7.90887 6.03984 10.8951 7.57178 12.7371C9.10283 14.5786 11.5863 14.5786 13.118 12.7371C14.6496 10.8951 14.6496 7.90887 13.118 6.06729ZM2.879 4.53611C2.64727 4.53611 2.45947 4.30992 2.45947 4.03159C2.45947 3.75291 2.64727 3.52707 2.879 3.52707H7.66728C7.24951 3.80291 6.86286 4.14202 6.5168 4.53611H2.879ZM2.879 7.52132C2.64727 7.52132 2.45947 7.29548 2.45947 7.01679C2.45947 6.73846 2.64727 6.51227 2.879 6.51227H5.31855C5.18848 6.84028 5.08125 7.1771 4.99805 7.52132H2.879Z" fill="white"/>
</svg>
