<svg width="15" height="15" viewBox="0 0 15 15" fill="none" xmlns="http://www.w3.org/2000/svg">
<path d="M1.5131 8.19633C1.4613 8.2428 1.39981 8.27967 1.33213 8.30482C1.26445 8.32997 1.19191 8.34292 1.11866 8.34292C1.0454 8.34292 0.972867 8.32997 0.905189 8.30482C0.83751 8.27967 0.776016 8.2428 0.724218 8.19633C0.672419 8.14986 0.63133 8.09468 0.603297 8.03396C0.575263 7.97324 0.560835 7.90816 0.560835 7.84244C0.560835 7.77672 0.575263 7.71164 0.603297 7.65092C0.63133 7.5902 0.672419 7.53503 0.724218 7.48855L7.90318 1.04889C8.69728 0.364442 9.75965 -0.0122136 10.8607 0.000302223C11.9618 0.0128181 13.0132 0.413501 13.7877 1.11577C14.5622 1.81805 14.9977 2.76552 15 3.75348C15.0023 4.74143 14.5713 5.69054 13.8 6.39572L5.18501 14.1275L5.14005 14.1641C4.49014 14.6788 3.81162 14.9697 3.09631 14.9978C2.38101 15.0259 1.64935 14.7815 0.931316 14.2228L0.921779 14.2155L0.901342 14.1972C0.585368 13.9203 0.337524 13.5872 0.173771 13.2192C0.0199947 12.8636 -0.0329098 12.4792 0.0198097 12.1007C0.0803412 11.6401 0.267631 11.2003 0.564806 10.8208C0.824428 10.4971 1.11778 10.1963 1.44089 9.92237L9.43599 2.74682C9.76716 2.45047 10.2151 2.28314 10.6829 2.28109C11.1506 2.27903 11.6004 2.4424 11.9348 2.73581L11.9471 2.74682C12.274 3.03975 12.4604 3.43569 12.4665 3.85019C12.4726 4.26468 12.2979 4.66491 11.9798 4.96549L11.9471 4.9985L5.06103 11.1741C5.00923 11.2206 4.94773 11.2575 4.88006 11.2826C4.81238 11.3078 4.73984 11.3207 4.66659 11.3207C4.59333 11.3207 4.52079 11.3078 4.45312 11.2826C4.38544 11.2575 4.32394 11.2206 4.27215 11.1741C4.22035 11.1277 4.17926 11.0725 4.15122 11.0118C4.12319 10.951 4.10876 10.886 4.10876 10.8202C4.10876 10.7545 4.12319 10.6894 4.15122 10.6287C4.17926 10.568 4.22035 10.5128 4.27215 10.4663L11.1732 4.27239C11.2858 4.15972 11.3466 4.01291 11.3433 3.86158C11.3401 3.71025 11.2729 3.56568 11.1555 3.45704C11.0319 3.34663 10.8646 3.28465 10.6902 3.28465C10.5158 3.28465 10.3485 3.34663 10.2249 3.45704L2.22568 10.6289C1.95354 10.8599 1.70502 11.1123 1.48313 11.3832C1.28916 11.6308 1.16652 11.9176 1.12615 12.2181C1.09617 12.4352 1.12611 12.6556 1.21335 12.8598C1.32054 13.0925 1.47904 13.3033 1.67932 13.4796C2.16437 13.8537 2.62081 14.0175 3.05408 14.0003C3.48735 13.9832 3.94106 13.7791 4.40022 13.4148L13.0112 5.68916C13.5729 5.17107 13.8858 4.47604 13.8827 3.75329C13.8796 3.03053 13.5609 2.33766 12.9948 1.8234C12.4288 1.30914 11.6605 1.01449 10.8551 1.0027C10.0496 0.990906 9.27107 1.26291 8.68662 1.76033L1.5131 8.19633Z" fill="white"/>
</svg>
