<svg width="30" height="30" viewBox="0 0 30 30" fill="none" xmlns="http://www.w3.org/2000/svg">
<path d="M13.1955 0C12.9383 0 12.7453 0.195897 12.7453 0.457131V1.36068C12.7453 1.62191 12.9383 1.82138 13.1955 1.82138H17.1169C17.3741 1.82138 17.5706 1.62191 17.5706 1.36068V0.457131C17.5706 0.195897 17.3741 0 17.1169 0H13.1955ZM12.2952 2.3678V26.6493C12.5365 26.425 12.8479 26.2779 13.1955 26.2779H17.1169C17.4629 26.2779 17.7755 26.4232 18.0172 26.6458V2.37137C17.7755 2.59386 17.4629 2.73922 17.1169 2.73922H13.1955C12.8479 2.73922 12.5365 2.59214 12.2952 2.3678ZM0.900333 3.30706C0.401549 3.30706 0 3.71482 0 4.22132V7.15339C0.241313 6.93247 0.552838 6.78912 0.900333 6.78912H7.52271C7.87183 6.78912 8.18112 6.93421 8.41952 7.15696V4.22132C8.41952 3.71482 8.01798 3.30706 7.51919 3.30706H0.900333ZM22.9726 3.81062C22.8567 3.79492 22.7341 3.80228 22.6138 3.83562L18.8296 4.88202C18.3484 5.01539 18.0656 5.51826 18.1966 6.00699L24.4462 29.3278C24.5771 29.8166 25.0728 30.1005 25.554 29.9671L29.3382 28.9207C29.8194 28.7873 30.0987 28.2845 29.9677 27.7957L23.7182 4.47489C23.6199 4.10834 23.3203 3.85772 22.9726 3.81062ZM9.32337 5.78557C8.82459 5.78557 8.42304 6.19333 8.42304 6.69983V28.2171C8.42304 28.7236 8.82459 29.1314 9.32337 29.1314H11.3913C11.8901 29.1314 12.2917 28.7236 12.2917 28.2171V6.69983C12.2917 6.19333 11.8901 5.78557 11.3913 5.78557H9.32337ZM0.900333 7.69266C0.643154 7.69266 0.450167 7.89213 0.450167 8.15337V9.23191C0.450167 9.49315 0.643154 9.68904 0.900333 9.68904H7.52271C7.77989 9.68904 7.97287 9.49315 7.97287 9.23191V8.15337C7.97287 7.89213 7.77989 7.69266 7.52271 7.69266H0.900333ZM0 10.2355V23.1423C0.241334 22.9188 0.552751 22.7709 0.900333 22.7709H7.52271C7.87121 22.7709 8.18127 22.9177 8.41952 23.1423V10.2355C8.18127 10.46 7.8712 10.6069 7.52271 10.6069H0.900333C0.552751 10.6069 0.241334 10.459 0 10.2355ZM0.900333 23.6887C0.643154 23.6887 0.450167 23.8846 0.450167 24.1458V25.2279C0.450167 25.4892 0.643154 25.6851 0.900333 25.6851H7.52271C7.77989 25.6851 7.97287 25.4892 7.97287 25.2279V24.1458C7.97287 23.8846 7.77989 23.6887 7.52271 23.6887H0.900333ZM8.41952 26.2208C8.18112 26.4427 7.87183 26.5886 7.52271 26.5886H0.900333C0.552838 26.5886 0.241313 26.4444 0 26.2243V28.2136C0 28.7201 0.401549 29.1278 0.900333 29.1278H7.51919C8.01798 29.1278 8.41952 28.7201 8.41952 28.2136V26.2208ZM13.1955 27.1957C12.9383 27.1957 12.7453 27.3952 12.7453 27.6564V28.21C12.7453 28.4712 12.9383 28.6671 13.1955 28.6671H17.1169C17.3741 28.6671 17.5706 28.4712 17.5706 28.21V27.6564C17.5706 27.3952 17.3741 27.1957 17.1169 27.1957H13.1955Z" fill="white"/>
</svg>
