<svg width="30" height="30" viewBox="0 0 30 30" fill="none" xmlns="http://www.w3.org/2000/svg">
<path d="M17.2406 1.01345C17.2406 0.455488 17.785 0 18.4629 0C19.1408 0 19.6857 0.453119 19.6857 1.01345V5.4469C19.6857 6.00486 19.1408 6.46034 18.4629 6.46034C17.785 6.46034 17.2406 6.00723 17.2406 5.4469V1.01345ZM24.2408 18.4552C24.1482 18.3919 24.0445 18.3634 23.9385 18.3854C23.8336 18.4055 23.7422 18.4618 23.6795 18.5542L23.3221 19.0653C23.0795 18.9552 22.7707 18.8835 22.5088 18.8456L22.3969 18.1786C22.3752 18.0661 22.3195 17.9808 22.2352 17.9162C22.1443 17.8535 22.0465 17.831 21.9346 17.8535L21.1066 18.0015C21.0012 18.0229 20.9174 18.0726 20.8477 18.165C20.785 18.2574 20.7568 18.3569 20.7768 18.4701L20.8822 19.0801C20.6279 19.1868 20.3754 19.3437 20.1609 19.519L19.599 19.1287C19.5088 19.0653 19.4109 19.0363 19.3049 19.0576C19.1994 19.0801 19.1092 19.1364 19.0459 19.2282L18.5689 19.9153C18.5057 20.0077 18.4775 20.1137 18.4986 20.2197C18.5197 20.3329 18.5754 20.4188 18.6674 20.4816L19.1719 20.844C19.0652 21.0869 18.992 21.4032 18.9545 21.6656L18.2959 21.7793C18.184 21.8006 18.099 21.8575 18.0352 21.9422C17.9725 22.0346 17.952 22.1335 17.9725 22.2466L18.1201 23.083C18.1412 23.1896 18.1904 23.2749 18.2812 23.3454C18.3727 23.4099 18.4711 23.4384 18.5836 23.4165L19.1854 23.3104C19.2967 23.5764 19.449 23.8163 19.6207 24.0467L19.2346 24.607C19.1719 24.6988 19.1437 24.7983 19.1648 24.9043C19.1854 25.011 19.2422 25.1028 19.3336 25.1667L20.0203 25.6554C20.1105 25.72 20.2166 25.7401 20.3215 25.72C20.4264 25.6986 20.5178 25.6489 20.5875 25.5565L20.9455 25.0394C21.191 25.149 21.4928 25.2183 21.7594 25.2597L21.8713 25.9255C21.8912 26.0392 21.948 26.1239 22.0318 26.1873C22.1238 26.2513 22.2217 26.2726 22.3336 26.2513L23.1615 26.1026C23.2664 26.0807 23.349 26.0309 23.4205 25.9391C23.4832 25.8473 23.5107 25.7484 23.4896 25.6353L23.3859 25.0252C23.6514 24.912 23.884 24.7598 24.1137 24.5857L24.6686 24.9754C24.7594 25.0394 24.8572 25.0678 24.9697 25.0459C25.0816 25.0252 25.1654 24.9689 25.2287 24.8759L25.7121 24.1817C25.7748 24.0893 25.7971 23.9827 25.7748 23.8773C25.7549 23.7701 25.7057 23.6788 25.6143 23.6072L25.1027 23.253C25.2094 23.0101 25.2814 22.695 25.3195 22.4314L25.9787 22.3177C26.0906 22.2964 26.1744 22.2395 26.2383 22.1548C26.3016 22.0624 26.3232 21.9635 26.3016 21.8504L26.1545 21.014C26.1334 20.9074 26.0842 20.8227 25.9934 20.7516C25.902 20.6871 25.8035 20.6587 25.691 20.6806L25.0881 20.7872C24.9721 20.5224 24.8338 20.2831 24.6539 20.0575L25.0395 19.49C25.1027 19.3982 25.1309 19.2987 25.1098 19.1933C25.0881 19.0861 25.0324 18.9943 24.941 18.9297L24.2607 18.4481L24.2408 18.4552ZM22.1379 20.2648C23.1146 20.2648 23.9057 21.0656 23.9057 22.0524C23.9057 23.0392 23.1146 23.8394 22.1379 23.8394C21.1617 23.8394 20.3707 23.0392 20.3707 22.0524C20.3707 21.0656 21.1617 20.2648 22.1379 20.2648ZM22.1379 14.1035C24.3047 14.1035 26.2723 14.9944 27.6943 16.4343C29.1187 17.87 30 19.8573 30 22.0524C30 24.2433 29.1188 26.2317 27.6973 27.6693C26.2723 29.1092 24.3053 30 22.1379 30C19.9664 30 18.0006 29.1092 16.5779 27.671L16.541 27.6308C15.1406 26.195 14.2746 24.2232 14.2746 22.0524C14.2746 19.8573 15.1559 17.87 16.5779 16.4319C18.0006 14.9944 19.9664 14.1035 22.1379 14.1035ZM26.751 17.3855C25.5744 16.1944 23.9414 15.4558 22.1379 15.4558C20.3361 15.4558 18.7037 16.1944 17.5236 17.3879C16.343 18.5808 15.6123 20.231 15.6123 22.0524C15.6123 23.8589 16.3301 25.4961 17.4885 26.6836L17.5236 26.7156C18.7037 27.9091 20.3361 28.6478 22.1379 28.6478C23.9402 28.6478 25.5744 27.9091 26.7533 26.718C27.9316 25.5263 28.6623 23.8743 28.6623 22.0524C28.6623 20.231 27.9316 18.5808 26.751 17.3855ZM3.32871 14.3505C3.25957 14.3505 3.19746 14.0425 3.19746 13.6652C3.19746 13.2873 3.25137 12.9823 3.32871 12.9823H6.66504C6.73477 12.9823 6.7957 13.2903 6.7957 13.6652C6.7957 14.0437 6.7418 14.3505 6.66504 14.3505H3.32871ZM8.64785 14.3505C8.57812 14.3505 8.51602 14.0425 8.51602 13.6652C8.51602 13.2873 8.56992 12.9823 8.64785 12.9823H11.9842C12.0533 12.9823 12.1143 13.2903 12.1143 13.6652C12.1143 14.0437 12.0604 14.3505 11.9842 14.3505H8.64785ZM13.9664 14.3505C13.8967 14.3505 13.8352 14.0425 13.8352 13.6652C13.8352 13.2873 13.8891 12.9823 13.9664 12.9823H17.3027C17.3719 12.9823 17.4328 13.2873 17.4328 13.6629C17.0994 13.8731 16.7771 14.1035 16.4707 14.3505H13.9664ZM3.33633 18.274C3.26719 18.274 3.20508 17.966 3.20508 17.5887C3.20508 17.2102 3.25957 16.9028 3.33633 16.9028H6.67266C6.7418 16.9028 6.80273 17.2102 6.80273 17.5887C6.80273 17.966 6.74941 18.274 6.67266 18.274H3.33633ZM8.65488 18.274C8.58574 18.274 8.52363 17.966 8.52363 17.5887C8.52363 17.2102 8.57812 16.9028 8.65488 16.9028H11.9912C12.0604 16.9028 12.1219 17.2102 12.1219 17.5887C12.1219 17.966 12.068 18.274 11.9912 18.274H8.65488ZM3.34336 22.1998C3.27422 22.1998 3.21211 21.8918 3.21211 21.5134C3.21211 21.1366 3.26719 20.8286 3.34336 20.8286H6.67969C6.74941 20.8286 6.81094 21.1366 6.81094 21.5134C6.81094 21.8918 6.75645 22.1998 6.67969 22.1998H3.34336ZM8.66191 22.1998C8.59277 22.1998 8.53066 21.8918 8.53066 21.5134C8.53066 21.1366 8.58574 20.8286 8.66191 20.8286H11.9982C12.068 20.8286 12.1301 21.1366 12.1301 21.5134C12.1301 21.8918 12.075 22.1998 11.9982 22.1998H8.66191ZM6.25898 1.01345C6.25898 0.455488 6.80273 0 7.48184 0C8.15977 0 8.7041 0.453119 8.7041 1.01345V5.4469C8.7041 6.00486 8.15684 6.46034 7.48184 6.46034C6.80273 6.46034 6.25898 6.00723 6.25898 5.4469V1.01345ZM1.34648 9.69259H24.6299V4.58805C24.6299 4.41391 24.5607 4.2605 24.4494 4.14796C24.3337 4.03164 24.1773 3.9661 24.0141 3.96553H21.7822C21.4078 3.96553 21.1043 3.65753 21.1043 3.28022C21.1043 2.90233 21.4078 2.59433 21.7822 2.59433H24.0141C24.5607 2.59433 25.0518 2.81763 25.4104 3.18012C25.7689 3.54321 25.9893 4.03838 25.9893 4.59101V12.6944C25.5434 12.5392 25.0863 12.4143 24.6152 12.3219V11.0555H24.6299H1.34648V24.2735C1.34648 24.4483 1.41562 24.6011 1.52695 24.7136C1.63828 24.8262 1.79648 24.896 1.9623 24.896H13.0277C13.1543 25.3711 13.3119 25.8343 13.5029 26.2797H1.9752C1.43027 26.2797 0.938086 26.0576 0.579492 25.6939C0.219727 25.3344 0 24.8392 0 24.286V4.59338C0 4.04312 0.219727 3.54499 0.579492 3.18249C0.938086 2.8194 1.42793 2.59669 1.9752 2.59669H4.3582C4.73203 2.59669 5.03613 2.90529 5.03613 3.282C5.03613 3.66049 4.73203 3.96849 4.3582 3.96849H1.9752C1.80176 3.96849 1.65059 4.03838 1.53926 4.15092C1.42793 4.26346 1.3582 4.42279 1.3582 4.59101V9.69437H1.34648V9.69259ZM10.6594 3.96553C10.2861 3.96553 9.98145 3.65753 9.98145 3.28022C9.98145 2.90233 10.2861 2.59433 10.6594 2.59433H15.2033C15.5777 2.59433 15.8813 2.90233 15.8813 3.28022C15.8813 3.65753 15.5777 3.96553 15.2033 3.96553H10.6594Z" fill="#F78B05"/>
</svg>
