<svg width="30" height="30" viewBox="0 0 30 30" fill="none" xmlns="http://www.w3.org/2000/svg">
<path d="M2.15214 10.0692C2.14276 9.90257 2.16561 9.73112 2.22596 9.56449C3.27479 6.69195 5.13807 4.29827 7.48886 2.62589C9.8373 0.954704 12.6685 0 15.6574 0C19.6178 0 23.2037 1.64892 25.7988 4.31331C28.3939 6.9777 30 10.6594 30 14.7254C30 18.3271 28.7338 21.6321 26.6326 24.1961C24.4998 26.7991 21.5068 28.6333 18.1061 29.2349C17.7867 29.2908 17.475 29.2126 17.226 29.0394C17.5775 28.3506 17.7867 27.5565 17.7773 26.7738C20.5752 26.2589 23.0344 24.7441 24.7887 22.6031C26.5289 20.4783 27.5783 17.7303 27.5783 14.7254C27.5783 11.3458 26.2436 8.28553 24.0867 6.07112C21.9299 3.85672 18.9492 2.48632 15.6574 2.48632C13.1654 2.48632 10.8094 3.2786 8.86054 4.66524C7.03651 5.96284 5.56639 7.78081 4.6705 9.95491C3.83671 9.81775 2.96893 9.8376 2.15214 10.0692ZM12.2865 13.879V18.7554H13.0283C13.2926 18.7554 13.4736 18.7223 13.5709 18.6567C13.6687 18.5906 13.7174 18.4402 13.7174 18.2043V13.879H15.8057V17.5288C15.8057 18.1177 15.7676 18.5924 15.6908 18.9527C15.6141 19.3131 15.4717 19.6181 15.2625 19.8677C15.0539 20.1174 14.7685 20.2906 14.4064 20.3875C14.0443 20.4843 13.5744 20.5331 12.9967 20.5331C12.4189 20.5331 11.9508 20.4843 11.5922 20.3875C11.2342 20.2906 10.95 20.1174 10.7414 19.8677C10.5328 19.6181 10.3898 19.3131 10.3131 18.9527C10.2369 18.5924 10.1982 18.1177 10.1982 17.5288V13.879H12.2865ZM16.824 20.2629L17.1164 18.5472C17.7562 18.7067 18.3328 18.7867 18.8443 18.7867C19.3559 18.7867 19.7684 18.7656 20.0818 18.7241V18.2043L19.142 18.1213C18.2924 18.0449 17.7094 17.8422 17.393 17.5131C17.076 17.1835 16.9178 16.6968 16.9178 16.0519C16.9178 15.1652 17.1111 14.5552 17.4973 14.2225C17.8834 13.8898 18.5396 13.7232 19.4654 13.7232C20.3912 13.7232 21.2268 13.8098 21.9715 13.9831L21.7107 15.6464C21.0633 15.543 20.5447 15.4906 20.1545 15.4906C19.7648 15.4906 19.4344 15.5081 19.1625 15.543V16.0519L19.9148 16.1247C20.8266 16.2149 21.4564 16.4315 21.8045 16.7744C22.1525 17.1179 22.3266 17.5943 22.3266 18.2043C22.3266 18.6411 22.2674 19.0099 22.149 19.3113C22.0307 19.6132 21.89 19.8418 21.726 19.9977C21.5625 20.1535 21.3311 20.2732 21.0316 20.3562C20.7322 20.4398 20.4697 20.4897 20.2435 20.5072C20.0174 20.5246 19.7162 20.5331 19.34 20.5331C18.4353 20.5331 17.5963 20.4428 16.824 20.2629ZM12.7582 10.8049L12.8461 11.815C12.6 11.9197 12.2918 11.972 11.9203 11.972C11.5494 11.972 11.2517 11.9317 11.0267 11.8511C10.8023 11.7711 10.6254 11.6453 10.4965 11.4727C10.3682 11.3 10.2779 11.0973 10.2269 10.8651C10.1766 10.6323 10.1508 10.3453 10.1508 10.0048C10.1508 9.66375 10.1766 9.37619 10.2269 9.14158C10.2779 8.90696 10.3682 8.70363 10.4965 8.53098C10.7467 8.1983 11.2055 8.03166 11.8734 8.03166C12.0217 8.03166 12.1969 8.0467 12.3978 8.07678C12.5994 8.10686 12.7482 8.14416 12.8461 8.18808L12.6703 9.10849C12.4166 9.05254 12.184 9.02427 11.973 9.02427C11.7621 9.02427 11.6156 9.04412 11.5336 9.08443C11.4516 9.12473 11.4105 9.20474 11.4105 9.32506V10.9012C11.5629 10.9331 11.7176 10.9493 11.8734 10.9493C12.2057 10.9493 12.5004 10.9012 12.7582 10.8049ZM14.3051 11.8818H13.0687L14.018 8.1219H15.8285L16.7771 11.8818H15.5414L15.4066 11.2862H14.4398L14.3051 11.8818ZM14.775 9.27693L14.5582 10.3297H15.2824L15.0709 9.27693H14.775ZM19.5193 11.8818H17.1762V8.1219H18.3475V10.9192H19.5193V11.8818ZM22.3611 11.8818H20.0174V8.1219H21.1893V10.9192H22.3611V11.8818ZM4.45018 19.3684C4.87909 20.376 5.39061 21.3548 6.0744 22.2782C6.81737 23.2847 7.77362 24.2316 9.05214 25.0918C9.29413 25.2494 9.56073 25.0467 9.74999 24.8903C9.86073 24.7982 10.0025 24.6484 10.1531 24.483C10.7473 23.8381 11.4832 23.0386 12.3463 23.5758C12.365 23.5873 12.3797 23.6005 12.3984 23.6119L15.2414 25.7409C15.2502 25.7469 15.2596 25.759 15.2684 25.765C15.6387 26.0916 15.757 26.5464 15.709 27.0391C15.5777 28.2802 14.6291 29.3143 13.5035 29.6945C12.9105 29.8978 12.2666 29.9718 11.6525 29.9953C10.6887 30.0332 9.80917 29.8425 8.93085 29.4539C8.07187 29.0718 7.22636 28.5064 6.31405 27.7767L6.24667 27.7213C5.82772 27.3838 5.37597 27.0217 4.93944 26.606C3.33983 25.0611 1.77362 22.9147 0.845494 20.6419C0.0667826 18.7343 -0.256069 16.7317 0.229087 14.9119C0.496861 13.9145 1.01893 13.038 1.82284 12.511C2.52421 12.049 3.42362 11.8541 4.5369 12.0821C4.66522 12.1062 4.77245 12.1964 4.8205 12.3167L6.40663 15.9081C6.65097 16.3184 6.64686 16.6968 6.45175 17.0553C6.29003 17.3489 5.99999 17.6022 5.61679 17.8278C5.50253 17.9078 5.36776 17.9866 5.22714 18.0702C4.87968 18.2741 4.49647 18.5015 4.37108 18.7933C4.2703 19.0273 4.35936 19.1548 4.45018 19.3684Z" fill="#F78B05"/>
</svg>
