<svg width="20" height="20" viewBox="0 0 20 20" fill="none" xmlns="http://www.w3.org/2000/svg">
<path id="Vector" fill-rule="evenodd" clip-rule="evenodd" d="M7.62571 0.011148H14.7242L16.3515 3.9098H19.6745C19.7609 3.9098 19.8436 3.95621 19.9047 4.03883C19.9657 4.12144 20 4.23349 20 4.35033V19.5595C20 19.6763 19.9657 19.7884 19.9047 19.871C19.8436 19.9536 19.7609 20 19.6745 20H0.325468C0.239148 20 0.156364 19.9536 0.0953273 19.871C0.0342903 19.7884 0 19.6763 0 19.5595V4.34592C0 4.22909 0.0342903 4.11704 0.0953273 4.03442C0.156364 3.95181 0.239148 3.90539 0.325468 3.90539H1.82425V2.51113H3.67128V3.9098H5.68267L6.93735 0.5574C7.19121 -0.125415 7.05289 0.011148 7.62571 0.011148ZM10.8446 6.98247C11.4741 6.98194 12.0896 7.2342 12.6131 7.70733C13.1367 8.18046 13.5448 8.85318 13.7857 9.64035C14.0267 10.4275 14.0897 11.2938 13.9668 12.1294C13.8439 12.9651 13.5405 13.7326 13.0952 14.3348L13.0578 14.3811C12.6835 14.8719 12.226 15.2308 11.7253 15.4262C11.2245 15.6216 10.696 15.6475 10.1862 15.5017C9.67635 15.3559 9.20077 15.0428 8.80125 14.59C8.40174 14.1372 8.09052 13.5584 7.89496 12.9046C7.69939 12.2509 7.62547 11.5421 7.67968 10.8406C7.73389 10.1391 7.91459 9.46639 8.20587 8.88155C8.49716 8.29671 8.89013 7.81767 9.35023 7.48654C9.81033 7.1554 10.3235 6.98231 10.8446 6.98247ZM12.2701 9.3591C11.9892 8.98034 11.6318 8.72223 11.243 8.61713C10.8541 8.51202 10.4509 8.5646 10.084 8.76827C9.71712 8.97193 9.40278 9.31763 9.1804 9.76204C8.95802 10.2065 8.83749 10.7298 8.8339 11.2665C8.83032 11.8033 8.94384 12.3295 9.16025 12.7793C9.37666 13.2291 9.68633 13.5824 10.0504 13.795C10.4146 14.0076 10.817 14.07 11.2072 13.9745C11.5974 13.8789 11.9581 13.6296 12.2441 13.2578L12.2701 13.2159C12.4575 12.9626 12.6062 12.6619 12.7076 12.3308C12.809 11.9997 12.8612 11.6448 12.8612 11.2864C12.8612 10.928 12.809 10.5731 12.7076 10.242C12.6062 9.91093 12.4575 9.61016 12.2701 9.3569V9.3591ZM17.9121 5.8349C18.102 5.8349 18.2877 5.91111 18.4455 6.05391C18.6034 6.19671 18.7265 6.39967 18.7992 6.63713C18.8718 6.87459 18.8909 7.13589 18.8538 7.38798C18.8168 7.64007 18.7253 7.87162 18.591 8.05337C18.4568 8.23511 18.2857 8.35888 18.0994 8.40903C17.9132 8.45917 17.7201 8.43344 17.5447 8.33508C17.3693 8.23672 17.2193 8.07015 17.1138 7.85644C17.0083 7.64273 16.952 7.39147 16.952 7.13445C16.952 6.78978 17.0532 6.45924 17.2332 6.21553C17.4133 5.97181 17.6575 5.8349 17.9121 5.8349ZM10.8462 4.78424C11.7967 4.78424 12.7258 5.16572 13.516 5.88043C14.3063 6.59513 14.9222 7.61098 15.2859 8.79949C15.6497 9.98801 15.7448 11.2958 15.5594 12.5575C15.374 13.8193 14.9163 14.9782 14.2442 15.8879C13.5722 16.7975 12.7159 17.417 11.7837 17.668C10.8515 17.919 9.88531 17.7902 9.00722 17.2979C8.12912 16.8056 7.3786 15.9719 6.85056 14.9022C6.32252 13.8326 6.04068 12.575 6.04068 11.2886C6.04068 9.56354 6.54698 7.90913 7.44819 6.68933C8.3494 5.46952 9.57171 4.78424 10.8462 4.78424Z" fill="#4455D7"/>
</svg>
