<svg width="20" height="20" viewBox="0 0 20 20" fill="none" xmlns="http://www.w3.org/2000/svg">
<path id="Vector" fill-rule="evenodd" clip-rule="evenodd" d="M2.4821 17.0441V16.156H2.98665C2.98665 16.0144 2.98665 15.8728 2.98665 15.7312H3.51563V10.5026H2.4349V9.28125H17.5651V10.5026H16.4844V15.7312H17.0133V16.156H17.5179V17.0441H2.4821ZM10.4769 0.363672C12.2298 -0.875991 12.36 1.57834 14.082 0.0454247V2.54641C12.4398 4.05767 12.0866 1.61666 10.4769 2.85633V0.363672ZM10.2295 0.1354V3.05461L18.1087 7.18015V8.48146H1.93848V7.18182L9.79329 3.04461V0.1354H10.2295ZM18.5221 18.7737H18.4424V17.544C12.8158 17.544 7.18425 17.544 1.55762 17.544V18.7737H1.47786V18.777H0V20H20V18.777H18.5221V18.7737ZM6.03516 16.156H6.64551V15.7312H7.17448V10.5026H5.50619V15.7312H6.03516V16.156ZM9.69564 16.156H10.3076V15.7312H10.835V10.5026H9.16667V15.7312H9.69564V16.156ZM13.3545 16.156H13.9665V15.7312H14.4954V10.5026H12.8255V15.7312H13.3545V16.156Z" fill="#646463"/>
</svg>
