<svg width="20" height="20" viewBox="0 0 20 20" fill="none" xmlns="http://www.w3.org/2000/svg">
<path id="Vector" fill-rule="evenodd" clip-rule="evenodd" d="M14.9889 0.861961C16.1309 -0.282939 17.9875 -0.287984 19.136 0.850893C20.2836 1.98944 20.2886 3.84075 19.1472 4.98467L14.1363 10.0023L19.1525 15.0244C20.2845 16.1602 20.2691 17.9998 19.1182 19.1338C17.9669 20.2673 16.1159 20.2644 14.9843 19.1288L10.0024 14.1413L5.01118 19.138C3.86913 20.2829 2.01254 20.288 0.864068 19.1491C-0.283584 18.0106 -0.288695 16.1592 0.852857 15.0153L5.86372 9.99772L0.847746 4.9754C-0.284409 3.83961 -0.268911 2.00002 0.882039 0.86603C2.03332 -0.267313 3.8843 -0.264546 5.01596 0.871076L9.9978 5.85873L14.9889 0.861961Z" fill="#FF0000"/>
</svg>
