<svg width="20" height="20" viewBox="0 0 20 20" fill="none" xmlns="http://www.w3.org/2000/svg">
<path id="Vector" fill-rule="evenodd" clip-rule="evenodd" d="M1.42489 12.1256H18.5751C19.3587 12.1256 20 12.7207 20 13.4434V18.6822C20 19.4049 19.3565 20 18.5751 20H1.42489C0.64346 20 0 19.4069 0 18.6822V13.4434C0 12.7187 0.64135 12.1256 1.42489 12.1256ZM5.80042 4.16686H6.26456V3.58113C6.26456 2.60165 6.68186 1.70842 7.35443 1.06025C8.03249 0.406228 8.96878 0 10 0C11.0312 0 11.9684 0.405838 12.646 1.06025C13.319 1.70842 13.7363 2.60087 13.7363 3.58113V4.16686H14.2C14.5354 4.16686 14.8097 4.4209 14.8097 4.73113V10.3055C14.8097 10.6154 14.5354 10.869 14.2 10.869H5.80042C5.46456 10.869 5.19114 10.6154 5.19114 10.3055V4.73113C5.1903 4.4209 5.46456 4.16686 5.80042 4.16686ZM9.51688 7.77179L8.88228 9.3089H11.1173L10.5295 7.74994C10.9025 7.57278 11.1578 7.21338 11.1578 6.79817C11.1578 6.20659 10.6397 5.72778 9.99958 5.72778C9.36034 5.72778 8.84219 6.20659 8.84219 6.79817C8.84219 7.23016 9.11857 7.60204 9.51688 7.77179ZM7.41814 4.16686H12.5819V3.58113C12.5819 2.88457 12.2882 2.25357 11.816 1.79778C11.3489 1.34746 10.7063 1.06728 10 1.06728C9.29409 1.06728 8.65063 1.34746 8.18397 1.79778C7.71139 2.25357 7.41814 2.88457 7.41814 3.58113V4.16686ZM14.9882 14.6894C14.9882 14.4494 15.1983 14.2547 15.4582 14.2547C15.7177 14.2547 15.9278 14.4494 15.9278 14.6894V15.2513L16.4321 14.9395C16.6468 14.8068 16.938 14.8595 17.0819 15.0585C17.2262 15.2572 17.1684 15.5264 16.9536 15.6595L16.303 16.0614L16.954 16.4618C17.1696 16.5937 17.2291 16.8633 17.0861 17.0627C16.9435 17.2625 16.6519 17.3168 16.4363 17.1849L15.9278 16.8727V17.4366C15.9278 17.6766 15.7177 17.8713 15.4582 17.8713C15.1983 17.8713 14.9882 17.6766 14.9882 17.4366V16.8747L14.4844 17.1865C14.2692 17.3191 13.9785 17.2661 13.8342 17.0674C13.6903 16.8688 13.7477 16.5995 13.9629 16.4661L14.6131 16.0642L13.9624 15.6642C13.7464 15.5323 13.6873 15.2626 13.8304 15.0632C13.973 14.8634 14.2641 14.8088 14.4797 14.9407L14.9882 15.2533V14.6894ZM4.07215 14.6894C4.07215 14.4494 4.28228 14.2547 4.54177 14.2547C4.80127 14.2547 5.01181 14.4494 5.01181 14.6894V15.2513L5.51561 14.9395C5.7308 14.8068 6.02152 14.8595 6.16582 15.0585C6.30971 15.2572 6.25232 15.5264 6.03713 15.6595L5.38692 16.0614L6.03798 16.4618C6.25359 16.5937 6.31266 16.8633 6.16962 17.0627C6.027 17.2625 5.73587 17.3168 5.51983 17.1849L5.01181 16.8727V17.4366C5.01181 17.6766 4.80127 17.8713 4.54177 17.8713C4.28228 17.8713 4.07215 17.6766 4.07215 17.4366V16.8747L3.56793 17.1865C3.35316 17.3191 3.06203 17.2661 2.91814 17.0674C2.77384 16.8688 2.83165 16.5995 3.04684 16.4661L3.69705 16.0642L3.04599 15.6642C2.83038 15.5323 2.77131 15.2626 2.91435 15.0632C3.05696 14.8634 3.3481 14.8088 3.56371 14.9407L4.07215 15.2533V14.6894ZM9.52996 14.6894C9.52996 14.4494 9.74051 14.2547 10 14.2547C10.2595 14.2547 10.47 14.4494 10.47 14.6894V15.2513L10.9738 14.9395C11.1886 14.8068 11.4797 14.8595 11.6241 15.0585C11.7679 15.2572 11.7101 15.5264 11.4954 15.6595L10.8451 16.0614L11.4958 16.4618C11.7118 16.5937 11.7709 16.8633 11.6278 17.0627C11.4852 17.2625 11.1937 17.3168 10.9781 17.1849L10.47 16.8727V17.4366C10.47 17.6766 10.2595 17.8713 10 17.8713C9.74051 17.8713 9.52996 17.6766 9.52996 17.4366V16.8747L9.02616 17.1865C8.81139 17.3191 8.52025 17.2661 8.37637 17.0674C8.23207 16.8688 8.28987 16.5995 8.50464 16.4661L9.15527 16.0642L8.50422 15.6642C8.28861 15.5323 8.22911 15.2626 8.37215 15.0632C8.51477 14.8634 8.80633 14.8088 9.02194 14.9407L9.52996 15.2533V14.6894Z" fill="#646463"/>
</svg>
