<svg width="30" height="30" viewBox="0 0 30 30" fill="none" xmlns="http://www.w3.org/2000/svg">
<path fill-rule="evenodd" clip-rule="evenodd" d="M24.3325 11.1182C25.2521 10.874 26.0711 10.481 26.7377 9.98291C27.8315 9.16504 28.5063 8.0542 28.5063 6.84082C28.5063 6.16211 28.2968 5.51758 27.9213 4.94141H27.924C27.7553 4.68262 27.554 4.43604 27.3227 4.20654C27.203 5.72021 26.7894 7.15576 26.1418 8.46191C25.663 9.42627 25.0508 10.3198 24.3325 11.1182ZM15.3455 22.2681L16.1155 24.2041L18.4065 24.2627L16.5917 25.5176L17.2365 27.4902L15.3455 26.3281L13.4546 27.4902L14.0994 25.5176L12.2846 24.2627L14.5755 24.2041L15.3455 22.2681ZM5.6131 19.7607H25.0807V30H5.6131V19.7607ZM16.5237 14.6655V16.2646H16.657V17.3828H13.2777V16.2646H13.411V14.6558C11.3514 14.3701 9.46853 13.5352 7.93125 12.3145L7.74896 12.7661C5.62942 12.7344 3.71123 12.0776 2.32088 11.0376C0.886994 9.96826 0 8.48389 0 6.83838C0 5.91064 0.285688 5.03174 0.797207 4.24316L0.794486 4.24072C1.31145 3.44238 2.0624 2.74414 2.97932 2.19727L3.80918 1.70166H2.84872V0H26.9581V1.70166H26.1908L27.0207 2.19727C27.9349 2.74414 28.6831 3.44238 29.2028 4.24072H29.2055C29.7143 5.02686 30 5.90576 30 6.83838C30 8.48389 29.113 9.96582 27.6764 11.04C26.286 12.0801 24.3679 12.7368 22.2483 12.7686L22.066 12.3145C20.5124 13.5498 18.6078 14.3896 16.5237 14.6655ZM11.4711 18.5034H18.4664V19.6216H11.4711V18.5034ZM12.5376 17.3828H17.3998V18.501H12.5376V17.3828ZM3.26229 9.98291C3.92889 10.4834 4.75059 10.874 5.67023 11.1206C4.95193 10.3223 4.33974 9.42871 3.85815 8.45947C3.21059 7.15576 2.79702 5.71777 2.67731 4.2041C2.45148 4.42871 2.25014 4.67773 2.07872 4.93896H2.076C1.70325 5.5127 1.49374 6.15967 1.49374 6.83838C1.49374 8.0542 2.16851 9.1626 3.26229 9.98291Z" fill="#F78B05"/>
</svg>
