<svg width="30" height="30" viewBox="0 0 30 30" fill="none" xmlns="http://www.w3.org/2000/svg">
<path d="M6.28232 18.7842L4.90067 22.0923C4.86842 22.1701 4.81497 22.2367 4.74671 22.2842C4.67844 22.3317 4.59825 22.3581 4.5157 22.3602L1.03988 22.6796L3.68952 25.0456C3.81257 25.1559 3.85945 25.3225 3.82546 25.4753L3.04264 28.9824L6.06084 27.1366C6.20146 27.0503 6.37139 27.0563 6.50264 27.1366L9.52201 28.9824L9.17806 27.4446C9.464 27.4776 9.75873 27.456 10.0453 27.3757L10.4367 29.1322C10.4478 29.2083 10.4478 29.2868 10.4355 29.3653C10.4205 29.4599 10.3883 29.5508 10.3406 29.6332C10.2404 29.8044 10.0779 29.9279 9.88881 29.9766C9.70775 30.0234 9.50795 29.9988 9.33275 29.8921L6.28174 28.0265L3.2571 29.8771C3.19147 29.9209 3.11764 29.9544 3.03854 29.9748L2.98346 29.9886C2.89908 30.0042 2.80826 30.0042 2.71685 29.9862L2.68756 29.9808C2.49185 29.9341 2.33189 29.8106 2.23169 29.6476C2.13038 29.4829 2.09532 29.2844 2.13384 29.0939L2.92897 25.5347L0.252374 23.1441C0.182061 23.0812 0.122295 23.0032 0.0801066 22.9175C0.0406927 22.8388 0.0151082 22.7536 0.00451982 22.6658L0.0015901 22.6269C-0.0113007 22.4285 0.054911 22.2403 0.173858 22.0953C0.291632 21.9515 0.46097 21.8526 0.654332 21.8304L4.20925 21.5062L5.60263 18.1676C5.63963 18.0775 5.69335 17.9957 5.76083 17.9266C5.81591 17.8691 5.88154 17.8206 5.95478 17.7828C5.98115 17.7684 6.0081 17.7564 6.03681 17.7474C6.21025 17.6839 6.39541 17.6929 6.55596 17.7588C6.71709 17.8254 6.85596 17.95 6.93917 18.119L8.04191 20.7565L7.7214 22.1906C7.69796 22.1606 7.67921 22.1277 7.66457 22.0923L6.28232 18.7842ZM2.39869 9.09606C2.0647 8.95223 1.90767 8.5591 2.04829 8.2175C2.18892 7.8759 2.57388 7.71529 2.90787 7.85912L5.64599 9.04572C5.97998 9.18955 6.13701 9.58329 5.99638 9.92428C5.85576 10.2659 5.47079 10.4265 5.1368 10.2827L2.39869 9.09606ZM5.18309 4.73082C4.92762 4.46773 4.92879 4.04223 5.18602 3.78094C5.44325 3.51964 5.85927 3.52084 6.11474 3.78393L8.20656 5.94618C8.46204 6.20927 8.46086 6.63477 8.20363 6.89606C7.9464 7.15735 7.53039 7.15615 7.27491 6.89306L5.18309 4.73082ZM9.38138 1.77391C9.24369 1.43111 9.40365 1.03857 9.73881 0.89774C10.0746 0.756906 10.4578 0.920513 10.596 1.26331L11.7269 4.07699C11.8646 4.41978 11.7041 4.81232 11.3689 4.95315C11.0337 5.09399 10.65 4.93038 10.5123 4.58758L9.38138 1.77391ZM27.0921 7.85912C27.4261 7.71529 27.8111 7.8759 27.9517 8.2175C28.0923 8.5591 27.9353 8.95223 27.6013 9.09606L24.8632 10.2827C24.5292 10.4265 24.1442 10.2659 24.0036 9.92428C23.863 9.58329 24.02 9.18955 24.354 9.04572L27.0921 7.85912ZM23.8853 3.78393C24.1407 3.52084 24.5567 3.51964 24.814 3.78094C25.0712 4.04223 25.0724 4.46773 24.8169 4.73082L22.7251 6.89306C22.4696 7.15615 22.0536 7.15735 21.7964 6.89606C21.5391 6.63477 21.538 6.20927 21.7934 5.94618L23.8853 3.78393ZM19.404 1.26331C19.5422 0.920513 19.9254 0.756906 20.2612 0.89774C20.5964 1.03857 20.7563 1.43111 20.6186 1.77391L19.4877 4.58758C19.35 4.93038 18.9663 5.09399 18.6311 4.95315C18.2959 4.81232 18.1354 4.41978 18.2731 4.07699L19.404 1.26331ZM14.3209 0.673605C14.3209 0.302043 14.6156 0 14.9795 0C15.3428 0 15.6381 0.302043 15.6381 0.673605V3.71561C15.6381 4.08717 15.3428 4.38922 14.9795 4.38922C14.6156 4.38922 14.3209 4.08717 14.3209 3.71561V0.673605ZM15.7436 8.1282L17.8506 13.1736L23.2155 13.6651C23.4317 13.6872 23.6192 13.7957 23.7493 13.9539L23.771 13.9833C23.8864 14.1373 23.9497 14.3327 23.9351 14.5382L23.9327 14.5688C23.9222 14.6707 23.8929 14.766 23.8501 14.8523L23.8378 14.875C23.7991 14.9464 23.7499 15.0123 23.6931 15.0686L19.6114 18.7159L20.8137 24.0988C20.8565 24.3127 20.8132 24.5254 20.7065 24.6986C20.4686 25.0882 19.9606 25.1979 19.5885 24.9491L15 22.1427L10.3734 24.9713C10.1933 25.0785 9.97952 25.1094 9.77748 25.0576C9.3515 24.9479 9.09544 24.5117 9.19095 24.079L10.3886 18.7159L6.3374 15.0974C6.25802 15.0264 6.1931 14.9401 6.14635 14.8434C6.0996 14.7468 6.07193 14.6416 6.06494 14.534C6.05146 14.3267 6.11592 14.1115 6.26182 13.9413C6.33506 13.8562 6.42119 13.7897 6.51377 13.7436C6.60928 13.6956 6.71475 13.6681 6.82139 13.6621L12.1494 13.1736L14.2617 8.11442C14.3484 7.90647 14.5107 7.75245 14.7012 7.67454C15.1125 7.50494 15.5725 7.7099 15.7406 8.12041L15.7436 8.1282ZM24.4009 18.1765L25.7907 21.5062L29.3457 21.8304C29.539 21.8526 29.7084 21.9521 29.8261 22.0953C29.9451 22.2403 30.0113 22.4285 29.9984 22.6269L29.9955 22.6658C29.9849 22.7536 29.9593 22.8388 29.9199 22.9175C29.8777 23.0032 29.8185 23.0806 29.7476 23.1441L27.071 25.5347L27.8662 29.0939C27.906 29.291 27.8662 29.4882 27.7683 29.6476C27.6687 29.81 27.5081 29.9341 27.3124 29.9808L27.2831 29.9862C27.1917 30.0042 27.1015 30.0042 27.0165 29.9886L26.9615 29.9748C26.8824 29.9544 26.8085 29.9215 26.7429 29.8771L23.7177 28.0265L20.6673 29.8921C20.5846 29.9429 20.4929 29.9765 20.3975 29.991C20.302 30.0055 20.2048 30.0006 20.1112 29.9766C19.9295 29.9299 19.7637 29.8112 19.6594 29.6332C19.6102 29.5487 19.5786 29.4576 19.5639 29.3665L19.5633 29.3617C19.551 29.2868 19.5516 29.2095 19.5633 29.1334L19.9553 27.3739C20.0192 27.3919 20.0848 27.4068 20.1504 27.4188C20.3702 27.4596 20.5969 27.4692 20.8219 27.4434L20.478 28.9824L23.4968 27.1366C23.6286 27.0563 23.7979 27.0503 23.9386 27.1366L26.9574 28.9824L26.174 25.4753C26.1406 25.3225 26.1874 25.1559 26.3105 25.0456L28.9601 22.6796L25.4843 22.3602C25.4018 22.3581 25.3216 22.3317 25.2533 22.2842C25.185 22.2367 25.1316 22.1701 25.0993 22.0923L23.7177 18.7842L22.3366 22.0923C22.3214 22.1289 22.3009 22.163 22.2768 22.1936L21.9569 20.7607L23.0608 18.119C23.144 17.95 23.2829 17.8254 23.444 17.7588C23.6052 17.6929 23.7903 17.6839 23.9638 17.7474C23.9925 17.757 24.02 17.769 24.0458 17.7834C24.1196 17.8212 24.1841 17.8697 24.2392 17.9266C24.3071 17.9968 24.361 18.0795 24.3974 18.1676L24.4009 18.1765Z" fill="#F78B05"/>
</svg>
