<svg width="20" height="20" viewBox="0 0 20 20" fill="none" xmlns="http://www.w3.org/2000/svg">
<path d="M11.8331 1.69946L15.861 4.84097L11.7658 4.89175L11.8331 1.69946ZM16.1121 10.8369L16.1194 10.842C16.5347 11.1029 16.59 11.1482 17.1405 11.1681C17.5479 11.1791 17.9915 11.192 18.2858 11.5158C18.5373 11.7974 18.5589 12.0106 18.5768 12.2235L18.58 12.2473C18.5989 12.5211 18.7126 12.6989 18.931 12.9184C19.1973 13.1789 19.3568 13.4 19.4168 13.6027C19.5405 14.0151 19.2768 14.2889 18.8815 14.537C18.7784 14.6026 18.6868 14.6604 18.6584 14.7081C18.5837 14.8369 18.58 14.9553 18.58 15.0787C18.5663 15.7361 18.0321 16.2813 17.0379 16.2317C16.6163 16.206 16.4916 16.3145 16.151 16.5134C15.4352 16.9418 14.8752 16.9383 14.1616 16.5106C13.83 16.3114 13.7068 16.2114 13.2789 16.229C12.3373 16.2759 11.7479 15.7705 11.7326 15.0764C11.7237 14.7674 11.7168 14.7163 11.4242 14.5288C11.0273 14.2784 10.7637 14.0148 10.8889 13.5972C10.9489 13.3945 11.1121 13.1734 11.3779 12.9133C11.9363 12.3774 11.5521 12.0278 12.0237 11.5103L12.0305 11.5052C12.3216 11.1869 12.761 11.1763 13.1652 11.1658C13.7037 11.1525 13.7905 11.0951 14.19 10.8369C14.8794 10.3913 15.4226 10.3905 16.1121 10.8369ZM19.481 19.2502L18.4137 19.108L17.8779 19.8213C17.8747 19.8263 17.871 19.8318 17.8637 19.8342C17.6405 20.0396 17.4347 20.0341 17.2573 19.9263C17.0658 19.8107 16.9379 19.5631 16.8568 19.4002L16.8247 19.3397L15.6937 17.755C15.6579 17.7054 15.6831 17.6449 15.7505 17.6211C15.7573 17.6183 15.7647 17.616 15.7679 17.616C15.8852 17.5871 16.0163 17.5262 16.1584 17.4476C16.3068 17.3656 16.4631 17.2629 16.6226 17.1578C16.651 17.1395 16.6863 17.1289 16.7252 17.1317C17.0305 17.1367 17.3284 17.1184 17.5942 17.0528C17.8568 16.9868 18.0979 16.8711 18.3037 16.6762C18.3494 16.6317 18.4347 16.6235 18.4915 16.6579C18.5058 16.6684 18.52 16.679 18.5268 16.6922L19.8352 18.5659L19.9489 18.7475C19.9526 18.7526 19.9563 18.7581 19.9563 18.7632C20.0089 18.9026 20.02 19.0237 19.9563 19.1159C19.8737 19.2354 19.6484 19.2908 19.481 19.2502ZM11.9031 19.108L10.8352 19.2502C10.6795 19.2889 10.4368 19.2268 10.3568 19.1104C10.2931 19.0209 10.3037 18.8999 10.3568 18.7581L10.4774 18.5604L11.7858 16.6868C11.7926 16.6739 11.8068 16.6633 11.821 16.6528C11.8816 16.6184 11.9631 16.6262 12.0095 16.6712C12.4121 17.0543 12.9647 17.1371 13.5873 17.1262C13.6226 17.1238 13.6579 17.1317 13.69 17.1528C13.911 17.2984 14.2663 17.5414 14.5447 17.6105C14.621 17.6332 14.6605 17.6945 14.6189 17.75L13.4879 19.3342L13.4558 19.3947C13.3747 19.558 13.2468 19.8052 13.0552 19.9213C12.8779 20.0263 12.6758 20.0341 12.4489 19.8291C12.2789 19.5904 12.0816 19.3455 11.9031 19.108ZM15.1584 11.9313C14.5131 11.9313 13.9316 12.1263 13.5095 12.4395C13.0873 12.7524 12.8247 13.184 12.8247 13.6632C12.8247 14.1421 13.0873 14.5737 13.5095 14.8869C13.9316 15.2002 14.5131 15.3947 15.1584 15.3947C15.8037 15.3947 16.3852 15.2002 16.8073 14.8869C17.2289 14.5737 17.4915 14.1421 17.4915 13.6632C17.4842 12.7078 16.45 11.9313 15.1584 11.9313ZM3.54315 14.3136H8.66051V13.7429H3.54315V14.3136ZM3.54315 12.1223H10.58L10.5805 12.1141C10.5984 11.9169 10.6347 11.7384 10.7158 11.5517H3.54315V12.1223ZM3.54315 9.93114H13.8742C14.0652 9.83896 14.2684 9.76904 14.4852 9.71788L14.49 9.71709V9.36049H3.54315V9.93114ZM3.54315 3.3579H7.14841V2.78725H3.54315V3.3579ZM3.54315 5.54911H8.66051V4.97846H3.54315V5.54911ZM3.54315 7.74032H14.4758V7.16967H3.54315V7.74032ZM18.0337 5.29288C18.0337 5.06595 17.8279 4.86987 17.5452 4.81285L11.6126 0.183187C11.4889 0.0699156 11.301 0 11.0952 0H1.20526C0.538946 0 0 0.399573 0 0.894451V16.2064C0 16.7001 0.539999 17.1008 1.20526 17.1008H10.1931L10.7437 16.3118L10.75 16.3017H1.07684V0.79485H10.5547V5.2882C10.5547 5.56317 10.8547 5.7901 11.231 5.7901H16.9568V10.2417C17.2305 10.41 17.1242 10.3108 17.1647 10.3092C17.471 10.3206 17.7331 10.328 18.0337 10.3901V5.29288Z" fill="#171560"/>
</svg>
