<svg width="15" height="20" viewBox="0 0 15 20" fill="none" xmlns="http://www.w3.org/2000/svg">
<path id="Vector" fill-rule="evenodd" clip-rule="evenodd" d="M1.59427 6.05458H13.501C13.5966 6.05022 13.6924 6.05897 13.7862 6.08065C13.9413 6.11964 14.0837 6.20773 14.197 6.33483C14.3286 6.47909 14.4115 6.67181 14.4309 6.87902C14.4345 6.95736 14.4317 7.03592 14.4224 7.11365L13.4083 19.1136V19.1348V19.1804C13.4016 19.23 13.392 19.279 13.3797 19.3271V19.3369C13.3259 19.5262 13.222 19.6917 13.0822 19.8105C12.9424 19.9293 12.7737 19.9955 12.5995 20H2.47144C2.41124 19.9967 2.3515 19.9863 2.29315 19.969C2.23582 19.9495 2.18038 19.9233 2.1277 19.8908C2.00338 19.8091 1.89838 19.694 1.82183 19.5554C1.74527 19.4169 1.69947 19.2591 1.68841 19.0957L0.690001 7.12179C0.678608 7.03225 0.675738 6.94157 0.681443 6.85132C0.701396 6.64699 0.783706 6.4572 0.913929 6.31527C1.03193 6.18425 1.18049 6.09487 1.34182 6.05784C1.42608 6.04102 1.51161 6.03392 1.59712 6.03666L1.59427 6.05458ZM0.806957 1.43381H5.2955V0.977597C5.29479 0.962944 5.29479 0.948258 5.2955 0.933605C5.30448 0.688037 5.39411 0.455345 5.54653 0.281874C5.70651 0.10147 5.9222 0.000218533 6.147 0L8.90973 0H8.95252C9.17198 0.012551 9.37882 0.121062 9.53016 0.303055C9.68151 0.485047 9.76578 0.726573 9.7655 0.977597V1.43381H14.3296H14.3853C14.5468 1.4489 14.6981 1.53033 14.8111 1.66304C14.9241 1.79574 14.9912 1.97073 15 2.1556C15 2.18493 15 2.20774 15 2.23707V3.84358C15 3.9555 14.9611 4.06284 14.8918 4.14198C14.8225 4.22112 14.7286 4.26558 14.6306 4.26558H0.370511C0.273274 4.26559 0.179956 4.2218 0.1108 4.14371C0.0416438 4.06563 0.00222731 3.95954 0.00110102 3.84847V2.20448C-0.000367005 2.18769 -0.000367005 2.17077 0.00110102 2.15397C0.0108727 1.9824 0.0706921 1.81952 0.171005 1.69134C0.271319 1.56316 0.406339 1.47708 0.554503 1.44684C0.638176 1.4343 0.722634 1.42994 0.806957 1.43381ZM6.81165 10.0204C6.82887 9.82901 6.9076 9.65175 7.03261 9.52286C7.15762 9.39398 7.32003 9.32264 7.48843 9.32264C7.65682 9.32264 7.81923 9.39398 7.94424 9.52286C8.06926 9.65175 8.14799 9.82901 8.1652 10.0204V16.0489C8.14799 16.2402 8.06926 16.4175 7.94424 16.5464C7.81923 16.6753 7.65682 16.7466 7.48843 16.7466C7.32003 16.7466 7.15762 16.6753 7.03261 16.5464C6.9076 16.4175 6.82887 16.2402 6.81165 16.0489V10.0204ZM10.1962 9.98778C10.2149 9.79248 10.3003 9.61348 10.4338 9.48964C10.5673 9.36579 10.7382 9.30709 10.9094 9.32627C10.9935 9.32541 11.0769 9.34356 11.1548 9.37968C11.2327 9.41579 11.3036 9.46915 11.3634 9.5367C11.4232 9.60424 11.4707 9.68463 11.5032 9.77323C11.5356 9.86183 11.5525 9.9569 11.5526 10.053L11.2674 16.0815C11.249 16.2769 11.1638 16.4562 11.0302 16.5801C10.8966 16.7041 10.7255 16.7626 10.5542 16.743C10.4702 16.7438 10.3868 16.7257 10.3088 16.6896C10.2309 16.6535 10.16 16.6001 10.1002 16.5325C10.0405 16.465 9.99295 16.3846 9.96047 16.296C9.92799 16.2074 9.91117 16.1124 9.91099 16.0163L10.1962 9.98778ZM3.56683 10.053C3.56683 9.95697 3.58347 9.86194 3.6158 9.77335C3.64812 9.68476 3.69549 9.60436 3.75516 9.53679C3.81484 9.46923 3.88564 9.41584 3.96348 9.37971C4.04132 9.34357 4.12465 9.32541 4.20867 9.32627C4.37983 9.30709 4.55071 9.36579 4.68422 9.48964C4.81774 9.61348 4.90311 9.79248 4.92181 9.98778L5.20707 16.0163C5.20689 16.1124 5.19007 16.2074 5.15759 16.296C5.12511 16.3846 5.07761 16.465 5.01782 16.5325C4.95803 16.6001 4.88713 16.6535 4.80922 16.6896C4.7313 16.7257 4.6479 16.7438 4.56381 16.743C4.39257 16.7626 4.22149 16.7041 4.08789 16.5801C3.95429 16.4562 3.86901 16.2769 3.85067 16.0815L3.56541 10.053H3.56683Z" fill="#FF0000"/>
</svg>
