<svg xmlns="http://www.w3.org/2000/svg" version="1.1" xmlns:xlink="http://www.w3.org/1999/xlink" xmlns:svgjs="http://svgjs.com/svgjs" width="512" height="512" x="0" y="0" viewBox="0 0 512 512" style="enable-background:new 0 0 512 512" xml:space="preserve" class="hovered-paths"><g><path d="M0 21.94h120v316.72H0zM490.913 236.762c6.387-8.498 10.178-19.053 10.178-30.478 0-16.927-8.325-31.938-21.087-41.181 6.388-8.498 10.179-19.053 10.179-30.479 0-16.927-8.315-31.946-21.077-41.189a50.57 50.57 0 0 0 10.168-30.47c0-28.027-22.802-50.829-50.83-50.829H268.426a218.299 218.299 0 0 0-76.908 13.945L150 41.651v262.49c48.654 52.353 93.186 102.323 101.206 115.159v58.999c0 11.891 9.673 21.565 21.564 21.565 49.039 0 88.936-39.897 88.936-88.936v-26.613l-16.08-55.543H461.17c28.027 0 50.83-22.802 50.83-50.829 0-16.927-8.325-31.938-21.087-41.181z" fill="#000000" data-original="#000000" class="hovered-path"></path></g></svg>