<svg width="20" height="20" viewBox="0 0 20 20" fill="none" xmlns="http://www.w3.org/2000/svg">
<rect width="20" height="20" fill="#F5F5F5"/>
<rect width="393" height="852" transform="translate(-12 -350)" fill="white"/>
<circle cx="10" cy="10" r="10" fill="#009541"/>
<path d="M5.38028 11.6211C4.20436 10.0925 6.0126 7.81201 7.31791 9.25886C7.7777 9.76378 8.4442 10.502 8.90643 11.0039L12.6246 5.52166C13.8722 3.96063 15.8415 6.25197 14.6103 7.82087L9.97575 14.4774C9.84678 14.6421 9.69147 14.7733 9.51926 14.8632C9.34704 14.953 9.16153 14.9996 8.97397 15H8.9577C8.6264 15.0009 8.30692 14.8512 8.06253 14.5807C7.29024 13.7146 6.18349 12.4439 5.38435 11.628L5.38028 11.6211Z" fill="white"/>
</svg>
