<svg width="15" height="18" viewBox="0 0 15 18" fill="none" xmlns="http://www.w3.org/2000/svg">
<path d="M10.3247 6.97508C10.4121 6.86499 10.5166 6.77739 10.6321 6.71743C10.7477 6.65747 10.8718 6.62637 10.9973 6.62594C11.1228 6.62551 11.2471 6.65576 11.3629 6.71493C11.4787 6.7741 11.5836 6.86098 11.6715 6.97046C11.7594 7.07994 11.8286 7.20982 11.8748 7.35245C11.9211 7.49507 11.9435 7.64757 11.9409 7.80097C11.9382 7.95436 11.9105 8.10556 11.8594 8.24567C11.8082 8.38578 11.7347 8.51196 11.643 8.6168L8.06761 12.9271C7.89138 13.1387 7.65423 13.2573 7.40721 13.2573C7.16018 13.2573 6.92303 13.1387 6.74681 12.9271L3.22265 8.67202C3.04459 8.45808 2.94333 8.16641 2.94115 7.86119C2.93898 7.55596 3.03606 7.26218 3.21105 7.04448C3.38604 6.82677 3.62459 6.70297 3.87424 6.70031C4.12388 6.69765 4.36416 6.81635 4.54222 7.0303L6.48192 9.38095L6.50145 1.10218C6.51205 0.803862 6.61696 0.522225 6.79407 0.316626C6.97118 0.111027 7.20666 -0.00247472 7.45088 4.09417e-05C7.6951 0.00255661 7.92898 0.120894 8.10323 0.330112C8.27749 0.53933 8.3785 0.823089 8.38499 1.12158L8.36668 9.3302L10.3247 6.97508ZM0 16.8971L0.012207 12.3928C0.00894853 12.2381 0.0311905 12.0843 0.0776068 11.9404C0.124023 11.7965 0.193663 11.6655 0.282375 11.5552C0.371087 11.4449 0.477055 11.3576 0.593959 11.2984C0.710864 11.2393 0.836312 11.2095 0.962825 11.2109C1.08934 11.2123 1.21432 11.2449 1.33033 11.3066C1.44634 11.3683 1.55099 11.458 1.63805 11.5702C1.72511 11.6825 1.7928 11.815 1.83707 11.9599C1.88134 12.1048 1.9013 12.2591 1.89575 12.4137L1.8872 15.6971C5.63068 15.7061 9.3705 15.7061 13.1067 15.6971L13.1152 12.3958C13.1175 12.0902 13.2189 11.7982 13.3973 11.5841C13.5756 11.37 13.8162 11.2512 14.0661 11.254C14.3161 11.2568 14.5549 11.3808 14.73 11.5989C14.9051 11.8169 15.0022 12.1111 15 12.4166L14.9878 16.8941H14.9768C14.9658 17.1883 14.863 17.4662 14.6895 17.6706C14.516 17.8749 14.2851 17.9902 14.0442 17.9925C9.67161 18.0025 5.30231 18.0025 0.936277 17.9925C0.695053 17.9917 0.463323 17.8775 0.289043 17.6736C0.114764 17.4697 0.0112771 17.1917 0 16.8971Z" fill="white"/>
</svg>
