<svg width="25" height="25" viewBox="0 0 25 25" fill="none" xmlns="http://www.w3.org/2000/svg">
<path d="M12.4964 1.23021e-05C15.3885 -0.000814392 18.1914 1.00124 20.4275 2.83542C22.6636 4.66961 24.1945 7.22241 24.7593 10.0588C25.3241 12.8953 24.8879 15.8398 23.525 18.3906C22.1621 20.9414 19.9568 22.9408 17.285 24.0479C14.6132 25.155 11.6402 25.3014 8.87252 24.4621C6.10487 23.6228 3.71389 21.8498 2.107 19.4452C0.500108 17.0405 -0.223247 14.1531 0.0601966 11.2749C0.34364 8.39675 1.61634 5.7059 3.66143 3.66093C4.82005 2.49844 6.19711 1.57653 7.71337 0.948249C9.22962 0.319965 10.8552 -0.00229495 12.4964 1.23021e-05ZM14.5303 10.3197C14.6616 10.2211 14.8245 10.1738 14.9882 10.1869C15.1519 10.2 15.3053 10.2725 15.4193 10.3907C15.5333 10.509 15.6001 10.6649 15.6072 10.829C15.6143 10.9931 15.5611 11.1541 15.4577 11.2817L12.9032 13.8118C12.7772 13.9362 12.6073 14.0059 12.4303 14.0059C12.2533 14.0059 12.0834 13.9362 11.9575 13.8118L9.43346 11.3183C9.32436 11.1901 9.26707 11.0258 9.27283 10.8576C9.27859 10.6893 9.347 10.5293 9.46462 10.4089C9.58225 10.2885 9.74062 10.2163 9.90868 10.2066C10.0767 10.1969 10.2424 10.2503 10.3731 10.3563L11.7622 11.7332L11.7744 6.88457C11.776 6.70548 11.8487 6.53438 11.9765 6.40889C12.1043 6.2834 12.2767 6.21381 12.4558 6.21543C12.6348 6.21705 12.8059 6.28974 12.9314 6.41752C13.0569 6.5453 13.1265 6.71769 13.1249 6.89677L13.1106 11.7068L14.514 10.3197H14.5303ZM7.11895 16.5128V13.8688C7.12057 13.6897 7.19326 13.5186 7.32104 13.3931C7.44882 13.2676 7.62121 13.198 7.80029 13.1996C7.97937 13.2013 8.15048 13.274 8.27597 13.4017C8.40145 13.5295 8.47104 13.7019 8.46942 13.881V15.803C11.1487 15.803 13.8266 15.803 16.5031 15.803V13.8688C16.5039 13.7801 16.5222 13.6925 16.5568 13.6108C16.5915 13.5292 16.6419 13.4552 16.7052 13.3931C16.7684 13.331 16.8433 13.2819 16.9256 13.2487C17.0078 13.2155 17.0958 13.1988 17.1844 13.1996C17.2731 13.2004 17.3607 13.2187 17.4424 13.2534C17.524 13.2881 17.598 13.3385 17.6601 13.4017C17.7222 13.465 17.7713 13.5399 17.8045 13.6221C17.8377 13.7043 17.8544 13.7923 17.8536 13.881V16.5067C17.8458 16.6794 17.772 16.8425 17.6475 16.9624C17.523 17.0824 17.3573 17.15 17.1844 17.1514C14.055 17.1514 10.9263 17.1514 7.79826 17.1514C7.62464 17.1527 7.45719 17.0871 7.33069 16.9682C7.20419 16.8492 7.12836 16.6861 7.11895 16.5128ZM20.225 4.76734C18.437 2.97929 16.0843 1.86653 13.5678 1.61867C11.0513 1.37081 8.52667 2.00318 6.42415 3.40804C4.32162 4.81289 2.77126 6.90331 2.03721 9.3231C1.30317 11.7429 1.43087 14.3424 2.39855 16.6786C3.36622 19.0148 5.11401 20.9432 7.3441 22.1352C9.57419 23.3272 12.1486 23.7091 14.6287 23.2158C17.1088 22.7224 19.3411 21.3845 20.9453 19.4298C22.5495 17.4751 23.4263 15.0246 23.4263 12.4959C23.4281 11.0603 23.1462 9.63854 22.5968 8.31222C22.0474 6.9859 21.2414 5.7812 20.225 4.76734Z" fill="white"/>
</svg>
