<svg xmlns="http://www.w3.org/2000/svg" version="1.1" xmlns:xlink="http://www.w3.org/1999/xlink" xmlns:svgjs="http://svgjs.com/svgjs" width="512" height="512" x="0" y="0" viewBox="0 0 32 32" style="enable-background:new 0 0 512 512" xml:space="preserve"><g><path d="M24 16.08V5a3 3 0 0 0-3-3H5a3 3 0 0 0-3 3v16a3 3 0 0 0 3 3h11.08A7 7 0 1 0 24 16.08zM4 21V5a1 1 0 0 1 1-1h16a1 1 0 0 1 1 1v11.08A7 7 0 0 0 16.08 22H5a1 1 0 0 1-1-1zm19 7a5 5 0 1 1 5-5 5 5 0 0 1-5 5zm-5.55-14.11a1 1 0 0 0 0-1.78l-8-4A1 1 0 0 0 8 9v8a1 1 0 0 0 .47.85A1 1 0 0 0 9 18a1 1 0 0 0 .45-.11zM10 10.62 14.76 13 10 15.38zm15.71 12.17a1 1 0 0 1 0 1.42l-2 2a1 1 0 0 1-1.42 0l-2-2a1 1 0 0 1 1.42-1.42l.29.3V20.5a1 1 0 0 1 2 0v2.59l.29-.3a1 1 0 0 1 1.42 0z" data-name="04 video download" fill="#000000" data-original="#000000"></path></g></svg>