<svg width="30" height="30" viewBox="0 0 30 30" fill="none" xmlns="http://www.w3.org/2000/svg">
<path d="M3.74795 21.3654C4.02629 21.1449 4.42917 21.1969 4.64647 21.4793C4.86378 21.7618 4.8125 22.1706 4.53416 22.3911L1.30386 24.9379L1.27944 28.3692L5.24712 28.1437L7.40065 24.6703C7.58866 24.3681 7.98421 24.2764 8.28209 24.4672C8.57997 24.6579 8.67031 25.0593 8.4823 25.3615L6.16274 29.1C6.05775 29.2809 5.8673 29.4072 5.64511 29.4196L0.671469 29.7045C0.659261 29.7045 0.647052 29.7045 0.634844 29.7045C0.283247 29.702 -0.00242611 29.4122 1.55359e-05 29.0529L0.031757 24.6654C0.0171071 24.4548 0.102565 24.2417 0.278363 24.103L3.74795 21.3654ZM9.78614 13.3607C11.3976 8.47268 13.5707 5.00671 16.6276 2.82406C19.7993 0.557187 23.8769 -0.300015 29.2192 0.0914238C29.5879 0.118676 29.8711 0.425881 29.876 0.792545C30.3937 6.66165 29.2705 10.8238 26.8777 13.9776C24.5752 17.01 21.1203 19.0613 16.8327 20.7832V26.5135C16.8327 26.7935 16.674 27.0388 16.4421 27.1552L12.0764 29.8928C11.7443 30.1009 11.3097 29.9969 11.1046 29.6599C11.0509 29.5707 11.0167 29.4741 11.0045 29.3775C10.0376 21.8807 9.0097 21.5215 2.96906 19.4008C2.24633 19.1481 1.46745 18.8731 0.94005 18.6848C0.571361 18.5535 0.378471 18.1422 0.507878 17.7706C0.534737 17.6913 0.576245 17.6195 0.625078 17.555L3.50378 13.3929C3.64784 13.1848 3.88224 13.0758 4.11419 13.0882L9.78614 13.3607ZM22.1458 7.83845C21.7551 7.44205 21.2179 7.19926 20.6222 7.19926C20.0289 7.19926 19.4893 7.44453 19.0986 7.83845C18.7079 8.23484 18.4686 8.77988 18.4686 9.38438C18.4686 9.98641 18.7104 10.5339 19.0986 10.9303C19.4893 11.3267 20.0264 11.5695 20.6222 11.5695C21.2155 11.5695 21.7551 11.3242 22.1458 10.9303C22.5364 10.5339 22.7757 9.98888 22.7757 9.38438C22.7757 8.77988 22.534 8.23484 22.1458 7.83845Z" fill="#D9D9D9"/>
</svg>
