<svg width="20" height="12" viewBox="0 0 20 12" fill="none" xmlns="http://www.w3.org/2000/svg">
<path d="M0.154982 5.53552C0.630254 4.88448 1.12831 4.29245 1.64428 3.75944C3.97831 1.35261 6.74856 0.0671167 9.60507 0.00256552C12.4551 -0.0619857 15.3783 1.09071 18.02 3.56026C18.6515 4.15044 19.2619 4.80886 19.8495 5.54106C20.0383 5.77713 20.048 6.12571 19.8869 6.37285C19.2147 7.44808 18.4415 8.3684 17.5968 9.13195C15.4825 11.0445 12.9141 11.9851 10.3115 11.9999C7.71864 12.0128 5.09325 11.1035 2.85687 9.31269C1.8575 8.51226 0.934623 7.53661 0.125685 6.38944C-0.0549837 6.13124 -0.0370796 5.76791 0.154982 5.53552ZM10.0006 4.88079C10.0966 4.88079 10.191 4.89739 10.2789 4.92506C10.204 5.01727 10.1601 5.14084 10.1601 5.27548C10.1601 5.56319 10.3652 5.79557 10.6191 5.79557C10.7444 5.79557 10.8567 5.74024 10.9397 5.64803C10.9723 5.75869 10.9886 5.87672 10.9886 5.99845C10.9886 6.6163 10.5459 7.11795 10.0006 7.11795C9.45533 7.11795 9.01261 6.6163 9.01261 5.99845C9.01261 5.38245 9.45533 4.88079 10.0006 4.88079ZM10.0006 1.99627C10.9755 1.99627 11.8594 2.44444 12.499 3.16926C13.1387 3.89408 13.5342 4.8937 13.5342 6.00029C13.5342 7.10504 13.1387 8.10651 12.499 8.83132C11.8594 9.55614 10.9772 10.0043 10.0006 10.0043C9.02563 10.0043 8.14182 9.55614 7.50216 8.83132C6.8625 8.10651 6.46698 7.10688 6.46698 6.00029C6.46698 4.89555 6.8625 3.89408 7.50216 3.16926C8.14182 2.44444 9.02563 1.99627 10.0006 1.99627ZM11.7015 4.07298C11.2669 3.58055 10.6647 3.27439 10.0006 3.27439C9.33651 3.27439 8.73429 3.5787 8.29971 4.07298C7.86513 4.56541 7.59494 5.24781 7.59494 6.00029C7.59494 6.75278 7.8635 7.43517 8.29971 7.92761C8.73429 8.42004 9.33651 8.7262 10.0006 8.7262C10.6647 8.7262 11.2669 8.42188 11.7015 7.92761C12.1361 7.43517 12.4062 6.75278 12.4062 6.00029C12.4062 5.24781 12.1361 4.56541 11.7015 4.07298ZM2.42392 4.72771C2.0463 5.11686 1.68171 5.53737 1.3334 5.98554C1.99585 6.85606 2.73317 7.60854 3.52257 8.24114C5.56364 9.87336 7.95139 10.7033 10.3082 10.6922C12.6553 10.6793 14.9714 9.83095 16.879 8.10651C17.5301 7.51817 18.1323 6.82655 18.6743 6.03165C18.2202 5.49495 17.7579 5.00989 17.2892 4.57095C14.8656 2.30797 12.2077 1.25301 9.62786 1.31019C7.05456 1.36921 4.54636 2.5385 2.42392 4.72771Z" fill="#404040"/>
</svg>
