<svg width="20" height="20" viewBox="0 0 20 20" fill="none" xmlns="http://www.w3.org/2000/svg">
<path d="M16.3143 18.3371C16.351 15.1049 15.0004 12.9444 13.1596 11.8406C12.4461 11.4129 11.663 11.1433 10.8652 11.0318C10.0641 10.9203 9.24206 10.9654 8.45461 11.1664C5.85685 11.8308 3.64032 14.2159 3.68646 18.3371H16.3143ZM0.171899 18.3371H1.98128C1.93287 13.854 4.2829 11.0725 7.19081 10.004C4.28082 8.93546 1.92984 6.15044 1.98128 1.66229L0.171899 1.66245C0.0771558 1.66245 0 1.58758 0 1.49545V0.166668C0 0.0748704 0.0771558 0 0.171899 0H19.8281C19.9223 0 20 0.0748704 20 0.166668V1.49545C20 1.58725 19.9223 1.66229 19.8281 1.66229H18.0183C18.0609 5.44047 16.3956 8.01602 14.1329 9.37329C13.7192 9.62101 13.2736 9.83423 12.8103 10.0037C13.2731 10.1742 13.7196 10.3868 14.1326 10.635C16.3933 11.9911 18.0579 14.5639 18.018 18.3371L19.8281 18.3372C19.9223 18.3372 20 18.4126 20 18.5044V19.8328C20 19.9246 19.9223 20 19.8281 20H0.171899C0.0771558 20 0 19.9246 0 19.8328V18.5045C0 18.4124 0.0771558 18.3371 0.171899 18.3371ZM16.3143 1.66245H3.68684C3.63767 5.78911 5.85495 8.17699 8.45461 8.84171C9.24187 9.04288 10.0641 9.08797 10.8652 8.97615C11.663 8.86498 12.4459 8.59561 13.1596 8.16787C15.0019 7.06321 16.3536 4.89978 16.3143 1.66245Z" fill="#171560"/>
</svg>
