<svg width="20" height="20" viewBox="0 0 20 20" fill="none" xmlns="http://www.w3.org/2000/svg">
<path id="Vector" d="M9.7386 18.929H1.26678C0.931058 18.9282 0.609314 18.8001 0.371884 18.5726L0.33962 18.5335C0.124224 18.3125 0.00305185 18.0222 0 17.7197L0 1.21419C0.000131274 1.05481 0.0330439 0.897016 0.0968552 0.749835C0.160667 0.602655 0.254125 0.468976 0.371884 0.356445L0.41094 0.325521C0.64144 0.118931 0.94443 0.00276693 1.25999 0L15.6021 0C15.9378 0.000859176 16.2595 0.129059 16.4969 0.356578C16.7343 0.584097 16.868 0.892433 16.8689 1.21419V9.25456C16.5126 9.15951 16.1485 9.09416 15.7804 9.05925V1.21419C15.7764 1.17095 15.756 1.13061 15.7232 1.10067C15.6904 1.07073 15.6474 1.05323 15.6021 1.05143H1.26678C1.22613 1.05166 1.1867 1.06483 1.15471 1.08887L1.14112 1.10189C1.10779 1.13387 1.08889 1.17712 1.08848 1.22233V17.7148C1.088 17.7534 1.10185 17.7909 1.12754 17.8206L1.14282 17.8337C1.15865 17.85 1.17783 17.8631 1.19915 17.8721C1.22048 17.881 1.2435 17.8857 1.26678 17.8857H9.12049C9.29088 18.2518 9.49789 18.6012 9.7386 18.929ZM14.4644 13.3659H14.9552C15.0003 13.3656 15.045 13.374 15.0867 13.3905C15.1284 13.407 15.1662 13.4313 15.198 13.4619C15.2627 13.5242 15.2993 13.6084 15.2999 13.6963V15.4248H16.9284C17.0184 15.4248 17.1048 15.4591 17.1685 15.5202C17.2322 15.5812 17.268 15.664 17.268 15.7503V16.2386C17.2663 16.3263 17.2299 16.4101 17.1661 16.473L17.1525 16.4844C17.0898 16.539 17.008 16.5692 16.9233 16.569H14.264C14.219 16.569 14.1758 16.5519 14.144 16.5213C14.1121 16.4908 14.0942 16.4494 14.0942 16.4063V13.6719C14.0997 13.5925 14.1354 13.5178 14.1944 13.4619C14.2261 13.431 14.2639 13.4064 14.3056 13.3896C14.3473 13.3728 14.392 13.3642 14.4372 13.3643L14.4644 13.3659ZM15.1131 10.6413C16.2428 10.6402 17.3379 11.0147 18.2118 11.7009C19.0857 12.3871 19.6843 13.3425 19.9055 14.4043C20.1267 15.4662 19.9569 16.5687 19.4249 17.524C18.893 18.4792 18.0319 19.2281 16.9884 19.6429C15.9449 20.0578 14.7836 20.1129 13.7024 19.799C12.6213 19.485 11.6871 18.8214 11.0593 17.9212C10.4315 17.021 10.1488 15.94 10.2594 14.8624C10.37 13.7848 10.8671 12.7774 11.6659 12.0117C12.1183 11.5772 12.6556 11.2325 13.2471 10.9973C13.8386 10.7622 14.4727 10.6412 15.1131 10.6413ZM17.8742 12.6742C17.2351 12.0619 16.3943 11.6809 15.495 11.5962C14.5958 11.5115 13.6937 11.7283 12.9425 12.2097C12.1913 12.691 11.6374 13.4071 11.3754 14.236C11.1133 15.0648 11.1591 15.9551 11.5051 16.7552C11.8511 17.5553 12.4759 18.2156 13.2729 18.6237C14.0699 19.0318 14.9899 19.1623 15.8761 18.9931C16.7623 18.8239 17.5599 18.3654 18.1329 17.6958C18.7059 17.0261 19.019 16.1867 19.0187 15.3206C19.0195 14.8291 18.919 14.3423 18.7229 13.8881C18.5267 13.4339 18.2389 13.0214 17.8759 12.6742H17.8742ZM7.25258 13.5693C7.11 13.5442 6.9811 13.472 6.88831 13.3653C6.79551 13.2585 6.7447 13.124 6.7447 12.985C6.7447 12.8461 6.79551 12.7115 6.88831 12.6048C6.9811 12.498 7.11 12.4258 7.25258 12.4007H8.87936C9.02195 12.4258 9.15085 12.498 9.24364 12.6048C9.33643 12.7115 9.38725 12.8461 9.38725 12.985C9.38725 13.124 9.33643 13.2585 9.24364 13.3653C9.15085 13.472 9.02195 13.5442 8.87936 13.5693H7.25258ZM3.51676 12.0589H5.04505C5.0729 12.0564 5.10097 12.0595 5.12748 12.0681C5.15399 12.0766 5.17835 12.0903 5.19898 12.1084C5.21961 12.1265 5.23606 12.1485 5.24728 12.1731C5.2585 12.1976 5.26423 12.2242 5.26411 12.251V13.7158C5.26411 13.7668 5.243 13.8156 5.20542 13.8516C5.16784 13.8876 5.11688 13.9079 5.06373 13.9079H3.53544C3.4823 13.9079 3.43133 13.8876 3.39376 13.8516C3.35618 13.8156 3.33507 13.7668 3.33507 13.7158V12.251C3.33507 12.2258 3.34025 12.2008 3.35032 12.1775C3.36039 12.1542 3.37515 12.133 3.39376 12.1152C3.41236 12.0973 3.43445 12.0832 3.45876 12.0735C3.48307 12.0639 3.50913 12.0589 3.53544 12.0589H3.51676ZM3.51676 3.60514H5.04505C5.0729 3.60264 5.10097 3.60576 5.12748 3.61429C5.15399 3.62281 5.17835 3.63656 5.19898 3.65465C5.21961 3.67274 5.23606 3.69477 5.24728 3.71932C5.2585 3.74387 5.26423 3.7704 5.26411 3.7972V5.26205C5.26411 5.31298 5.243 5.36183 5.20542 5.39785C5.16784 5.43387 5.11688 5.4541 5.06373 5.4541H3.53544C3.4823 5.4541 3.43133 5.43387 3.39376 5.39785C3.35618 5.36183 3.33507 5.31298 3.33507 5.26205V3.7972C3.33507 3.74626 3.35618 3.69741 3.39376 3.6614C3.43133 3.62538 3.4823 3.60514 3.53544 3.60514H3.51676ZM7.25258 5.11393C7.10489 5.10029 6.96871 5.03156 6.87341 4.92255C6.77811 4.81355 6.73133 4.67301 6.74315 4.53125C6.73131 4.38931 6.77804 4.24859 6.8733 4.13932C6.96856 4.03006 7.10475 3.96098 7.25258 3.94694H13.2876C13.4355 3.96098 13.5717 4.03006 13.6669 4.13932C13.7622 4.24859 13.8089 4.38931 13.7971 4.53125C13.8089 4.67301 13.7621 4.81355 13.6668 4.92255C13.5715 5.03156 13.4353 5.10029 13.2876 5.11393H7.25258ZM3.11432 8.80534C3.08685 8.77124 3.06671 8.73226 3.05508 8.69064C3.04345 8.64903 3.04055 8.60562 3.04655 8.56293C3.05256 8.52024 3.06734 8.47911 3.09005 8.44193C3.11276 8.40475 3.14294 8.37227 3.17884 8.34636C3.24663 8.28359 3.33639 8.2473 3.4306 8.24459C3.52481 8.24188 3.61669 8.27295 3.68827 8.33171L4.04487 8.6849L4.93638 7.8125C4.97041 7.78394 5.01024 7.76243 5.05337 7.74935C5.09649 7.73626 5.14198 7.73187 5.18696 7.73646C5.23194 7.74104 5.27544 7.75451 5.31473 7.776C5.35402 7.79749 5.38824 7.82654 5.41524 7.86133C5.48292 7.92442 5.52358 8.00946 5.52923 8.09979C5.53489 8.19012 5.50513 8.27922 5.44581 8.34961L4.25714 9.51172C4.223 9.54006 4.18314 9.56136 4.14005 9.57431C4.09696 9.58726 4.05155 9.59158 4.00664 9.587C3.96173 9.58242 3.91829 9.56904 3.879 9.54769C3.83971 9.52634 3.80543 9.49748 3.77827 9.46289L3.7511 9.43197C3.73206 9.41966 3.71442 9.40548 3.69846 9.38965L3.11432 8.80534ZM7.25768 9.24317C7.10984 9.22912 6.97366 9.16005 6.8784 9.05078C6.78314 8.94152 6.73641 8.80079 6.74825 8.65886C6.73641 8.51692 6.78314 8.37619 6.8784 8.26693C6.97366 8.15766 7.10984 8.08859 7.25768 8.07454H13.2876C13.4355 8.08859 13.5717 8.15766 13.6669 8.26693C13.7622 8.37619 13.8089 8.51692 13.7971 8.65886C13.8089 8.80079 13.7622 8.94152 13.6669 9.05078C13.5717 9.16005 13.4355 9.22912 13.2876 9.24317H7.25768Z" fill="#4455D7"/>
</svg>
