<svg width="26" height="26" viewBox="0 0 26 26" fill="none" xmlns="http://www.w3.org/2000/svg">
<path d="M25.4986 11.7155C25.4963 11.4836 25.4021 11.2621 25.2367 11.0993L22.7335 8.86106L13.5942 0.722059C13.4341 0.579058 13.2268 0.5 13.012 0.5C12.7972 0.5 12.59 0.579058 12.4299 0.722059L3.3138 8.86106L0.787375 11.0993C0.623009 11.2508 0.521271 11.4581 0.502133 11.6806C0.487411 11.8921 0.549271 12.1018 0.676433 12.2714C0.803596 12.4411 0.987589 12.5595 1.19486 12.605C1.19486 12.6341 2.94124 12.605 2.99946 12.605V24.6275C2.99946 24.8588 3.09145 25.0806 3.25521 25.2441C3.41896 25.4076 3.64106 25.4995 3.87264 25.4995H9.78123C9.89832 25.5034 10.015 25.4837 10.1243 25.4417C10.2337 25.3996 10.3334 25.336 10.4176 25.2546C10.5018 25.1732 10.5687 25.0758 10.6144 24.968C10.6601 24.8603 10.6836 24.7445 10.6835 24.6275V17.3954H15.3987V24.6275C15.3987 24.8588 15.4907 25.0806 15.6545 25.2441C15.8183 25.4076 16.0404 25.4995 16.2719 25.4995H22.1281C22.3597 25.4995 22.5818 25.4076 22.7456 25.2441C22.9093 25.0806 23.0013 24.8588 23.0013 24.6275V12.6224C23.0828 12.6224 24.8001 12.6224 24.8059 12.6224C25.0106 12.5785 25.1929 12.4629 25.3199 12.2967C25.4469 12.1304 25.5103 11.9243 25.4986 11.7155Z" fill="#F78B05"/>
</svg>
