<svg width="40" height="40" viewBox="0 0 40 40" fill="none" xmlns="http://www.w3.org/2000/svg">
<path id="Vector" fill-rule="evenodd" clip-rule="evenodd" d="M20 0C31.0457 0 40 8.95426 40 20C40 31.0457 31.0457 40 20 40C8.95426 40 0 31.0457 0 20C0 8.95426 8.95426 0 20 0ZM15.123 8.5633H24.8775C28.5406 8.5633 31.5362 11.5218 31.5362 15.1359V24.8642C31.5362 28.4792 28.5406 31.4367 24.8776 31.4367L15.123 31.4366C11.4599 31.4366 8.46394 28.4791 8.46394 24.8641V15.1358C8.46394 11.5218 11.4599 8.5633 15.123 8.5633ZM19.938 13.8245C23.4975 13.8245 26.386 16.7131 26.386 20.2726C26.386 23.8327 23.4975 26.7208 19.938 26.7208C16.3773 26.7208 13.4893 23.8327 13.4893 20.2726C13.4893 16.7131 16.3774 13.8245 19.938 13.8245ZM19.938 16.0024C22.2951 16.0024 24.2083 17.9151 24.2083 20.2726C24.2083 22.6303 22.2951 24.5433 19.938 24.5433C17.58 24.5433 15.6672 22.6302 15.6672 20.2726C15.6672 17.9151 17.58 16.0024 19.938 16.0024ZM26.1763 12.9307C26.7545 12.9307 27.2234 13.3995 27.2234 13.9772C27.2234 14.5555 26.7545 15.0243 26.1763 15.0243C25.5985 15.0243 25.1297 14.5555 25.1297 13.9772C25.1297 13.3994 25.5986 12.9307 26.1763 12.9307ZM15.9201 10.4317H24.0812C27.1456 10.4317 29.6518 12.9255 29.6518 15.973V24.175C29.6518 27.2224 27.1456 29.7159 24.0812 29.7159L15.9201 29.716C12.8557 29.716 10.349 27.2227 10.349 24.1752V15.9729C10.349 12.9255 12.8557 10.4317 15.9201 10.4317Z" fill="url(#paint0_linear_1_1489)"/>
<defs>
<linearGradient id="paint0_linear_1_1489" x1="30.0217" y1="36.9834" x2="9.97827" y2="3.01643" gradientUnits="userSpaceOnUse">
<stop stop-color="#F58529"/>
<stop offset="0.169" stop-color="#FEDA77"/>
<stop offset="0.478" stop-color="#DD2A7B"/>
<stop offset="0.78" stop-color="#8134AF"/>
<stop offset="1" stop-color="#515BD4"/>
</linearGradient>
</defs>
</svg>
