<svg width="25" height="25" viewBox="0 0 25 25" fill="none" xmlns="http://www.w3.org/2000/svg">
<path d="M24.0961 12.5111C24.0802 12.7444 24.0737 12.9353 24.0737 13.0266C24.0737 13.2423 23.9229 13.4223 23.7211 13.4675L23.1275 13.6498C23.0833 13.6632 23.0388 13.6699 22.995 13.6699V13.6712H22.9006C22.6902 13.6712 22.5132 13.5271 22.4632 13.3322L21.9432 11.748L21.942 11.7441L21.9414 11.7443L21.847 11.4458L20.9662 13.0281C20.9282 13.0962 20.8755 13.1507 20.8138 13.1896L20.8144 13.1904L20.3555 13.4815C20.1449 13.615 19.866 13.5527 19.7323 13.3422C19.6985 13.2889 19.6774 13.2313 19.668 13.1729L19.2216 10.6662L18.546 10.1875L16.9605 9.9045C17.0148 9.99056 17.07 10.0756 17.1245 10.1596C17.4069 10.5954 17.6708 11.0025 17.7582 11.422C17.8992 12.0965 17.6476 12.6604 16.5247 13.0632C16.5571 13.0828 16.589 13.1041 16.6208 13.1284C17.0582 13.463 17.1636 13.9566 16.2096 15.2027C15.9687 15.5175 15.7616 15.7956 15.5876 16.0373C15.4509 16.2275 15.3234 16.4106 15.206 16.5866L15.4206 18.1483C15.4495 18.3586 15.399 18.5633 15.2635 18.7604C15.163 18.9067 15.0145 19.0457 14.8156 19.1761C14.6841 19.2623 14.5718 19.349 14.4799 19.4359C14.4434 19.4701 14.4105 19.5042 14.3806 19.538L14.4793 19.9842C14.5265 20.198 14.4133 20.4098 14.2199 20.4938L14.2201 20.4942L14.0547 20.5662C14.0219 20.6944 13.9747 20.8201 13.9141 20.9434C13.816 21.1416 13.6801 21.3353 13.507 21.5241C13.3226 21.7257 13.1196 21.8783 12.8983 21.9816C12.6671 22.0897 12.4236 22.1436 12.1671 22.1436H11.372C11.1226 22.1436 10.9201 21.9414 10.9201 21.6917C10.9201 21.4877 10.8953 21.2712 10.8463 21.0417C10.7954 20.8043 10.7179 20.55 10.6141 20.2786C10.4971 19.9726 10.4078 19.6957 10.3464 19.4479C10.2809 19.1838 10.2481 18.9551 10.2481 18.7614C10.2481 18.5885 10.263 18.4337 10.2927 18.2968C10.3279 18.1334 10.3846 17.9946 10.4628 17.8801C10.4709 17.8681 10.4801 17.8339 10.4904 17.7772C10.5063 17.6899 10.5144 17.57 10.5144 17.4169C10.5144 17.3003 10.4943 17.1776 10.4546 17.049C10.4105 16.9066 10.3423 16.7546 10.2508 16.5941C10.1364 16.3937 10.0502 16.232 9.99219 16.1093C9.90877 15.9333 9.86707 15.7921 9.86707 15.6873C9.86707 14.9498 9.61418 14.7873 9.26303 14.7873C9.05205 14.7873 8.81463 14.8194 8.56784 14.853C8.26043 14.8947 7.94041 14.938 7.62608 14.938C7.38906 14.938 7.15509 14.8298 6.92682 14.615C6.75857 14.4567 6.58259 14.2272 6.40132 13.9283C6.23693 13.6575 6.11282 13.4388 6.0286 13.274C5.91263 13.047 5.85485 12.873 5.85485 12.7567C5.85485 12.459 5.85465 12.4336 5.85444 12.4098C5.84244 11.1561 5.83145 9.97062 7.04055 9.09701C7.54185 8.38433 7.9933 7.9221 8.53631 7.62791C9.10169 7.32151 9.73076 7.2143 10.5814 7.2143C10.8308 7.2143 11.0332 7.41673 11.0332 7.66616V8.30682L11.5752 8.54404L11.583 8.50721C11.6346 8.26369 11.8741 8.10805 12.1176 8.15952L12.1194 8.15993V8.15952C12.2871 8.19573 12.4397 8.23866 12.5784 8.28912C12.7269 8.34324 12.8553 8.40488 12.9646 8.47527C13.0217 8.5123 13.1245 8.54506 13.2478 8.56662C13.3857 8.59063 13.5336 8.59551 13.6585 8.57069C13.7249 8.55747 13.7745 8.5418 13.789 8.52471L13.7892 8.52349C13.789 8.52349 13.7887 8.52349 13.789 8.52308L13.7918 8.50864C13.8032 8.4413 13.813 8.37314 13.8213 8.30438L13.2848 8.35219C13.0919 8.36887 12.917 8.26145 12.839 8.09604L12.8382 8.09625C12.6612 7.72394 12.2873 7.5329 11.8179 7.29344C11.3134 7.03587 10.7193 6.73253 10.0795 6.1234C7.92026 6.88939 7.23037 6.99478 7.05744 6.51321C6.95571 6.23083 7.10179 6.00479 7.29853 5.70043C7.47593 5.42598 7.72841 5.03577 7.72841 4.66915C7.72841 4.47282 7.85394 4.30559 8.02911 4.24333L9.84672 3.41306H9.84632C9.65039 3.37847 9.40768 3.33534 9.20647 2.35736C9.16537 2.15656 9.26506 1.95962 9.43779 1.86888L9.43759 1.86847C9.57939 1.79381 9.74581 1.69188 9.93685 1.56249C10.1305 1.43126 10.3623 1.26281 10.6324 1.05651L10.6495 1.04349C9.72547 1.18733 8.83701 1.44103 7.98517 1.805L7.98537 1.80561C7.27452 2.11139 6.61189 2.46946 5.99849 2.88084C5.38407 3.29323 4.81482 3.76136 4.29114 4.28687L4.28931 4.2887C3.7638 4.81238 3.29567 5.38163 2.88348 5.99605C2.4719 6.60924 2.11383 7.27187 1.80805 7.98293C1.8048 7.99025 1.80154 7.99737 1.79808 8.00449C1.50145 8.69947 1.27929 9.42009 1.12975 10.1663C0.978996 10.9197 0.90372 11.6977 0.90372 12.4999C0.90372 13.3021 0.979199 14.0803 1.12996 14.8337C1.13809 14.8741 1.14643 14.9148 1.15518 14.9557L3.24481 15.9549C3.40105 16.0297 3.49464 16.1829 3.50034 16.3449C3.52272 16.9422 3.36362 17.3839 3.20005 17.837C3.07838 18.1739 2.95408 18.5185 2.93414 18.9242C2.93211 18.9671 2.92417 19.0082 2.91115 19.0471C3.31622 19.6448 3.77459 20.1996 4.28748 20.7109L4.28931 20.7127C4.81279 21.2382 5.38224 21.7064 5.99666 22.1186C6.60985 22.5299 7.27248 22.8882 7.98354 23.194C7.99086 23.197 7.99798 23.2003 8.0051 23.204C8.69968 23.4988 9.4205 23.7209 10.1667 23.8703C10.9201 24.021 11.6981 24.0963 12.5003 24.0963C13.3023 24.0963 14.0805 24.021 14.8337 23.8703C15.5878 23.7193 16.3158 23.4939 17.0171 23.1946L17.0167 23.194C17.7277 22.8882 18.3904 22.5299 19.0038 22.1186C19.618 21.7064 20.1872 21.238 20.7111 20.7125L20.7129 20.7109C21.2382 20.1874 21.7066 19.618 22.1186 19.0035C22.5301 18.3904 22.8882 17.7277 23.194 17.0167C23.1972 17.0093 23.2003 17.0022 23.204 16.9951C23.499 16.3005 23.7211 15.5799 23.8705 14.8339C24.02 14.0837 24.0955 13.3094 24.0961 12.5111ZM7.62872 0.976758C9.15235 0.325518 10.7777 0 12.4999 0C13.3605 0 14.1975 0.0811761 15.0096 0.243732C15.8118 0.404456 16.5917 0.645543 17.3483 0.966992C17.3564 0.970044 17.3648 0.973299 17.3729 0.976758C18.1277 1.30146 18.8386 1.68639 19.5044 2.13336C20.1687 2.57892 20.7833 3.08429 21.3477 3.65048L21.3495 3.65231C21.9157 4.21668 22.4211 4.8313 22.8666 5.49556C23.3132 6.16125 23.6985 6.8723 24.0232 7.62709L24.0224 7.6273L24.0232 7.62872C24.3496 8.39247 24.5939 9.17982 24.7563 9.98995C24.9188 10.8021 25 11.6391 25 12.4999C25 13.3607 24.9188 14.1977 24.7563 15.0098C24.5957 15.8123 24.3543 16.5921 24.0328 17.3487C24.0298 17.3568 24.0267 17.3648 24.0232 17.3729C23.6985 18.1277 23.3134 18.8386 22.8666 19.5044C22.4211 20.1687 21.9157 20.7833 21.3495 21.3477L21.3477 21.3495C20.7835 21.9157 20.1687 22.4211 19.5044 22.8666C18.8388 23.3134 18.1277 23.6985 17.3729 24.0232L17.3727 24.0226L17.3711 24.0232C16.6073 24.3496 15.82 24.5941 15.0098 24.7563C14.1975 24.9188 13.3607 25 12.4999 25C11.6391 25 10.8021 24.9188 9.98995 24.7563C9.18775 24.5957 8.40814 24.3547 7.65151 24.033C7.64317 24.03 7.63503 24.0269 7.62689 24.0232C6.8721 23.6985 6.16125 23.3136 5.49515 22.8666C4.8311 22.4211 4.21627 21.9157 3.65191 21.3495L3.65008 21.3477C3.08408 20.7835 2.57871 20.1687 2.13316 19.5044C1.68639 18.8388 1.30126 18.1277 0.976555 17.3729L0.977165 17.3725L0.976555 17.3711C0.650223 16.6073 0.405677 15.8202 0.243528 15.0098C0.0813796 14.1975 0 13.3607 0 12.4997C0 11.6389 0.0813795 10.8019 0.243935 9.98975C0.404456 9.18755 0.645747 8.40773 0.967399 7.6509C0.970451 7.64276 0.973503 7.63483 0.976961 7.62669C1.30167 6.87189 1.68659 6.16084 2.13357 5.49515C2.57912 4.8311 3.08449 4.21627 3.65048 3.65191L3.65231 3.65008C4.21668 3.08388 4.8315 2.57851 5.49556 2.13296C6.16145 1.68618 6.8725 1.30106 7.6273 0.976351L7.6275 0.976961L7.62872 0.976758ZM1.96959 17.0297C2.06785 17.2571 2.17528 17.4824 2.29165 17.7041C2.31199 17.6467 2.33234 17.5896 2.35289 17.533C2.45807 17.2419 2.56101 16.9564 2.59214 16.6401L1.64387 16.1868C1.73867 16.4682 1.84711 16.7489 1.96959 17.0281L1.96898 17.0283L1.96959 17.0297ZM17.6482 2.18809C17.2291 1.97732 16.7929 1.79096 16.3396 1.62983C14.6617 2.01618 14.1765 1.78445 13.6384 1.52709C13.3648 1.39627 13.0728 1.2565 12.4287 1.2565H12.0434C12.0045 1.2565 11.9233 1.28946 11.7996 1.35558C11.6344 1.44408 11.4271 1.58304 11.1775 1.77346C10.9106 1.97712 10.6648 2.15493 10.4396 2.30752C10.3083 2.39642 10.1883 2.47353 10.0793 2.53945C10.2945 2.58909 10.4589 2.72377 10.5734 3.73064H10.5726C10.5934 3.91843 10.4935 4.10662 10.3122 4.18942L8.60446 4.96944C8.52125 5.46504 8.25148 5.88252 8.0519 6.19115C8.04783 6.19766 8.04315 6.20255 8.03827 6.206C8.25473 6.07661 8.77597 5.6396 10.0158 5.19039C10.1842 5.11735 10.3875 5.15255 10.5214 5.29333C11.1299 5.92972 11.727 6.23428 12.2256 6.489C12.7483 6.75572 13.1819 6.97708 13.4911 7.43056L14.2205 7.36546C14.2467 7.36078 14.274 7.35814 14.3016 7.35814C14.5511 7.35814 14.7535 7.56036 14.7535 7.80979C14.7535 7.95038 14.747 8.09503 14.7342 8.24212C14.722 8.37762 14.7039 8.518 14.679 8.66224C14.6782 8.66753 14.6774 8.67303 14.6764 8.67832C14.655 8.80161 14.6105 8.91167 14.5476 9.00933C14.3871 9.25896 14.1265 9.39812 13.8331 9.45651C13.5951 9.50391 13.3292 9.4976 13.0909 9.4561C12.8551 9.415 12.6328 9.33505 12.4759 9.23414C12.4429 9.21298 12.4049 9.19263 12.3618 9.17331L12.3408 9.27198H12.3404C12.3341 9.30107 12.3249 9.33017 12.3125 9.35845C12.213 9.58651 11.9477 9.69068 11.7195 9.59139L10.4314 9.02743C10.2548 8.9662 10.1279 8.79815 10.1279 8.6006V8.13185C9.65324 8.16237 9.28215 8.24904 8.96172 8.42278C8.54424 8.64882 8.17661 9.03883 7.74469 9.65996C7.71275 9.71143 7.66962 9.75721 7.61652 9.79342C6.73395 10.3993 6.74311 11.3728 6.75267 12.4035C6.75471 12.612 6.75674 12.6944 6.75674 12.7575C6.75674 12.7786 6.78054 12.7719 6.82835 12.8653C6.90383 13.0132 7.01736 13.2128 7.16933 13.463C7.30565 13.6876 7.43097 13.8534 7.54327 13.959C7.59678 14.0095 7.62425 14.0349 7.62486 14.0349C7.89727 14.0349 8.17763 13.9969 8.44679 13.9605C8.73325 13.9218 9.00892 13.8844 9.26181 13.8844C10.1387 13.8844 10.7694 14.2097 10.7694 15.6877C10.7694 15.715 10.7818 15.6731 10.8064 15.7252C10.8564 15.831 10.9321 15.9726 11.0332 16.15C11.1565 16.3662 11.2507 16.578 11.3148 16.7849C11.3828 17.0041 11.4171 17.2152 11.4171 17.4173C11.4171 17.6146 11.4029 17.7888 11.3754 17.9397C11.3417 18.1236 11.2851 18.2734 11.2064 18.3885C11.1948 18.4056 11.184 18.4374 11.1738 18.4839C11.1584 18.5558 11.1506 18.6483 11.1506 18.7616C11.1506 18.8876 11.174 19.0446 11.2206 19.2326C11.2715 19.4371 11.35 19.6786 11.4566 19.9575C11.5754 20.2686 11.6662 20.5677 11.7276 20.8547C11.7557 20.9862 11.7779 21.1147 11.7933 21.2401H12.166C12.2942 21.2401 12.411 21.2156 12.516 21.1666C12.6305 21.1129 12.7396 21.0299 12.8425 20.9172C12.955 20.7941 13.0425 20.6698 13.1045 20.5445C13.1589 20.4352 13.1922 20.3268 13.204 20.2194C13.2152 20.0568 13.3141 19.9058 13.4736 19.8363L13.5194 19.8161L13.4561 19.5305C13.4313 19.4182 13.4494 19.2965 13.5161 19.1917C13.6085 19.0467 13.7238 18.9089 13.8612 18.7793C13.9946 18.653 14.1482 18.5334 14.3206 18.4205C14.4219 18.3541 14.488 18.297 14.5214 18.2483C14.5216 18.2481 14.5218 18.2483 14.522 18.2488L14.5246 18.2506L14.2929 16.5656C14.2709 16.4539 14.2907 16.3341 14.3578 16.2314C14.4882 16.0322 14.6542 15.7919 14.856 15.5111C15.0518 15.2393 15.2642 14.9537 15.4922 14.6556C15.9933 14.0007 16.0877 13.8559 16.0729 13.8447C16.0419 13.8209 15.9669 13.79 15.8881 13.7578C15.5803 13.6319 15.2414 13.4927 15.0817 13.0382C15.0729 13.0156 15.066 12.9918 15.0607 12.9674C15.0101 12.7239 15.1665 12.485 15.4102 12.4346C16.6354 12.1784 16.9381 11.9066 16.8751 11.6053C16.8218 11.3498 16.6026 11.0119 16.3683 10.6501C16.1347 10.2898 15.8879 9.90877 15.7219 9.49252C15.6827 9.41073 15.6676 9.31633 15.6843 9.2201C15.7272 8.97454 15.961 8.81015 16.2065 8.85308L18.7966 9.31531L18.7964 9.31715C18.8601 9.32833 18.9222 9.35316 18.9785 9.39303L19.8588 10.0166C19.9705 10.0811 20.054 10.1928 20.0778 10.3299L20.4071 12.1791L21.5513 10.1234C21.603 10.0123 21.6992 9.92241 21.8252 9.88273C22.063 9.80766 22.3167 9.9397 22.3918 10.1775L22.8017 11.4727H22.8011L23.1838 12.6384C23.1981 12.3898 23.2239 12.0666 23.2654 11.7433C23.3077 11.4143 23.3669 11.0859 23.4481 10.8341C23.5075 10.6493 23.5848 10.4925 23.6833 10.3757C23.6159 9.94621 23.524 9.52344 23.407 9.1078C23.2658 8.6065 23.088 8.11761 22.8738 7.64195C22.6569 7.16262 22.4129 6.70568 22.1417 6.27009C21.8677 5.83044 21.5697 5.41642 21.2464 5.02681C20.9196 4.63497 20.5673 4.26815 20.1905 3.92636C19.8163 3.58741 19.4133 3.27044 18.9816 2.97605C18.5541 2.68308 18.1092 2.42002 17.6482 2.18809ZM14.5273 18.2683L14.525 18.251L14.5224 18.2492C14.5246 18.2534 14.5293 18.2819 14.5273 18.2683ZM7.90277 6.21007C7.92006 6.25829 7.95668 6.25402 8.03074 6.21089L7.90277 6.21007Z" fill="white"/>
</svg>
