<svg width="30" height="30" viewBox="0 0 30 30" fill="none" xmlns="http://www.w3.org/2000/svg">
<path d="M4.91943 27.0032L7.72217 23.7C7.85069 23.5489 8.01652 23.4651 8.18848 23.4643H14.9756C15.0055 23.4647 15.0352 23.4573 15.0629 23.4423C15.0906 23.4274 15.1157 23.4053 15.1369 23.3773C15.158 23.3493 15.1747 23.3161 15.186 23.2794C15.1973 23.2428 15.203 23.2036 15.2026 23.164V21.2783H16.6016V23.164C16.5996 23.7353 16.4272 24.2824 16.1218 24.6864C15.8163 25.0903 15.4026 25.3184 14.9707 25.3209H8.45215L4.71191 29.7283C4.61436 29.8574 4.49016 29.9456 4.35487 29.9817C4.21959 30.0178 4.07926 30.0003 3.95149 29.9313C3.82371 29.8623 3.71418 29.745 3.63664 29.594C3.5591 29.443 3.517 29.2651 3.51562 29.0826V25.3209H1.6333C1.20094 25.3192 0.786618 25.0915 0.480663 24.6875C0.174708 24.2835 0.00193116 23.7358 0 23.164L0 9.23138C0.00508255 8.66086 0.17887 8.11566 0.484147 7.71252C0.789424 7.30938 1.20192 7.08035 1.6333 7.07448H10.5835V8.93109H1.6333C1.57397 8.93563 1.51792 8.96863 1.47567 9.02391C1.43342 9.07919 1.40787 9.15296 1.40381 9.23138V23.164C1.40403 23.2033 1.41019 23.2421 1.42193 23.2781C1.43367 23.3141 1.45075 23.3467 1.47217 23.3739C1.51558 23.4293 1.57299 23.4615 1.6333 23.4643H4.21631C4.40279 23.4643 4.58163 23.5623 4.71349 23.7367C4.84535 23.9111 4.91943 24.1476 4.91943 24.3942V27.0032ZM4.9707 20.7133L7.22656 11.7015H9.38232L11.6382 20.7133H9.85107L9.47266 19.073H7.1167L6.74805 20.7133H4.9707ZM7.51709 17.1906H9.07227L8.30078 13.5L7.51709 17.1906ZM18.7085 4.31056H20.8325V3.58729C20.8325 3.5282 20.8503 3.47153 20.8819 3.42975C20.9135 3.38797 20.9563 3.3645 21.001 3.3645H22.1362C22.1582 3.36449 22.18 3.37028 22.2003 3.38151C22.2206 3.39275 22.239 3.40921 22.2545 3.42994C22.2699 3.45068 22.2821 3.47526 22.2903 3.50227C22.2985 3.52929 22.3026 3.55819 22.3022 3.58729V4.31056H24.6851C24.7071 4.31056 24.7289 4.31634 24.7492 4.32758C24.7695 4.33881 24.7879 4.35527 24.8033 4.37601C24.8188 4.39674 24.8309 4.42133 24.8391 4.44834C24.8473 4.47535 24.8514 4.50425 24.8511 4.53335V5.97344C24.8511 6.03167 24.8336 6.08751 24.8025 6.12869C24.7713 6.16987 24.7291 6.193 24.6851 6.193H24.3066C24.2566 6.61743 24.1824 7.03624 24.0845 7.44581V7.46518C23.9723 7.9272 23.8302 8.37553 23.6597 8.80517C23.5032 9.18839 23.3287 9.55828 23.1372 9.91267C22.9736 10.2356 22.793 10.5262 22.6001 10.8264C22.876 11.2675 23.1763 11.6809 23.4985 12.0631C23.8889 12.5069 24.3044 12.9106 24.7412 13.2707C24.7597 13.2862 24.7756 13.3063 24.7882 13.3299C24.8008 13.3535 24.8097 13.3802 24.8145 13.4084C24.8192 13.4366 24.8198 13.4658 24.816 13.4942C24.8122 13.5227 24.8042 13.5499 24.7925 13.5742L24.209 14.7786C24.1969 14.8052 24.1808 14.8281 24.1616 14.8459C24.1424 14.8637 24.1207 14.8761 24.0977 14.8822C24.0747 14.8883 24.051 14.8879 24.0282 14.8812C24.0053 14.8745 23.9837 14.8615 23.9648 14.8432C23.4863 14.45 23.0309 14.0096 22.6025 13.5258C22.2543 13.1148 21.928 12.6725 21.626 12.202C21.3135 12.57 21.0327 12.9155 20.752 13.2384C20.4199 13.6001 20.0708 13.9488 19.6606 14.3233C19.6422 14.3421 19.6211 14.3557 19.5985 14.3631C19.5759 14.3706 19.5524 14.3718 19.5295 14.3666C19.5065 14.3614 19.4847 14.3501 19.4652 14.3332C19.4458 14.3163 19.4292 14.2942 19.4165 14.2684L18.7988 13.0867C18.7846 13.0623 18.7744 13.0343 18.7687 13.0045C18.7631 12.9746 18.7622 12.9435 18.7661 12.9132C18.77 12.8829 18.7786 12.8539 18.7914 12.8282C18.8042 12.8025 18.8208 12.7806 18.8403 12.7638C19.2456 12.3957 19.5728 12.0567 19.9048 11.7047C20.188 11.3818 20.4614 11.0589 20.7568 10.6844C20.5104 10.2233 20.2846 9.74351 20.0806 9.24752C19.8479 8.65746 19.6638 8.03612 19.5312 7.39414C19.5253 7.36637 19.5235 7.33732 19.5261 7.30865C19.5286 7.27998 19.5354 7.25225 19.5461 7.22706C19.5568 7.20187 19.5711 7.1797 19.5882 7.16183C19.6053 7.14396 19.625 7.13074 19.646 7.12292L20.6885 6.73868C20.7095 6.73081 20.7314 6.72849 20.7531 6.73186C20.7748 6.73523 20.7958 6.74422 20.8148 6.75831C20.8339 6.77241 20.8506 6.79133 20.8641 6.81401C20.8776 6.83668 20.8876 6.86265 20.8936 6.89044C21.0613 7.74269 21.3441 8.5478 21.7285 9.2669L22.0386 8.71799C22.1724 8.46128 22.2955 8.19504 22.4072 7.92045C22.5256 7.61845 22.6252 7.30421 22.7051 6.98085C22.7692 6.72216 22.823 6.45918 22.8662 6.193H18.7158C18.6716 6.19301 18.6291 6.16998 18.5976 6.12889C18.566 6.0878 18.548 6.03196 18.5474 5.97344V4.52044C18.5474 4.46135 18.5651 4.40468 18.5967 4.3629C18.6283 4.32112 18.6711 4.29764 18.7158 4.29764L18.7085 4.31056ZM25.3003 22.6571L21.5479 18.2464H15.0244C14.5924 18.243 14.1789 18.0148 13.8732 17.6111C13.5675 17.2075 13.3943 16.6608 13.3911 16.0895V2.16012C13.3949 1.58667 13.5705 1.03861 13.8794 0.63609L13.9282 0.57797C14.2261 0.210826 14.6172 0.00461718 15.0244 0L28.3667 0C28.7996 0.00522167 29.2132 0.237491 29.5166 0.645777L29.563 0.710355C29.8413 1.10633 29.9973 1.62595 30 2.16658V16.0895C29.9968 16.6608 29.8236 17.2075 29.5179 17.6111C29.2123 18.0148 28.7987 18.243 28.3667 18.2464H26.4868V21.9984C26.4848 22.1809 26.4422 22.3585 26.3643 22.5092C26.2865 22.6599 26.1768 22.777 26.049 22.8458C25.9212 22.9147 25.7809 22.9323 25.6456 22.8964C25.5103 22.8606 25.386 22.7728 25.2881 22.6442L25.3003 22.6571ZM22.2803 16.6255L25.0806 19.9287V17.3197C25.0806 17.0731 25.1546 16.8366 25.2865 16.6622C25.4184 16.4878 25.5972 16.3898 25.7837 16.3898H28.3667C28.3964 16.3893 28.4256 16.3811 28.4529 16.3656C28.4801 16.3501 28.5048 16.3276 28.5254 16.2994C28.5472 16.2725 28.5648 16.2401 28.577 16.204C28.5891 16.1679 28.5957 16.129 28.5962 16.0895V2.16012C28.5938 2.09175 28.5749 2.02617 28.5425 1.97285L28.5254 1.93733C28.483 1.88143 28.4265 1.84811 28.3667 1.84369H15.0244C14.9738 1.85455 14.9274 1.88751 14.8926 1.93733H14.8657C14.8444 1.96461 14.8274 1.99721 14.8157 2.03323C14.8039 2.06925 14.7977 2.10799 14.7974 2.14721V16.0895C14.797 16.1291 14.8027 16.1683 14.814 16.205C14.8253 16.2416 14.842 16.2749 14.8631 16.3028C14.8843 16.3308 14.9094 16.3529 14.9371 16.3678C14.9648 16.3828 14.9945 16.3902 15.0244 16.3898H21.814C21.9861 16.3897 22.1521 16.4736 22.2803 16.6255Z" fill="#F78B05"/>
</svg>
