<svg width="16" height="15" viewBox="0 0 16 15" fill="none" xmlns="http://www.w3.org/2000/svg">
<path fill-rule="evenodd" clip-rule="evenodd" d="M0.93457 6.03469H3.5127C3.65343 6.03534 3.78817 6.0917 3.88746 6.19144C3.98674 6.29118 4.04248 6.42619 4.04248 6.56692V13.6348C4.04184 13.7753 3.9859 13.91 3.88675 14.0096C3.7876 14.1092 3.65323 14.1657 3.5127 14.167H0.93457C0.793613 14.1664 0.658612 14.1101 0.558939 14.0104C0.459266 13.9107 0.402986 13.7757 0.402344 13.6348V6.56692C0.402986 6.42596 0.459266 6.29096 0.558939 6.19129C0.658612 6.09162 0.793613 6.03534 0.93457 6.03469ZM7.69726 0.734403C7.97558 -0.686495 10.2998 0.622098 10.4536 2.9097C10.4879 3.72286 10.4215 4.53716 10.2559 5.33401H13.5786C14.958 5.39016 16.1641 6.37893 15.312 8.00247C15.5073 8.71048 15.5366 9.54055 15.0093 9.87014C15.0752 10.9859 14.7651 11.6792 14.1865 12.2261C14.1755 12.7353 14.0252 13.2318 13.752 13.6616C13.3052 14.2915 12.9438 14.1499 12.2407 14.1499H6.62549C5.73682 14.1499 5.25342 13.9058 4.67236 13.1734V6.91604C6.35937 6.46926 7.24805 4.18167 7.69726 2.6802V0.727079V0.734403Z" fill="white"/>
</svg>
