<svg xmlns="http://www.w3.org/2000/svg" version="1.1" xmlns:xlink="http://www.w3.org/1999/xlink" xmlns:svgjs="http://svgjs.com/svgjs" width="512" height="512" x="0" y="0" viewBox="0 0 512.001 512.001" style="enable-background:new 0 0 512 512" xml:space="preserve" class=""><g><path d="M406.296 90.17h-30.059c-8.307 0-15.03 6.722-15.03 15.03 0 8.307 6.722 15.03 15.03 15.03h30.059c8.307 0 15.03-6.722 15.03-15.03-.001-8.308-6.723-15.03-15.03-15.03zM254.416 38.359 239.387 8.3c-3.742-7.427-12.74-10.406-20.167-6.722-7.427 3.713-10.436 12.74-6.722 20.167l15.03 30.059c3.708 7.397 12.69 10.436 20.167 6.722 7.425-3.713 10.434-12.74 6.721-20.167zM352.9 1.578c-7.398-3.684-16.453-.704-20.167 6.722l-15.03 30.059c-3.713 7.427-.704 16.453 6.722 20.167a15.042 15.042 0 0 0 20.167-6.722l15.03-30.059c3.713-7.427.704-16.454-6.722-20.167zM195.882 90.17h-30.059c-8.307 0-15.03 6.722-15.03 15.03 0 8.307 6.722 15.03 15.03 15.03h30.059c8.307 0 15.03-6.722 15.03-15.03s-6.723-15.03-15.03-15.03zM105.705 241.468H45.586c-8.3 0-15.03 6.729-15.03 15.03V496.97c0 8.3 6.729 15.03 15.03 15.03h60.118c8.3 0 15.03-6.729 15.03-15.03V256.497c0-8.3-6.728-15.029-15.029-15.029zM481.145 281.308c-2.651-23.315-24.43-39.84-47.895-39.84H316.075c9.958-17.831 15.303-68.264 15.066-88.866-.393-34.102-28.634-61.43-62.737-61.43h-12.402c-8.307 0-15.03 6.722-15.03 15.03 0 34.755-13.533 97.487-39.056 123.011-17.179 17.179-31.865 23.404-51.122 33.028v225.518c29.483 9.827 66.917 24.242 123.974 24.242h98.316c32.395 0 57.625-30.003 45.072-61.703 19.125-5.21 33.229-22.75 33.229-43.504 0-5.857-1.13-11.463-3.17-16.615 32.229-8.781 44.092-48.576 21.723-73.563 8.218-9.181 12.75-21.739 11.207-35.308z" fill="#000000" data-original="#000000" class=""></path></g></svg>