<svg width="25" height="20" viewBox="0 0 25 20" fill="none" xmlns="http://www.w3.org/2000/svg">
<path fill-rule="evenodd" clip-rule="evenodd" d="M1.37941 2.63973H18.6974C18.6669 2.87449 18.6465 3.11794 18.6363 3.36139C18.5814 4.85686 18.9558 6.2451 19.6068 7.27687C20.2294 8.26226 21.1063 8.92595 22.1012 9.05057C22.1703 9.06506 22.2415 9.07376 22.3148 9.07376V9.07086C22.4633 9.07665 22.6098 9.07376 22.7542 9.05637V18.035C22.7542 19.1131 22.1317 20 21.3748 20H1.37941C0.622568 20 0 19.116 0 18.035V4.60182C0 3.52369 0.620533 2.63973 1.37941 2.63973ZM22.5772 0.00526194C23.9892 0.112496 25.0716 1.82823 24.9963 3.83959C24.921 5.85095 23.7166 7.39279 22.3046 7.28556C20.8926 7.17833 19.8103 5.46259 19.8855 3.45123C19.9608 1.44277 21.1653 -0.101972 22.5772 0.00526194ZM22.5243 1.36452C22.9679 1.3993 23.3585 1.68332 23.6332 2.11806C23.9078 2.55279 24.0645 3.13533 24.0421 3.76714C24.0177 4.39895 23.8183 4.9554 23.5131 5.34666C23.2079 5.73792 22.799 5.96398 22.3555 5.9292C21.9119 5.89442 21.5193 5.6104 21.2467 5.17567C20.972 4.74093 20.8153 4.15839 20.8377 3.52658C20.8621 2.89478 21.0615 2.33542 21.3667 1.94706C21.6739 1.5558 22.0828 1.32974 22.5243 1.36452ZM5.72722 6.39581V14.276H6.87266V16.2439H3.82086V6.39581H5.72722ZM9.44024 6.39581V16.2439H7.53592V6.39581H9.44024ZM14.9091 6.39581L13.9467 16.2439H11.0658L9.96312 6.39581H11.9692C12.195 9.11143 12.3598 11.4097 12.4636 13.2878C12.5653 11.3894 12.6711 9.70556 12.7769 8.23327L12.903 6.39581H14.9091ZM15.434 6.39581H18.6058V8.36369H17.3403V10.2446H18.5244V12.1111H17.3403V14.2789H18.736V16.2468H15.434V6.39581Z" fill="white"/>
</svg>
