<svg width="30" height="30" viewBox="0 0 30 30" fill="none" xmlns="http://www.w3.org/2000/svg">
<path fill-rule="evenodd" clip-rule="evenodd" d="M21.583 10.6719C19.6465 6.73893 16.2721 4.1587 11.9297 4.70815C7.88322 5.21982 4.2006 8.52845 3.30529 13.4357C2.55646 17.5443 3.93751 21.4627 6.38908 24.1132C9.25256 27.2084 13.5762 28.5751 17.6748 26.4999C19.7748 25.4361 21.2039 24.0807 22.2727 22.335C22.3817 22.1719 22.5282 21.9101 22.7315 21.7384C23.3215 21.2394 24.0979 21.8326 23.9783 22.563C23.9532 22.7194 23.891 22.8864 23.7815 23.062C22.9026 24.6335 21.9276 25.8345 20.6537 26.9327C17.7334 29.45 13.9582 30.5866 10.1707 29.7032C6.64103 28.88 3.77287 26.4608 1.99572 23.2211C-1.1121 17.5569 -0.4037 10.7395 2.83126 5.96016C4.84044 2.99154 7.82463 0.808981 11.4738 0.176683C17.635 -0.891066 23.8201 2.97828 25.8012 9.14551L28.292 8.24412C28.9823 7.9969 29.7194 8.42904 29.9385 9.2098C30.0359 9.55627 30.0171 9.93115 29.8858 10.263L27.0358 17.4562C26.7405 18.2051 25.9641 18.5405 25.302 18.2065L25.2053 18.1521L25.2041 18.1541L18.9569 14.2536C18.3205 13.8586 18.0879 12.9545 18.4371 12.2348C18.6217 11.8543 18.9317 11.6018 19.2774 11.5057L21.583 10.6719Z" fill="#854AA4"/>
</svg>
