<svg width="15" height="20" viewBox="0 0 15 20" fill="none" xmlns="http://www.w3.org/2000/svg">
<path fill-rule="evenodd" clip-rule="evenodd" d="M0.960885 7.73205H1.61158V6.20013C1.61158 4.50471 2.26954 2.95837 3.32954 1.83535C4.39865 0.703379 5.87408 0 7.49992 0C9.12527 0 10.6019 0.702637 11.6695 1.83535C12.7303 2.95837 13.3885 4.50397 13.3885 6.20013V7.73205H14.0391C14.5675 7.73205 15 8.17147 15 8.70834V19.0237C15 19.5606 14.5675 20 14.0391 20H0.960885C0.43177 20 4.33321e-07 19.5606 4.33321e-07 19.0237V8.70834C-0.000499567 8.17147 0.43177 7.73205 0.960885 7.73205ZM6.71123 14.5277L5.674 17.2862H9.32489L8.36465 14.4894C8.97435 14.1709 9.39112 13.5254 9.39112 12.781C9.39112 11.7194 8.54439 10.8597 7.49942 10.8597C6.45508 10.8597 5.60892 11.7194 5.60892 12.781C5.60831 13.5558 6.06035 14.2231 6.71123 14.5277ZM3.43027 7.73205H11.5688V6.20013C11.5688 4.9943 11.1063 3.90153 10.362 3.11288C9.62562 2.33276 8.61242 1.84805 7.49942 1.84805C6.38692 1.84805 5.37296 2.33276 4.63704 3.11288C3.89204 3.90153 3.43027 4.9943 3.43027 6.20013V7.73205Z" fill="white"/>
</svg>
