<svg width="20" height="20" viewBox="0 0 20 20" fill="none" xmlns="http://www.w3.org/2000/svg">
<path d="M13.0485 17.9538L17.5155 14.2791H13.0485V17.9538ZM10.4003 6.31141H9.59591C9.51584 5.54627 9.34779 5.06059 9.34779 4.29675C9.34779 4.01484 9.63979 3.78633 10 3.78633C10.3602 3.78633 10.652 4.01484 10.652 4.29675C10.652 4.46423 10.4003 6.31141 10.4003 6.31141ZM9.59736 6.65744H10.4026V7.21474H9.59736V6.65744ZM9.99979 2.32961C10.2693 2.32961 10.5337 2.35061 10.7899 2.39016C11.0521 2.43085 11.3059 2.49156 11.5482 2.57001C11.7956 2.65025 12.0307 2.74872 12.2503 2.86363C12.4714 2.97919 12.6772 3.11168 12.8644 3.25849C13.0518 3.40498 13.2213 3.56627 13.3692 3.73945C13.5156 3.91084 13.6416 4.09476 13.7439 4.28828C13.8442 4.47823 13.9222 4.67696 13.974 4.88188C14.0247 5.08224 14.0515 5.28911 14.0515 5.50021C14.0515 5.71131 14.0247 5.91818 13.974 6.1187C13.922 6.32394 13.8442 6.52284 13.7439 6.71213L13.7427 6.71425C13.6408 6.90696 13.515 7.09023 13.3694 7.26064C13.2213 7.43431 13.052 7.5956 12.8646 7.74209C12.6777 7.88857 12.4716 8.0209 12.2503 8.13662C12.0307 8.25121 11.7956 8.35 11.5484 8.43024L11.5457 8.43106C11.3042 8.50918 11.0509 8.56989 10.7899 8.61042C10.5337 8.65014 10.2691 8.67113 9.99958 8.67113C9.72984 8.67113 9.46572 8.65014 9.20949 8.61042C8.94745 8.56973 8.69393 8.50886 8.45122 8.43041C8.20373 8.35017 7.96872 8.25137 7.7491 8.13679C7.52782 8.02106 7.32171 7.88874 7.13475 7.74225C6.94757 7.59577 6.77807 7.43431 6.6302 7.2608C6.48379 7.08958 6.35796 6.90566 6.25585 6.71229C6.15519 6.52284 6.07762 6.32411 6.02562 6.11887C5.97488 5.91834 5.94805 5.71147 5.94805 5.50037C5.94805 5.28927 5.97488 5.08256 6.02562 4.88204C6.07741 4.67696 6.1554 4.47823 6.25564 4.28845C6.35796 4.09492 6.484 3.911 6.63041 3.73961C6.77828 3.56644 6.94757 3.40514 7.13495 3.25865C7.32234 3.11184 7.52844 2.97935 7.74931 2.86379C7.96893 2.74888 8.20394 2.65025 8.45122 2.57017L8.45372 2.56936C8.69538 2.49139 8.94869 2.43068 9.2097 2.39032C9.46592 2.35061 9.73005 2.32961 9.99979 2.32961ZM7.75929 3.74694C4.85785 6.01926 9.24568 9.59594 12.2407 7.2538C15.2266 4.91508 10.6736 1.46941 7.75929 3.74694ZM3.93777 14.6533H7.93607V15.5529H3.93777V14.6533ZM3.93777 12.3673H9.61296V13.2669H3.93777V12.3673ZM3.93777 10.082H16.062V10.9815H3.93777V10.082ZM19.9998 13.8097C19.9998 14.0751 19.7716 14.3046 19.4584 14.371L12.8788 19.7858C12.7419 19.9186 12.5333 20 12.305 20H1.33686C0.965206 20 0.632656 19.8827 0.391407 19.6938C0.149949 19.505 0 19.2449 0 18.9538V1.04623C0 0.755377 0.149949 0.495121 0.391199 0.306318C0.632656 0.117351 0.971653 0 1.33686 0H18.6631C19.0283 0 19.3676 0.117351 19.6088 0.306155C19.8501 0.494958 20 0.755377 20 1.04607L19.9998 13.8097ZM18.5065 13.1106V1.16863H1.49346V18.8364H11.5554V13.6974C11.5554 13.3759 11.888 13.1106 12.3052 13.1106H18.5065Z" fill="#171560"/>
</svg>
