<svg width="15" height="15" viewBox="0 0 15 15" fill="none" xmlns="http://www.w3.org/2000/svg">
<path d="M7.99102 2.67847C7.90801 2.77705 7.825 2.87699 7.72246 2.99609L7.44047 3.32604L7.14749 3.00705C7.06081 2.91258 6.97292 2.81538 6.88747 2.72091C5.98167 1.7215 5.29927 0.968519 3.89419 0.947983C3.83926 0.946614 3.78066 0.947983 3.71962 0.950721C2.93346 0.98221 2.20834 1.30668 1.67853 1.86115C1.15605 2.40877 0.822785 3.18502 0.811798 4.12968C0.810577 4.18854 0.811798 4.25015 0.81424 4.31724C0.898471 6.95541 3.14953 9.2568 5.01606 11.1639C5.37618 11.5322 5.72165 11.8854 6.05247 12.2427L7.42704 13.7281L9.1544 11.806C9.43273 11.4966 9.74768 11.1584 10.0846 10.797C10.6571 10.1809 11.2944 9.49775 11.8877 8.80912C12.3137 8.31489 12.7178 7.81792 13.0608 7.34012C13.3977 6.8719 13.6736 6.42696 13.8506 6.02993C14.1412 5.37826 14.2327 4.72658 14.1705 4.11735C14.1094 3.51634 13.8982 2.95502 13.5821 2.47585C13.261 1.98984 12.8337 1.58733 12.3442 1.31215C11.7802 0.997269 11.1345 0.848042 10.474 0.932924C9.33507 1.08078 8.72836 1.80228 7.99102 2.67847ZM7.41849 2.03228C8.26081 1.0315 8.9603 0.21143 10.3813 0.0293449C11.2016 -0.0760726 12.0048 0.107381 12.7043 0.50167C13.3086 0.841197 13.836 1.3368 14.2315 1.93507C14.6307 2.5402 14.898 3.25074 14.9761 4.01467C15.0555 4.78956 14.9407 5.6151 14.5733 6.43654C14.3658 6.90065 14.0581 7.39899 13.6907 7.90965C13.3306 8.41072 12.9106 8.92823 12.47 9.43888C11.8657 10.1412 11.2236 10.8312 10.6449 11.4528C10.3068 11.8156 9.99061 12.1551 9.72449 12.4508L7.71513 14.6865L7.43314 15L7.14749 14.692L5.48727 12.8985C5.1833 12.5713 4.83173 12.2112 4.46672 11.8375C2.48789 9.81264 0.0988807 7.37161 0.0024415 4.34872C0 4.2748 0 4.19813 0 4.11872C0.014649 2.90574 0.446794 1.90359 1.12431 1.19441C1.79572 0.492087 2.70762 0.0813691 3.6891 0.0416664C3.75624 0.0389283 3.82705 0.0375593 3.90151 0.0389283C5.61545 0.0649404 6.39917 0.906911 7.41849 2.03228Z" fill="white"/>
</svg>
