<svg width="30" height="30" viewBox="0 0 30 30" fill="none" xmlns="http://www.w3.org/2000/svg">
<path d="M2.86214 2.00928H5.49913V0.695801C5.51242 0.518071 5.61098 0.351074 5.77465 0.228957C5.93833 0.10684 6.15475 0.0388285 6.37966 0.0388285C6.60458 0.0388285 6.821 0.10684 6.98468 0.228957C7.14835 0.351074 7.24691 0.518071 7.2602 0.695801V2.00928H11.1309V0.695801C11.1309 0.511263 11.2235 0.334283 11.3883 0.203795C11.5532 0.0733074 11.7767 0 12.0099 0C12.243 0 12.4666 0.0733074 12.6314 0.203795C12.7963 0.334283 12.8889 0.511263 12.8889 0.695801V2.00928H16.7595V0.695801C16.7728 0.518071 16.8714 0.351074 17.0351 0.228957C17.1987 0.10684 17.4152 0.0388285 17.6401 0.0388285C17.865 0.0388285 18.0814 0.10684 18.2451 0.228957C18.4088 0.351074 18.5073 0.518071 18.5206 0.695801V2.00928H22.3913V0.695801C22.3913 0.511263 22.4839 0.334283 22.6487 0.203795C22.8136 0.0733074 23.0372 0 23.2703 0C23.5034 0 23.727 0.0733074 23.8918 0.203795C24.0567 0.334283 24.1493 0.511263 24.1493 0.695801V2.00928H27.1409C27.8993 2.01057 28.626 2.24976 29.1619 2.67444C29.6978 3.09912 29.9992 3.67464 30 4.2749V27.7344C29.9968 28.334 29.6946 28.9085 29.1592 29.3327C28.6238 29.757 27.8985 29.9968 27.1409 30H2.86214C2.10355 29.9987 1.3765 29.7596 0.8401 29.335C0.303699 28.9104 0.00162962 28.3349 0 27.7344L0 4.2749C0.000816391 3.67422 0.302624 3.09832 0.839202 2.67358C1.37578 2.24883 2.1033 2.00992 2.86214 2.00928ZM6.56318 24.0576C6.33659 24.0576 6.11929 23.9864 5.95908 23.8595C5.79886 23.7327 5.70885 23.5607 5.70885 23.3813C5.70885 23.202 5.79886 23.03 5.95908 22.9032C6.11929 22.7763 6.33659 22.7051 6.56318 22.7051H23.4399C23.6665 22.7051 23.8838 22.7763 24.044 22.9032C24.2042 23.03 24.2942 23.202 24.2942 23.3813C24.2942 23.5607 24.2042 23.7327 24.044 23.8595C23.8838 23.9864 23.6665 24.0576 23.4399 24.0576H6.56318ZM6.56318 19.5996C6.34587 19.5893 6.14175 19.5136 5.99251 19.3882C5.84327 19.2627 5.76016 19.0969 5.76016 18.9246C5.76016 18.7522 5.84327 18.5864 5.99251 18.4609C6.14175 18.3355 6.34587 18.2599 6.56318 18.2495H23.4399C23.6572 18.2599 23.8613 18.3355 24.0106 18.4609C24.1598 18.5864 24.2429 18.7522 24.2429 18.9246C24.2429 19.0969 24.1598 19.2627 24.0106 19.3882C23.8613 19.5136 23.6572 19.5893 23.4399 19.5996H6.56318ZM6.56318 15.144C6.33659 15.144 6.11929 15.0728 5.95908 14.946C5.79886 14.8191 5.70885 14.6471 5.70885 14.4678C5.70885 14.2884 5.79886 14.1164 5.95908 13.9896C6.11929 13.8628 6.33659 13.7915 6.56318 13.7915H23.4399C23.65 13.8089 23.8445 13.8872 23.9858 14.0114C24.1272 14.1357 24.2054 14.2969 24.2054 14.4641C24.2054 14.6313 24.1272 14.7926 23.9858 14.9168C23.8445 15.041 23.65 15.1193 23.4399 15.1367L6.56318 15.144ZM6.56318 10.686C6.34587 10.6757 6.14175 10.6001 5.99251 10.4746C5.84327 10.3491 5.76016 10.1833 5.76016 10.011C5.76016 9.83866 5.84327 9.67283 5.99251 9.54737C6.14175 9.42191 6.34587 9.34629 6.56318 9.33594H23.4399C23.6572 9.34629 23.8613 9.42191 24.0106 9.54737C24.1598 9.67283 24.2429 9.83866 24.2429 10.011C24.2429 10.1833 24.1598 10.3491 24.0106 10.4746C23.8613 10.6001 23.6572 10.6757 23.4399 10.686H6.56318ZM24.1616 3.36182V4.67529C24.1616 4.85983 24.069 5.03681 23.9042 5.1673C23.7393 5.29779 23.5157 5.37109 23.2826 5.37109C23.0495 5.37109 22.8259 5.29779 22.6611 5.1673C22.4962 5.03681 22.4036 4.85983 22.4036 4.67529V3.35938H18.5206V4.67285C18.5073 4.85058 18.4088 5.01758 18.2451 5.1397C18.0814 5.26181 17.865 5.32982 17.6401 5.32982C17.4152 5.32982 17.1987 5.26181 17.0351 5.1397C16.8714 5.01758 16.7728 4.85058 16.7595 4.67285V3.35938H12.8889V4.67285C12.8889 4.85739 12.7963 5.03437 12.6314 5.16486C12.4666 5.29534 12.243 5.36865 12.0099 5.36865C11.7767 5.36865 11.5532 5.29534 11.3883 5.16486C11.2235 5.03437 11.1309 4.85739 11.1309 4.67285V3.35938H7.2602V4.67285C7.24691 4.85058 7.14835 5.01758 6.98468 5.1397C6.821 5.26181 6.60458 5.32982 6.37966 5.32982C6.15475 5.32982 5.93833 5.26181 5.77465 5.1397C5.61098 5.01758 5.51242 4.85058 5.49913 4.67285V3.35938H2.86214C2.7107 3.35913 2.56071 3.38275 2.42092 3.42886C2.28113 3.47497 2.15433 3.54264 2.04791 3.62793C1.93992 3.71266 1.8541 3.81342 1.79536 3.92443C1.73661 4.03545 1.7061 4.15454 1.70556 4.2749V27.7344C1.70877 27.9764 1.83166 28.2078 2.04786 28.3789C2.26407 28.5501 2.55639 28.6474 2.86214 28.6499H27.1409C27.4469 28.6486 27.7398 28.5517 27.9559 28.3802C28.1719 28.2087 28.2936 27.9766 28.2944 27.7344V4.2749C28.2936 4.03271 28.1719 3.80058 27.9559 3.6291C27.7398 3.45761 27.4469 3.36066 27.1409 3.35938L24.1616 3.36182Z" fill="#4455D7"/>
</svg>
