<svg width="20" height="20" viewBox="0 0 20 20" fill="none" xmlns="http://www.w3.org/2000/svg">
<g id="Group">
<g id="Group_2">
<path id="Vector" d="M18.8094 0.7191C18.7479 0.702781 18.6828 0.708736 18.6251 0.735962C18.5674 0.763188 18.5206 0.810024 18.4925 0.868589C18.4673 0.921654 17.8443 2.18099 15.1152 3.66261C15.0775 3.67953 15.044 3.70493 15.0171 3.73694C14.9902 3.76894 14.9707 3.80673 14.9599 3.84753C14.7894 4.50409 14.5581 5.14238 14.2694 5.75368C14.11 5.39883 14.0033 5.02147 13.9526 4.63413C13.9466 4.59119 13.9311 4.55024 13.9072 4.51444C13.8834 4.47865 13.8518 4.44897 13.8151 4.42769C13.7783 4.40641 13.7373 4.3941 13.6951 4.39172C13.653 4.38933 13.6109 4.39694 13.5721 4.41394C12.8507 4.7299 12.0656 5.03082 11.2385 5.30812C10.1417 5.66846 9.08355 6.14261 8.08024 6.72325C8.02219 6.75749 7.97827 6.8123 7.95671 6.87743C7.83228 7.25277 7.69789 7.6073 7.55353 7.941C7.55951 7.8297 7.56749 7.71138 7.57745 7.58605C7.58177 7.53256 7.57121 7.47891 7.547 7.43135C7.5228 7.3838 7.48594 7.3443 7.44073 7.31745C7.39552 7.29061 7.34382 7.27753 7.29166 7.27974C7.23949 7.28196 7.18901 7.29937 7.14611 7.32994C4.34827 9.32184 2.82369 12.1332 2.35017 16.1669C1.6333 16.9378 1.0036 17.7897 0.473083 18.7062C0.373989 18.8793 0.342943 19.0847 0.386291 19.2806C0.42964 19.4764 0.544109 19.6479 0.706303 19.7599C0.826145 19.8392 0.965658 19.8815 1.10822 19.8817H13.6976C13.7707 19.8817 13.8407 19.8519 13.8924 19.7988C13.944 19.7457 13.973 19.6736 13.973 19.5986C13.973 19.5235 13.944 19.4515 13.8924 19.3984C13.8407 19.3453 13.7707 19.3154 13.6976 19.3154H1.86532C2.34349 18.5237 2.903 17.787 3.5342 17.1181C6.24895 16.9812 12.544 16.4175 15.018 14.1179C15.1975 13.9509 15.3683 13.7741 15.5296 13.5884C15.5619 13.5514 15.5842 13.5063 15.5941 13.4577C15.6041 13.409 15.6015 13.3585 15.5864 13.3113C15.5714 13.264 15.5446 13.2216 15.5085 13.1884C15.4725 13.1552 15.4287 13.1324 15.3813 13.1222C15.3223 13.1095 15.2639 13.0963 15.2059 13.0828C15.4016 13.0544 15.6216 13.0274 15.8641 13.005C15.9044 13.0012 15.9433 12.9884 15.9783 12.9674C16.0132 12.9465 16.0432 12.9179 16.0662 12.8837C18.0772 9.88355 18.656 7.55288 19.0148 1.00869C19.0183 0.943478 18.9998 0.879018 18.9623 0.826239C18.9249 0.77346 18.8709 0.735609 18.8094 0.7191ZM0.948806 18.9914C2.66411 15.966 5.83822 13.6669 9.1985 11.2332C9.90162 10.724 10.6992 10.1469 11.4635 9.56985C11.4973 9.54407 11.5383 9.53012 11.5804 9.53005C11.591 9.53007 11.6015 9.53094 11.6119 9.53264C11.6374 9.53668 11.6618 9.54592 11.6837 9.55982C11.7057 9.57371 11.7247 9.59197 11.7397 9.61353C11.7703 9.65678 11.783 9.71068 11.7752 9.76354C11.7673 9.81639 11.7395 9.86394 11.6978 9.89585C10.93 10.4739 10.1304 11.0529 9.42448 11.5638C6.0941 13.9761 2.94832 16.2545 1.27692 19.2151C1.26364 19.2387 1.24583 19.2592 1.22458 19.2755C1.20333 19.2917 1.17908 19.3034 1.15332 19.3097C1.12755 19.316 1.10081 19.3168 1.07471 19.3122C1.04861 19.3075 1.02371 19.2975 1.00152 19.2826C0.958932 19.2496 0.929898 19.2014 0.920141 19.1475C0.910383 19.0936 0.92061 19.0379 0.948806 18.9914ZM15.685 12.4535C15.1021 12.5034 14.5245 12.6063 13.9592 12.7609C13.9037 12.7782 13.855 12.813 13.8199 12.8604C13.7848 12.9078 13.7651 12.9654 13.7637 13.0249C13.7622 13.0845 13.7791 13.143 13.8118 13.1921C13.8446 13.2413 13.8916 13.2786 13.9461 13.2987C14.2111 13.3957 14.4936 13.4841 14.7901 13.562C14.7429 13.6085 14.6965 13.6535 14.6485 13.6975C12.4434 15.7471 6.69934 16.3483 4.11457 16.5172C5.70588 14.9506 7.68824 13.5145 9.74236 12.0269C10.4505 11.5145 11.2515 10.9339 12.0228 10.3522C12.1815 10.2316 12.2876 10.0514 12.3179 9.85087C12.3482 9.65032 12.3003 9.44557 12.1847 9.28107C12.1269 9.19909 12.0539 9.12968 11.9699 9.07684C11.8858 9.02401 11.7925 8.98878 11.6952 8.9732C11.5978 8.95762 11.4985 8.962 11.4028 8.98607C11.3072 9.01014 11.2171 9.05343 11.1377 9.11346C10.377 9.68715 9.58232 10.2621 8.88124 10.7705C6.74356 12.3187 4.68047 13.8133 3.00072 15.4844C3.51296 12.2454 4.79598 9.88436 6.99283 8.14582C6.97704 8.47592 6.9812 8.8067 7.00526 9.13627C7.01105 9.19553 7.03486 9.2514 7.07332 9.29594C7.11177 9.34048 7.16291 9.37141 7.21945 9.38435C7.27599 9.39729 7.33507 9.39157 7.38827 9.368C7.44146 9.34443 7.48608 9.30422 7.51576 9.25308C7.89239 8.58973 8.20343 7.88927 8.44423 7.16217C9.38869 6.62518 10.382 6.18453 11.41 5.84654C12.1323 5.60386 12.8238 5.34404 13.4704 5.07159C13.6703 6.01512 14.0568 6.49125 14.0752 6.51326C14.1039 6.54793 14.1403 6.57498 14.1813 6.5921C14.2224 6.60922 14.2668 6.61592 14.3109 6.61162C14.355 6.60731 14.3974 6.59214 14.4346 6.56738C14.4718 6.54263 14.5026 6.50902 14.5245 6.46941C14.9264 5.72613 15.2403 4.936 15.4594 4.11593C17.0088 3.26397 17.9074 2.47187 18.4105 1.91404C18.058 7.54771 17.4713 9.75461 15.685 12.4535Z" fill="black"/>
<path id="Vector_2" d="M17.287 6.41614C17.2514 6.40947 17.2149 6.41009 17.1795 6.41797C17.1441 6.42585 17.1106 6.44083 17.0809 6.46205C17.0511 6.48327 17.0258 6.51032 17.0062 6.54164C16.9867 6.57296 16.9733 6.60795 16.967 6.64458C16.8919 7.07379 16.8096 7.46531 16.7174 7.84179C16.6995 7.91458 16.7104 7.99169 16.7478 8.05618C16.7852 8.12067 16.846 8.16727 16.9168 8.18574C16.9389 8.19151 16.9617 8.1944 16.9846 8.19431C17.0458 8.19427 17.1053 8.17324 17.1536 8.13457C17.2019 8.09589 17.2363 8.04177 17.2513 7.98076C17.3472 7.59247 17.4317 7.18801 17.5092 6.74521C17.5222 6.67128 17.5061 6.59508 17.4644 6.53337C17.4228 6.47166 17.359 6.42949 17.287 6.41614Z" fill="black"/>
</g>
</g>
</svg>
