<svg width="27" height="27" viewBox="0 0 27 27" fill="none" xmlns="http://www.w3.org/2000/svg">
<path d="M17.3986 23.9591C17.3125 24.3853 17.1614 24.7764 16.9428 25.1346C16.7172 25.5015 16.4219 25.8333 16.0591 26.1233C15.694 26.4133 15.2987 26.6331 14.8685 26.7803C14.4383 26.9275 13.9825 27 13.5012 27C13.0175 27 12.5617 26.9253 12.1338 26.7803C11.7059 26.6331 11.3083 26.4155 10.9455 26.1233C10.5804 25.8311 10.2874 25.5015 10.0618 25.1346C9.83628 24.7676 9.6828 24.3634 9.59909 23.9195C9.55723 23.7042 9.71071 23.4977 9.9386 23.4581C9.94558 23.4581 10.013 23.4515 10.013 23.4515H16.994C17.2265 23.4515 17.4172 23.6295 17.4172 23.8514C17.4149 23.8888 17.4079 23.9239 17.3986 23.9591ZM4.6994 0.0557402C5.12495 -0.104655 5.60632 0.0930926 5.77607 0.49518C5.94583 0.897268 5.73654 1.35209 5.31099 1.51248C4.39012 1.85964 3.61807 2.34083 3.00183 2.96483C2.38792 3.58884 1.92516 4.36225 1.62285 5.29167C1.48798 5.70474 1.02289 5.93764 0.585708 5.81021C0.148527 5.68277 -0.0979692 5.24333 0.036906 4.83026C0.415952 3.66574 1.00196 2.69018 1.78563 1.8948C2.5693 1.10161 3.54366 0.490786 4.6994 0.0557402ZM21.689 1.51248C21.2635 1.35209 21.0542 0.897268 21.2239 0.49518C21.3937 0.0930926 21.875 -0.104655 22.3006 0.0557402C23.4563 0.490786 24.4307 1.10161 25.2144 1.89699C25.998 2.69458 26.5864 3.67013 26.9631 4.83245C27.098 5.24553 26.8515 5.68497 26.4143 5.8124C25.9771 5.93984 25.512 5.70694 25.3771 5.29386C25.0748 4.36225 24.6121 3.58884 23.9982 2.96703C23.3819 2.34083 22.6099 1.85964 21.689 1.51248ZM16.7219 2.62427C17.1963 2.80224 17.6521 3.01537 18.0892 3.26365C18.1055 3.27464 18.1241 3.28343 18.1404 3.29441C18.559 3.5383 18.9497 3.80636 19.3078 4.09639C20.0728 4.7182 20.71 5.44767 21.2146 6.27382C21.4658 6.68689 21.682 7.11754 21.8611 7.56137C22.0448 8.02059 22.182 8.48859 22.275 8.96978C22.3657 9.45316 22.4122 9.94753 22.4122 10.4551C22.4122 11.457 22.4122 11.9997 22.4122 12.0656C22.4145 12.5798 22.4169 13.0829 22.4215 13.5729V13.5773C22.4238 14.0211 22.4541 14.4672 22.5122 14.9132C22.5704 15.3548 22.6541 15.7811 22.7634 16.192C22.8727 16.5963 23.0215 16.9874 23.2052 17.3609C23.3959 17.7454 23.6284 18.1233 23.9005 18.4902H23.9028C24.1726 18.8506 24.5098 19.2087 24.9144 19.5603C25.333 19.9228 25.8167 20.281 26.3701 20.6281C26.6864 20.8281 26.7724 21.2345 26.5585 21.5334C26.4259 21.7201 26.2073 21.8234 25.9841 21.8234V21.8256H19.7403H13.5012H7.25738H1.01591C0.632217 21.8256 0.322934 21.5334 0.322934 21.1708C0.322934 20.9335 0.457809 20.7248 0.657797 20.6105C1.21823 20.2524 1.69959 19.8965 2.10189 19.5449C2.50186 19.1955 2.83673 18.8374 3.10648 18.4683C3.11345 18.4573 3.12276 18.4463 3.13206 18.4375C3.39251 18.0772 3.61575 17.7102 3.79946 17.3367C3.98782 16.9566 4.13897 16.5655 4.25059 16.1634C4.25292 16.1546 4.25524 16.1458 4.25757 16.1392C4.36454 15.7481 4.44593 15.3351 4.50174 14.9022C4.55755 14.4672 4.58778 14.0167 4.58778 13.5531V10.4551C4.58778 9.95632 4.63429 9.46195 4.72963 8.96758C4.82497 8.47541 4.96217 8.00301 5.14588 7.55259C5.32727 7.10216 5.54586 6.66931 5.79933 6.25624C6.31092 5.4213 6.94577 4.69842 7.72246 4.07222C8.10151 3.76681 8.51078 3.48777 8.95029 3.23948C9.39445 2.989 9.85488 2.77807 10.3293 2.60669C10.6595 2.48804 11.0013 2.38917 11.3501 2.30787C11.4687 1.91457 11.6734 1.59598 11.9641 1.35209C12.364 1.01592 12.8896 0.848929 13.543 0.855521C14.1895 0.859915 14.7127 1.0291 15.108 1.36527C16.5056 2.54077 14.7662 1.8948 16.7219 2.62427Z" fill="white"/>
</svg>
