<svg width="25" height="25" viewBox="0 0 25 25" fill="none" xmlns="http://www.w3.org/2000/svg">
<path d="M16.1098 22.1843C16.0301 22.579 15.8902 22.9411 15.6878 23.2728C15.4789 23.6125 15.2055 23.9197 14.8696 24.1883C14.5315 24.4568 14.1655 24.6602 13.7671 24.7966C13.3688 24.9329 12.9468 25 12.5011 25C12.0532 25 11.6312 24.9308 11.235 24.7966C10.8388 24.6602 10.4706 24.4588 10.1347 24.1883C9.79669 23.9177 9.52538 23.6125 9.31653 23.2728C9.10767 22.933 8.96556 22.5587 8.88804 22.1477C8.84929 21.9483 8.9914 21.7571 9.20241 21.7205C9.20887 21.7205 9.27131 21.7144 9.27131 21.7144H15.7352C15.9505 21.7144 16.127 21.8792 16.127 22.0846C16.1249 22.1192 16.1184 22.1518 16.1098 22.1843ZM4.35129 0.0516113C4.74533 -0.0969031 5.19104 0.0861969 5.34822 0.4585C5.5054 0.830803 5.31161 1.25193 4.91758 1.40045C4.06492 1.72189 3.35007 2.16743 2.77947 2.74522C2.21104 3.323 1.78255 4.03912 1.50264 4.89969C1.37776 5.28217 0.94712 5.49782 0.542322 5.37982C0.137525 5.26182 -0.0907122 4.85493 0.0341722 4.47246C0.38514 3.3942 0.927741 2.49091 1.65336 1.75444C2.37898 1.02001 3.28117 0.454431 4.35129 0.0516113ZM20.0824 1.40045C19.6884 1.25193 19.4946 0.830803 19.6518 0.4585C19.809 0.0861969 20.2547 -0.0969031 20.6487 0.0516113C21.7188 0.454431 22.621 1.02001 23.3466 1.75648C24.0723 2.49498 24.617 3.39827 24.9658 4.47449C25.0907 4.85697 24.8625 5.26386 24.4577 5.38186C24.0529 5.49985 23.6222 5.2842 23.4974 4.90173C23.2174 4.03912 22.789 3.323 22.2205 2.74725C21.6499 2.16743 20.9351 1.72189 20.0824 1.40045ZM14.5595 2.14505C14.876 2.22236 15.1839 2.31798 15.4832 2.42988C15.9225 2.59467 16.3445 2.79201 16.7493 3.0219C16.7644 3.03207 16.7816 3.04021 16.7967 3.05038C17.1842 3.27621 17.546 3.52441 17.8776 3.79295C18.2264 4.07574 18.5494 4.38701 18.8508 4.7288L18.853 4.73083C19.1479 5.06652 19.4106 5.42661 19.6432 5.80705C19.8757 6.18953 20.076 6.58828 20.2418 6.99924C20.4119 7.42444 20.5389 7.85777 20.625 8.30332C20.709 8.7509 20.7521 9.20864 20.7521 9.6786C20.7521 10.6063 20.7521 11.1088 20.7521 11.1698C20.7542 11.6459 20.7564 12.1118 20.7607 12.5655V12.5695C20.7628 12.9805 20.7908 13.3935 20.8446 13.8065C20.8985 14.2154 20.976 14.6101 21.0772 14.9905C21.1784 15.3649 21.3162 15.727 21.4863 16.0729C21.6629 16.4289 21.8782 16.7788 22.1301 17.1186H22.1322C22.382 17.4522 22.6942 17.7838 23.0689 18.1093C23.4564 18.445 23.9043 18.7766 24.4168 19.0981C24.7096 19.2832 24.7893 19.6596 24.5912 19.9363C24.4684 20.1092 24.266 20.2048 24.0593 20.2048V20.2069H18.2781H12.5011H6.71979H0.94066C0.585386 20.2069 0.299013 19.9363 0.299013 19.6006C0.299013 19.3809 0.423898 19.1876 0.609071 19.0818C1.12799 18.7502 1.5737 18.4206 1.94619 18.0951C2.31654 17.7716 2.6266 17.44 2.87637 17.0982C2.88283 17.088 2.89144 17.0779 2.90005 17.0697C3.14121 16.7361 3.34791 16.3963 3.51802 16.0505C3.69242 15.6985 3.83238 15.3364 3.93573 14.9641C3.93789 14.9559 3.94004 14.9478 3.94219 14.9417C4.04124 14.5796 4.1166 14.1971 4.16828 13.7963C4.21995 13.3935 4.24794 12.9764 4.24794 12.5472V9.6786C4.24794 9.21678 4.29101 8.75903 4.37929 8.30128C4.46757 7.84557 4.5946 7.40816 4.76471 6.9911C4.93265 6.57404 5.13505 6.17325 5.36975 5.79078C5.60229 5.41034 5.86929 5.05024 6.16858 4.70845L6.17288 4.70439C6.47002 4.3687 6.79731 4.0554 7.15258 3.76854C7.50355 3.48575 7.88251 3.22738 8.28946 2.99749C8.70072 2.76556 9.12705 2.57025 9.56629 2.41157C9.87205 2.30171 10.1886 2.21016 10.5115 2.13488C10.6214 1.77072 10.8108 1.47572 11.08 1.2499C11.4503 0.938629 11.9369 0.784011 12.542 0.790115C13.1406 0.794183 13.625 0.950836 13.9911 1.26211C14.2581 1.48996 14.4497 1.78292 14.5595 2.14505ZM15.0181 3.55492C14.6629 3.42269 14.3011 3.31893 13.9329 3.24365C13.6487 3.20907 13.4162 2.99749 13.3796 2.71673C13.3451 2.45226 13.2655 2.26712 13.1384 2.16133C13.0114 2.05554 12.809 2.00061 12.5312 1.99857C12.2535 1.99654 12.0532 2.0474 11.9305 2.15116C11.8056 2.25695 11.7259 2.44412 11.6936 2.71266C11.6635 2.969 11.4589 3.18872 11.1747 3.23755C10.7764 3.30876 10.391 3.41048 10.0185 3.54475C9.64596 3.67699 9.29069 3.84178 8.94618 4.03505C8.60382 4.22833 8.283 4.44601 7.98586 4.68811C7.68872 4.92817 7.41096 5.19265 7.15689 5.48154C6.90712 5.76637 6.68319 6.07357 6.48294 6.39908C6.287 6.72052 6.11475 7.06231 5.96833 7.42444C5.82192 7.78453 5.71426 8.15073 5.6432 8.51693C5.57215 8.88517 5.5377 9.27375 5.5377 9.68064V12.5492C5.5377 13.0253 5.50755 13.4891 5.44942 13.9448C5.39128 14.3822 5.30515 14.8176 5.18673 15.2469C5.18458 15.257 5.18242 15.2652 5.18027 15.2754C5.05754 15.7128 4.89174 16.142 4.68288 16.5652C4.48049 16.9741 4.23933 17.3708 3.96157 17.7553C3.95296 17.7675 3.94434 17.7798 3.93573 17.792C3.6429 18.1907 3.2704 18.5874 2.82039 18.9821L2.80316 18.9964H6.72625H12.5075H18.2802H22.1968C21.7576 18.6139 21.3872 18.2192 21.0858 17.8164V17.8143C20.7908 17.4156 20.5389 17.0067 20.33 16.5876C20.1169 16.1603 19.9532 15.727 19.8348 15.2916V15.2896C19.7185 14.8563 19.6303 14.4107 19.5721 13.955C19.5161 13.5196 19.486 13.0598 19.4838 12.5777V12.5757C19.4795 12.126 19.4774 11.6581 19.4752 11.1698C19.4709 10.2666 19.4709 9.77422 19.4709 9.6786C19.4709 9.27985 19.4365 8.89127 19.3633 8.5149C19.2922 8.14056 19.1867 7.77843 19.0467 7.42851V7.42647C18.9025 7.06638 18.7324 6.72662 18.5386 6.40721C18.3448 6.08781 18.1209 5.78468 17.8689 5.49578C17.6192 5.213 17.3457 4.95055 17.0486 4.70845C16.7601 4.47449 16.4543 4.26495 16.1335 4.07574C16.1184 4.06964 16.1055 4.0615 16.0904 4.05336C15.7416 3.86009 15.3842 3.69327 15.0181 3.55492Z" fill="white"/>
</svg>
