<svg width="37" height="25" viewBox="0 0 37 25" fill="none" xmlns="http://www.w3.org/2000/svg">
<path d="M21.7441 9.19003V6.54206C22.6641 6.17861 23.6052 5.90602 24.5675 5.7243C25.5287 5.54258 26.539 5.45171 27.5983 5.45171C28.3231 5.45171 29.034 5.50363 29.7309 5.60748C30.4278 5.71132 31.1108 5.84112 31.7799 5.99688V8.4891C31.1108 8.25545 30.4351 8.08048 29.7527 7.96417C29.0691 7.84683 28.351 7.78816 27.5983 7.78816C26.539 7.78816 25.5215 7.91173 24.5458 8.15888C23.5701 8.40498 22.6362 8.7487 21.7441 9.19003ZM21.7441 17.757V15.109C22.6641 14.7456 23.6052 14.473 24.5675 14.2913C25.5287 14.1096 26.539 14.0187 27.5983 14.0187C28.3231 14.0187 29.034 14.0706 29.7309 14.1745C30.4278 14.2783 31.1108 14.4081 31.7799 14.5639V17.0561C31.1108 16.8224 30.4351 16.6475 29.7527 16.5312C29.0691 16.4138 28.351 16.3551 27.5983 16.3551C26.539 16.3551 25.5215 16.472 24.5458 16.7056C23.5701 16.9393 22.6362 17.2897 21.7441 17.757ZM21.7441 13.4735V10.8255C22.6641 10.4621 23.6052 10.1895 24.5675 10.0078C25.5287 9.82607 26.539 9.7352 27.5983 9.7352C28.3231 9.7352 29.034 9.78712 29.7309 9.89097C30.4278 9.99481 31.1108 10.1246 31.7799 10.2804V12.7726C31.1108 12.5389 30.4351 12.364 29.7527 12.2477C29.0691 12.1303 28.351 12.0717 27.5983 12.0717C26.539 12.0717 25.5215 12.1952 24.5458 12.4424C23.5701 12.6885 22.6362 13.0322 21.7441 13.4735ZM20.0715 20.3271C21.2981 19.7819 22.5319 19.3728 23.773 19.0997C25.013 18.8276 26.2881 18.6916 27.5983 18.6916C28.6019 18.6916 29.5848 18.7695 30.5472 18.9252C31.5084 19.081 32.4768 19.3146 33.4525 19.6262V4.20561C32.5326 3.84216 31.578 3.56957 30.589 3.38785C29.5988 3.20613 28.6019 3.11526 27.5983 3.11526C26.2881 3.11526 24.9918 3.27103 23.7095 3.58255C22.4271 3.89408 21.2145 4.36137 20.0715 4.98442V20.3271ZM18.3989 24.9221C17.0608 23.9356 15.6112 23.1698 14.05 22.6246C12.4889 22.0794 10.8721 21.8069 9.19944 21.8069C7.72195 21.8069 6.17477 22.0665 4.5579 22.5857C2.94103 23.1049 1.42173 23.9097 0 25V2.41433C1.22659 1.63551 2.66951 1.03842 4.32875 0.623053C5.98688 0.207684 7.61044 0 9.19944 0C10.8163 0 12.3986 0.194704 13.9463 0.584112C15.493 0.97352 16.9771 1.55763 18.3989 2.33645C19.8206 1.55763 21.3053 0.97352 22.8531 0.584112C24.3997 0.194704 25.9814 0 27.5983 0C29.1873 0 30.8114 0.207684 32.4707 0.623053C34.1288 1.03842 35.5712 1.63551 36.7978 2.41433V25C35.4039 23.9097 33.8918 23.1049 32.2616 22.5857C30.6302 22.0665 29.0758 21.8069 27.5983 21.8069C25.9257 21.8069 24.3088 22.0794 22.7477 22.6246C21.1866 23.1698 19.737 23.9356 18.3989 24.9221Z" fill="white"/>
</svg>
