<svg width="30" height="30" viewBox="0 0 30 30" fill="none" xmlns="http://www.w3.org/2000/svg">
<path fill-rule="evenodd" clip-rule="evenodd" d="M22.8375 0C24.8145 0 26.6057 0.823162 27.9012 2.15261C29.1979 3.48265 30 5.32139 30 7.35013C30 9.37947 29.1979 11.2182 27.9023 12.5477C26.6057 13.8777 24.8145 14.7015 22.8375 14.7015C20.8623 14.7015 19.0717 13.8789 17.775 12.5477C16.4748 11.2128 15.6738 9.37526 15.6738 7.35013C15.6738 5.32139 16.476 3.48265 17.7727 2.15261C19.0682 0.823162 20.86 0 22.8375 0ZM7.44902 5.59618L2.66016 10.7895H7.44902V5.59618ZM0 11.7744C0 11.7052 0.00878906 11.6379 0.0240234 11.573C0.0316406 11.3842 0.103711 11.196 0.240234 11.048L7.52754 3.14593C7.66289 2.89459 7.9248 2.72443 8.2248 2.72443H14.8699C14.5846 3.24154 14.3443 3.78871 14.1574 4.35993H9.04219V11.6066C9.04219 12.0576 8.68535 12.4238 8.2459 12.4238H1.59375V28.3645H24.5637V16.5763C25.1145 16.468 25.6471 16.3093 26.158 16.1055V28.3747C26.158 28.8191 25.9793 29.2255 25.6934 29.5202C25.4027 29.8172 25.0066 30 24.5736 30H1.58438C1.14902 30 0.751758 29.816 0.46582 29.5226C0.179883 29.2285 0 28.8209 0 28.3747V11.7744ZM19.0365 16.548C19.4777 16.548 19.8369 16.9118 19.8369 17.361C19.8369 17.8101 19.4777 18.1739 19.0365 18.1739H7.12148C6.67969 18.1739 6.32109 17.8101 6.32109 17.361C6.32109 16.9118 6.67969 16.548 7.12148 16.548H19.0365ZM19.0365 22.0336C19.4777 22.0336 19.8369 22.3973 19.8369 22.8465C19.8369 23.2957 19.4777 23.6594 19.0365 23.6594H7.12148C6.67969 23.6594 6.32109 23.2957 6.32109 22.8465C6.32109 22.3973 6.67969 22.0336 7.12148 22.0336H19.0365ZM22.7748 9.74686L20.0227 10.4997L20.4193 7.46798L22.7748 9.74686ZM21.0264 6.78011L23.7293 3.61614C23.7744 3.56142 23.8418 3.52955 23.9109 3.52715C23.9543 3.52655 23.9977 3.53557 24.0357 3.55721L26.1322 5.5132C26.1738 5.55288 26.199 5.6088 26.1996 5.66713C26.202 5.73267 26.1756 5.79701 26.1264 5.8403L23.3742 9.05838L21.0229 6.78011H21.0264Z" fill="#D9D9D9"/>
</svg>
