<svg width="50" height="50" viewBox="0 0 50 50" fill="none" xmlns="http://www.w3.org/2000/svg">
<path fill-rule="evenodd" clip-rule="evenodd" d="M0 20.0002L30.5118 0L50 12.6623L46.8565 13.6304L33.3231 4.84852L33.1631 4.7387C32.5666 4.36196 31.7683 4.1572 30.9436 4.1694C30.1189 4.1816 29.3352 4.40977 28.7648 4.80378L27.6636 5.56034L27.6267 5.53594L22.4594 9.15606L2.66978 21.7289L0 20.0002ZM8.24926 31.2591L8.06471 32.0401C7.57874 34.1227 6.79134 37.5069 6.47146 38.7028C6.44968 38.7745 6.41455 38.8442 6.36688 38.9102C6.33071 38.9734 6.2764 39.0314 6.20694 39.081C5.84132 39.3887 5.5103 39.7136 5.21654 40.0532C5.00191 40.292 4.84422 40.5513 4.74902 40.822C4.70245 40.9558 4.70245 41.0949 4.74902 41.2287C4.80154 41.3516 4.90361 41.4626 5.04429 41.5501C8.04626 43.5432 11.2328 45.5566 14.1486 47.5904C14.5855 47.8579 15.1069 48.058 15.6749 48.1762C16.243 48.2944 16.8437 48.3277 17.4336 48.2737C18.5385 48.1796 19.6293 48.0231 20.6939 47.8059C21.8504 47.6374 22.9889 47.4186 24.1019 47.1511C25.2107 46.8691 26.2322 46.4556 27.1161 45.9308L29.626 44.198C29.66 44.1655 29.6992 44.1355 29.7429 44.1085C29.8167 44.0597 30.032 43.9174 30.358 43.7262C32.0189 42.6524 34.049 41.3304 32.8986 40.2322L32.0559 39.6749L31.4407 40.041L30.6348 40.4844C30.2042 40.7325 29.8044 40.9684 29.4414 41.2043C29.1967 41.3661 28.8648 41.457 28.5187 41.457C28.1726 41.457 27.8407 41.3661 27.596 41.2043C27.3512 41.0425 27.2138 40.823 27.2138 40.5942C27.2138 40.3653 27.3512 40.1459 27.596 39.984C27.9835 39.7278 28.451 39.4512 28.937 39.1705L28.9985 39.138C30.6287 38.1821 32.4926 37.1042 31.5822 36.2094L30.5918 35.5545C30.358 35.7131 30.112 35.8636 29.8659 36.0141C29.6198 36.1646 29.2507 36.3883 28.9309 36.5673L28.8509 36.608C28.4326 36.852 28.0389 37.0798 27.6759 37.3198C27.5548 37.3999 27.4109 37.4635 27.2526 37.5068C27.0943 37.5502 26.9246 37.5725 26.7532 37.5725C26.5818 37.5725 26.4121 37.5502 26.2538 37.5068C26.0955 37.4635 25.9516 37.3999 25.8305 37.3198C25.7093 37.2397 25.6132 37.1446 25.5476 37.0399C25.482 36.9352 25.4483 36.823 25.4483 36.7097C25.4483 36.5964 25.482 36.4841 25.5476 36.3795C25.6132 36.2748 25.7093 36.1797 25.8305 36.0995C26.2057 35.8514 26.6671 35.5789 27.1531 35.286L27.2269 35.2413C28.857 34.2895 30.721 33.2075 29.8167 32.3126C29.4722 32.0889 29.1216 31.8652 28.7894 31.6334L26.0335 33.4556C25.7887 33.6174 25.4568 33.7083 25.1107 33.7083C24.7646 33.7083 24.4327 33.6174 24.188 33.4556C23.9433 33.2938 23.8058 33.0743 23.8058 32.8455C23.8058 32.6166 23.9433 32.3972 24.188 32.2354L29.7244 28.5746C30.244 28.2489 30.642 27.8479 30.8871 27.4031C31.0925 27.0374 31.1098 26.6371 30.9363 26.2642C30.8793 26.1517 30.8029 26.0438 30.7087 25.9429C30.6178 25.8456 30.5105 25.7555 30.3888 25.6744C30.2653 25.5916 30.1269 25.5192 29.9766 25.4588C29.8251 25.3988 29.6642 25.3497 29.4968 25.3124C28.9335 25.2006 28.3302 25.2149 27.7805 25.3531C27.0944 25.5328 26.4768 25.8106 25.972 26.1666L12.6661 35.0054C12.4214 35.1672 12.0894 35.2581 11.7434 35.2581C11.3973 35.2581 11.0653 35.1672 10.8206 35.0054C10.5759 34.8435 10.4384 34.6241 10.4384 34.3952C10.4384 34.1664 10.5759 33.9469 10.8206 33.7851L11.3989 33.4068L8.22466 31.2632L8.24926 31.2591ZM14.4931 31.373L22.404 26.1422L22.2564 26.1137C21.2041 25.8853 20.2766 25.4573 19.5893 24.883C18.9021 24.3087 18.4854 23.6135 18.3911 22.8838C18.2968 22.1541 18.5291 21.4222 19.0591 20.7792C19.5891 20.1361 20.3933 19.6103 21.3718 19.2672C22.3502 18.924 23.4597 18.7787 24.5621 18.8493C25.6645 18.9199 26.7111 19.2033 27.5718 19.6642C28.4325 20.1251 29.0693 20.7432 29.4028 21.4415C29.7363 22.1399 29.7519 22.8876 29.4476 23.5918C29.7421 23.6197 30.0323 23.6646 30.315 23.726C30.67 23.8033 31.0105 23.907 31.33 24.0352C31.653 24.1668 31.9523 24.3223 32.222 24.4989C32.3391 24.5763 32.4499 24.6578 32.5541 24.7429L40.0591 19.691C39.3853 19.229 39.014 18.61 39.0255 17.9682C39.0371 17.3264 39.4305 16.7134 40.1206 16.2621L33.2554 11.6251C32.5571 12.0723 31.6202 12.3193 30.6481 12.3125C29.676 12.3056 28.7472 12.0454 28.0635 11.5885L9.22736 24.3646C9.90921 24.8214 10.2915 25.4373 10.2915 26.0791C10.2915 26.7209 9.90921 27.3368 9.22736 27.7936L14.5239 31.373H14.4931ZM33.4277 27.8831C33.068 28.6312 32.434 29.309 31.5822 29.8558L30.6779 30.4497L31.7483 31.1575L31.8467 31.2307L31.9328 31.308C32.4371 31.7097 32.739 32.2055 32.7963 32.7262C32.8537 33.2469 32.6636 33.7664 32.2527 34.2122H32.2835C32.3549 34.2442 32.4227 34.2795 32.4865 34.3179L33.5322 35.0135C33.5697 35.035 33.6028 35.0596 33.6307 35.0867L33.7106 35.1559C34.3007 35.6429 34.6102 36.2526 34.5842 36.8764C34.5353 37.3912 34.2759 37.8874 33.8337 38.3123L34.8733 38.9956L34.9717 39.0729L35.0455 39.1421C37.5923 41.4443 34.6272 43.3601 32.2343 44.9058C32.0743 45.0319 31.8098 45.1864 31.6191 45.3125C30.7825 45.8901 29.7736 46.6711 28.9124 47.1836C26.501 48.6276 24.1265 49.014 21.3767 49.4574C20.1497 49.7087 18.889 49.8817 17.612 49.974C16.661 50.0434 15.6986 49.9737 14.7929 49.7698C13.8871 49.566 13.0603 49.233 12.3708 48.7944L3.27879 42.7825C2.82061 42.4996 2.48325 42.1418 2.30069 41.7453C2.13244 41.3364 2.11556 40.9066 2.25148 40.4925C2.37641 40.1037 2.5835 39.7285 2.86663 39.378C3.19549 38.9623 3.57832 38.5662 4.01083 38.1943C4.24459 37.3117 4.75517 35.0623 5.24114 32.996C5.51796 31.7554 5.78863 30.588 5.99163 29.7419L0.879675 26.2886L31.127 6.10133L48.4929 17.8362L33.4277 27.8831Z" fill="#171560"/>
</svg>
