<svg width="50" height="50" viewBox="0 0 50 50" fill="none" xmlns="http://www.w3.org/2000/svg">
<path d="M26.652 2.85734C25.2584 3.11717 23.8975 3.57095 22.5993 4.20868C21.5158 4.74338 20.4767 5.38974 19.4946 6.13984C18.5388 6.8791 17.6475 7.72316 16.8335 8.66016C16.32 9.24994 15.8376 9.87451 15.389 10.5305H20.6421C22.3928 7.72573 24.4084 5.15232 26.652 2.85734ZM2.0874 24.8996H28.89C29.4433 24.9009 29.9736 25.154 30.3648 25.6036C30.756 26.0532 30.9763 26.6626 30.9774 27.2984V47.6013C30.9742 48.2363 30.7532 48.8443 30.3625 49.2934C29.9717 49.7424 29.4426 49.9963 28.89 50H2.0874C1.53412 49.9988 1.00381 49.7456 0.612574 49.2961C0.221343 48.8465 0.00107538 48.2371 0 47.6013L0 27.2984C0.00320371 26.6633 0.224155 26.0553 0.614926 25.6063C1.0057 25.1572 1.53478 24.9033 2.0874 24.8996ZM5.34261 44.5385C5.25411 44.5552 5.16351 44.5495 5.0771 44.522C4.99069 44.4944 4.91053 44.4455 4.84219 44.3788C4.77384 44.3121 4.71893 44.2291 4.68128 44.1356C4.64362 44.042 4.62412 43.9402 4.62412 43.8371C4.62412 43.7341 4.64362 43.6322 4.68128 43.5387C4.71893 43.4452 4.77384 43.3622 4.84219 43.2955C4.91053 43.2287 4.99069 43.1799 5.0771 43.1523C5.16351 43.1247 5.25411 43.1191 5.34261 43.1357H11.6577C11.8025 43.163 11.9341 43.2485 12.0291 43.377C12.1241 43.5055 12.1762 43.6686 12.1762 43.8371C12.1762 44.0057 12.1241 44.1688 12.0291 44.2973C11.9341 44.4258 11.8025 44.5113 11.6577 44.5385H5.34261ZM5.34261 41.1719C5.19784 41.1446 5.06622 41.0591 4.97124 40.9306C4.87627 40.8021 4.82412 40.639 4.82412 40.4705C4.82412 40.3019 4.87627 40.1388 4.97124 40.0103C5.06622 39.8818 5.19784 39.7963 5.34261 39.7691H14.7135C14.802 39.7524 14.8926 39.7581 14.9791 39.7856C15.0655 39.8132 15.1456 39.8621 15.214 39.9288C15.2823 39.9955 15.3372 40.0785 15.3749 40.1721C15.4125 40.2656 15.432 40.3674 15.432 40.4705C15.432 40.5735 15.4125 40.6754 15.3749 40.7689C15.3372 40.8624 15.2823 40.9454 15.214 41.0121C15.1456 41.0789 15.0655 41.1277 14.9791 41.1553C14.8926 41.1829 14.802 41.1885 14.7135 41.1719H5.34261ZM20.4915 38.9227C20.9289 38.9224 21.3603 39.0398 21.751 39.2655C22.1418 39.4912 22.4811 39.819 22.7417 40.2226C23.0933 39.679 23.5851 39.2765 24.1472 39.0724C24.7093 38.8684 25.313 38.8731 25.8726 39.0859C26.4322 39.2987 26.9192 39.7088 27.2644 40.2578C27.6096 40.8069 27.7954 41.4671 27.7954 42.1444C27.7954 42.8218 27.6096 43.482 27.2644 44.0311C26.9192 44.5801 26.4322 44.9902 25.8726 45.203C25.313 45.4158 24.7093 45.4205 24.1472 45.2165C23.5851 45.0124 23.0933 44.6099 22.7417 44.0663C22.4563 44.5075 22.0775 44.8575 21.6411 45.0829C21.2048 45.3083 20.7255 45.4017 20.2489 45.3541C19.7723 45.3065 19.3142 45.1195 18.9183 44.811C18.5223 44.5025 18.2016 44.0827 17.9867 43.5915C17.7719 43.1003 17.6699 42.5541 17.6907 42.0049C17.7114 41.4557 17.8541 40.9217 18.1051 40.4537C18.3562 39.9857 18.7073 39.5994 19.125 39.3314C19.5427 39.0634 20.0131 38.9227 20.4915 38.9227ZM1.44043 29.8561H29.5166V27.2984C29.5157 27.1016 29.4469 26.9133 29.3254 26.7747C29.2093 26.6413 29.0539 26.5629 28.89 26.5549H2.0874C2.00214 26.5537 1.91752 26.572 1.83853 26.609C1.75954 26.6459 1.68778 26.7006 1.62749 26.7699C1.56719 26.8392 1.51958 26.9216 1.48745 27.0124C1.45532 27.1032 1.43934 27.2004 1.44043 27.2984V29.8561ZM29.5166 36.2201H1.44043V47.6013C1.43964 47.7989 1.50693 47.9888 1.6276 48.1296C1.68706 48.1992 1.75798 48.2545 1.83623 48.2922C1.91447 48.3299 1.99848 48.3494 2.08333 48.3494H28.89C29.0617 48.3466 29.2255 48.2659 29.3457 48.125C29.4079 48.0579 29.4574 47.9767 29.491 47.8866C29.5246 47.7965 29.5417 47.6993 29.541 47.6013V36.2201H29.5166ZM45.3654 33.667H45.4102C45.754 32.9601 46.065 32.2327 46.342 31.488L46.3664 31.4272C46.8228 30.1914 47.1678 28.905 47.3958 27.5883C47.5632 26.6336 47.6706 25.6663 47.7173 24.6939H42.6799C42.512 27.849 41.7186 30.9182 40.3605 33.667H45.3654ZM43.9128 36.2528H38.9608C37.7389 38.2349 36.356 40.0793 34.8307 41.761V38.0577C35.3055 37.4529 35.7517 36.8482 36.1694 36.2434H34.8307V33.667H37.7645C39.3053 30.9846 40.2241 27.8943 40.4338 24.6892H34.8307V23.38C34.829 22.9364 34.7458 22.4982 34.5866 22.0941H40.3849C40.1137 19.142 39.1412 16.1479 37.4675 13.1116H30.7739V20.1723H28.5238V13.0929H21.8302C20.5939 15.2493 19.6985 17.6395 19.1854 20.1536H16.8945C17.3298 17.6705 18.1145 15.2856 19.2179 13.0929H13.8916C13.5457 13.7977 13.2333 14.5236 12.9557 15.2672L12.9313 15.328C12.4748 16.5687 12.1299 17.8597 11.9019 19.181C11.8449 19.499 11.7961 19.8263 11.7554 20.1536H9.4808C9.54183 19.6533 9.611 19.1623 9.69645 18.676C9.95794 17.1821 10.3492 15.7222 10.8643 14.318L10.8927 14.2479C11.4115 12.8638 12.0409 11.538 12.7726 10.2874C13.4972 9.04699 14.3258 7.89119 15.2466 6.83655C16.1635 5.77881 17.1694 4.82807 18.2495 3.99827C19.3442 3.15457 20.5048 2.42979 21.7163 1.83331C24.2247 0.606794 26.9249 -0.0169852 29.6509 0.000351712C31.0173 0.00164684 32.3803 0.158274 33.7199 0.467944C35.0207 0.76477 36.2915 1.21446 37.5122 1.80993L37.5732 1.83799C38.7844 2.43548 39.9449 3.16021 41.0401 4.00294C43.2064 5.6683 45.0694 7.80291 46.5251 10.2874C47.2617 11.5444 47.8964 12.8764 48.4212 14.2666C48.9475 15.6947 49.343 17.1818 49.6012 18.704C50.1329 21.8024 50.1329 24.9903 49.6012 28.0886C49.339 29.5794 48.9436 31.0351 48.4212 32.4326L48.3968 32.5027C47.8793 33.8887 47.2528 35.2175 46.5251 36.4726C45.803 37.7137 44.9756 38.8697 44.0552 39.9234C43.1374 40.9815 42.1317 41.9337 41.0523 42.7663C39.9575 43.6085 38.7969 44.3317 37.5855 44.9266C36.6921 45.3667 35.7712 45.7293 34.8307 46.0114V43.3462C35.4656 43.1211 36.0891 42.8558 36.6984 42.5513C37.7828 42.0186 38.8221 41.3721 39.8031 40.6201C40.7607 39.8835 41.6521 39.0392 42.4642 38.0998C42.9787 37.5111 43.4612 36.8864 43.9087 36.2294L43.9128 36.2528ZM42.6351 22.1034H47.7173C47.6709 21.131 47.5635 20.1637 47.3958 19.209C47.1635 17.8666 46.8117 16.5551 46.346 15.2953C46.0676 14.543 45.7552 13.8079 45.4102 13.0929H40.0798C41.4843 15.8408 42.3559 18.9048 42.6351 22.0754V22.1034ZM23.4294 10.5259H28.5238V4.38637C26.6705 6.25513 24.9656 8.30973 23.4294 10.5259ZM30.7536 10.5259H35.8683C34.3321 8.30973 32.6272 6.25513 30.7739 4.38637V10.5259H30.7536ZM38.6353 10.5259H43.8924C43.4438 9.86983 42.9615 9.24526 42.4479 8.65549C41.6348 7.71738 40.7434 6.87323 39.7868 6.13516C38.8109 5.38565 37.7771 4.74078 36.6984 4.20868L36.6414 4.18063C35.5636 3.6539 34.4414 3.25591 33.2927 2.99294C33.0811 2.94151 32.8857 2.89942 32.6457 2.85734C34.8891 5.15086 36.9047 7.72269 38.6556 10.5259H38.6353Z" fill="#171560"/>
</svg>
