<svg width="20" height="20" viewBox="0 0 20 20" fill="none" xmlns="http://www.w3.org/2000/svg">
<path fill-rule="evenodd" clip-rule="evenodd" d="M4.40184 9.27659H15.6589V6.07698H12.0725C11.696 6.07698 11.172 5.88657 10.9239 5.65384C10.6758 5.42111 10.5249 5.00122 10.5249 4.64969V1.24339H1.41234C1.38111 1.24339 1.35681 1.25804 1.3412 1.27268C1.31517 1.28896 1.30823 1.31011 1.30823 1.34104V18.6655C1.30823 18.6883 1.32385 18.7176 1.33946 18.7322C1.35508 18.755 1.38805 18.7615 1.4106 18.7615C5.36306 18.7615 11.4895 18.7615 15.5531 18.7615C15.5843 18.7615 15.5825 18.7468 15.5999 18.7322C15.6242 18.7176 15.6572 18.6866 15.6572 18.6655V16.8492H4.40184C3.68353 16.8492 3.09014 16.2959 3.09014 15.6188V10.5053C3.09014 9.82993 3.68006 9.27659 4.40184 9.27659ZM5.11668 10.9692H7.40522C7.90318 10.9692 8.27622 11.0798 8.52607 11.3028C8.77418 11.5258 8.89737 11.8415 8.89737 12.2532C8.89737 12.6748 8.76204 13.0051 8.49137 13.2427C8.2207 13.4803 7.80776 13.5992 7.25254 13.5992H6.49779V15.1436H5.11668V10.9692ZM6.49605 12.7545H6.83439C7.10159 12.7545 7.28897 12.7106 7.39655 12.6243C7.50412 12.538 7.55791 12.4274 7.55791 12.2923C7.55791 12.1605 7.51106 12.0498 7.41737 11.9587C7.32368 11.8675 7.14843 11.822 6.88818 11.822H6.49432V12.7545H6.49605ZM9.53934 10.9692H11.5832C11.9858 10.9692 12.312 11.0212 12.5601 11.1221C12.8082 11.2247 13.0129 11.3711 13.176 11.5632C13.3374 11.7552 13.4554 11.9782 13.5265 12.2321C13.5994 12.486 13.6358 12.7561 13.6358 13.0409C13.6358 13.4869 13.582 13.8335 13.4727 14.0793C13.3651 14.325 13.2142 14.5317 13.0216 14.6977C12.829 14.8637 12.6225 14.9744 12.4022 15.0297C12.1003 15.1062 11.8279 15.1436 11.5832 15.1436H9.53934V10.9692ZM10.9118 11.9147V14.1948H11.2501C11.5381 14.1948 11.7429 14.1639 11.8661 14.1053C11.9875 14.0451 12.0829 13.9409 12.1523 13.7928C12.2217 13.6431 12.2564 13.4022 12.2564 13.0686C12.2564 12.6259 12.1801 12.3248 12.0257 12.1605C11.8713 11.9977 11.6162 11.9163 11.2588 11.9163H10.9118V11.9147ZM14.2691 10.9692H17.6698V11.8675H15.6502V12.5966H17.3783V13.4429H15.6502V15.1453H14.2708V10.9692H14.2691ZM16.9654 9.27659H18.6883C19.4101 9.27659 20 9.83156 20 10.507V15.6205C20 16.2959 19.4083 16.8508 18.6883 16.8508H16.9654V19.0561C16.9654 19.3181 16.8526 19.5508 16.6704 19.7233C16.4865 19.8958 16.2384 20 15.9591 20C10.851 20 6.14037 20 1.00633 20C0.726989 20 0.478876 19.8958 0.29496 19.7233C0.111044 19.5508 0 19.3181 0 19.0561V0.952071C0 0.690048 0.112779 0.45732 0.29496 0.284808C0.478876 0.112296 0.733929 0.00813736 1.00633 0.00813736H11.1946C11.2171 0 11.2414 0 11.2657 0C11.3768 0 11.4895 0.0455692 11.5694 0.112296H11.585C11.6006 0.120433 11.6093 0.126943 11.6249 0.14159L16.8283 5.08259C16.9168 5.1656 16.981 5.27789 16.981 5.40483C16.981 5.44227 16.9723 5.47156 16.9654 5.51062V9.27659ZM11.7134 4.55204V1.45496L15.4316 4.98657H12.1766C12.0482 4.98657 11.9372 4.93449 11.8487 4.85963C11.7689 4.78477 11.7134 4.67247 11.7134 4.55204Z" fill="white"/>
</svg>
