<svg width="15" height="25" viewBox="0 0 15 25" fill="none" xmlns="http://www.w3.org/2000/svg">
<path fill-rule="evenodd" clip-rule="evenodd" d="M2.84262 0H12.1552C12.9088 0.00161001 13.6311 0.28779 14.1642 0.795981C14.6972 1.30417 14.9977 1.99304 15 2.712V22.288C14.9977 23.007 14.6972 23.6958 14.1642 24.204C13.6311 24.7122 12.9088 24.9984 12.1552 25H2.84262C2.08869 24.9989 1.36599 24.7126 0.833078 24.2038C0.300167 23.695 0.000563899 23.0053 0 22.286L0 2.712C0.00112809 1.99306 0.30098 1.30388 0.833831 0.795514C1.36668 0.287149 2.08906 0.00107625 2.84262 0ZM7.49787 22.0479C7.72824 22.0475 7.95357 22.1123 8.14532 22.2342C8.33708 22.356 8.48665 22.5293 8.5751 22.7323C8.66355 22.9352 8.68692 23.1586 8.64223 23.3742C8.59755 23.5899 8.48682 23.788 8.32407 23.9435C8.16132 24.0991 7.95386 24.2051 7.72794 24.2481C7.50202 24.2911 7.2678 24.2693 7.05492 24.1853C6.84204 24.1012 6.66007 23.9589 6.53203 23.7761C6.404 23.5934 6.33566 23.3786 6.33566 23.1588C6.33622 22.8647 6.45878 22.5828 6.67655 22.3746C6.89433 22.1665 7.18961 22.049 7.49787 22.0479ZM14.1811 21.1955V3.4078H0.816747V21.1955H14.1811Z" fill="#646463"/>
</svg>
