<svg width="30" height="30" viewBox="0 0 30 30" fill="none" xmlns="http://www.w3.org/2000/svg">
<path d="M6.19746 25.5178L9.76113 21.409C9.88301 22.151 10.057 22.8817 10.2826 23.5941L5.98652 28.5484C5.90769 28.6551 5.81095 28.7405 5.70268 28.7989C5.59441 28.8573 5.47707 28.8875 5.3584 28.8874C4.89492 28.8874 4.51934 28.4357 4.51934 27.8783V23.0001H2.03555C1.50762 23.0001 1.02539 22.7507 0.663281 22.3504L0.598828 22.2807C0.230273 21.8368 0 21.2216 0 20.5522V2.44792C0 1.77921 0.233203 1.16477 0.600586 0.722255C0.968555 0.280446 1.47949 0 2.03555 0H21.1125C21.668 0 22.1801 0.277628 22.5486 0.72155C22.9148 1.16195 23.1469 1.77499 23.1469 2.44792V5.73717C22.5938 5.58779 22.0324 5.48773 21.4688 5.44122V2.44792C21.4688 2.33235 21.4271 2.22525 21.3627 2.14774C21.2977 2.06882 21.2068 2.01809 21.1125 2.01809H2.03555C1.9418 2.01809 1.85215 2.07023 1.78652 2.14844C1.72148 2.22736 1.67813 2.33517 1.67813 2.44792V20.5522C1.67813 20.6664 1.71973 20.7756 1.78477 20.8545L1.8082 20.8827C1.86973 20.9433 1.95 20.9813 2.03555 20.9813H5.3584C5.82188 20.9813 6.19746 21.4337 6.19746 21.9904V25.5178ZM23.56 21.5634C23.8424 21.7994 24.0275 21.9495 24.1148 22.0101C24.2426 22.0982 24.4189 22.2011 24.6387 22.3187L24.01 23.8478C23.6941 23.6632 23.3789 23.444 23.0684 23.189C22.7566 22.9339 22.5398 22.7422 22.4162 22.6147C21.9152 22.8768 21.2859 23.0086 20.5301 23.0086C19.4121 23.0086 18.5297 22.6584 17.8846 21.958C17.1217 21.13 16.7396 19.9674 16.7396 18.4679C16.7396 17.0121 17.073 15.8819 17.741 15.0757C18.409 14.2703 19.3395 13.8673 20.5377 13.8673C21.7588 13.8673 22.7004 14.2598 23.3648 15.0483C24.0293 15.8353 24.3609 16.9635 24.3609 18.4284C24.3609 19.7348 24.0943 20.7777 23.56 21.5634ZM21.8191 20.1604C22.0008 19.7722 22.091 19.1887 22.091 18.4129C22.091 17.5215 21.9522 16.8846 21.6768 16.5019C21.399 16.1207 21.0199 15.9298 20.5336 15.9298C20.0789 15.9298 19.7127 16.125 19.432 16.5146C19.1502 16.9043 19.0096 17.5131 19.0096 18.3403C19.0096 19.3064 19.1467 19.9829 19.4197 20.3725C19.6963 20.7622 20.073 20.9574 20.55 20.9574C20.7047 20.9574 20.85 20.939 20.9871 20.9045C20.7955 20.6812 20.4938 20.4733 20.0807 20.276L20.4375 19.2937C20.6396 19.3367 20.7967 19.3924 20.9086 19.4572C21.0217 19.5206 21.2402 19.689 21.5678 19.9631C21.6445 20.0265 21.7283 20.0928 21.8191 20.1604ZM27.2719 10.8867C29.09 13.0816 30 15.9446 30 18.804C30 21.619 29.1176 24.4383 27.3563 26.6114L27.2736 26.7199C25.449 28.9057 23.0678 30 20.6895 30C18.3064 30 15.9234 28.9057 14.1064 26.7206C12.2889 24.5264 11.3795 21.6641 11.3795 18.804C11.3795 15.9396 12.2889 13.0732 14.1059 10.8888C15.9311 8.70158 18.3117 7.60799 20.6895 7.60799C23.0303 7.60799 25.3746 8.66917 27.1816 10.7866L27.2719 10.8867ZM26.2359 12.1346C23.1727 8.45074 18.2057 8.45074 15.1436 12.1346C12.0797 15.8177 12.0797 21.7903 15.1436 25.4741C18.2057 29.1573 23.1727 29.1573 26.2359 25.4741C29.2992 21.7903 29.2992 15.8177 26.2359 12.1346ZM5.75801 9.07223C5.29453 9.07223 4.91895 8.61985 4.91895 8.06318C4.91895 7.50581 5.29453 7.05414 5.75801 7.05414H15.3346C14.499 7.60582 13.7257 8.28404 13.0336 9.07223H5.75801ZM5.75801 15.0426C5.29453 15.0426 4.91895 14.591 4.91895 14.0336C4.91895 13.4769 5.29453 13.0245 5.75801 13.0245H10.6371C10.377 13.6806 10.1625 14.3542 9.99609 15.0426H5.75801Z" fill="#FE7C04"/>
</svg>
