<svg width="20" height="20" viewBox="0 0 20 20" fill="none" xmlns="http://www.w3.org/2000/svg">
<path id="Vector" fill-rule="evenodd" clip-rule="evenodd" d="M10.5501 11.3311L18.4277 11.4639C18.4277 14.317 17.0361 16.9842 14.7152 18.5776L10.5501 11.3311ZM9.764 9.94523L9.67448 0.60249L9.6696 0L10.2572 0.0414938H10.2588H10.2604C11.0026 0.0946058 11.722 0.227386 12.4105 0.428216C13.099 0.629046 13.7598 0.902905 14.3848 1.23651C17.5863 2.9527 19.7998 6.30871 19.974 10.2025L20 10.8017L19.4124 10.7834L10.2946 10.4979L9.76888 10.4813L9.764 9.94523ZM10.7731 1.2166L10.8512 9.40083L18.8363 9.64979C18.4945 6.42158 16.5771 3.67137 13.8753 2.22407C13.3203 1.92697 12.7295 1.68299 12.111 1.50207C11.6764 1.37427 11.2305 1.27967 10.7731 1.2166ZM8.98275 10.8398L13.4749 18.7734C12.111 19.5768 10.5583 20 8.98275 20C4.02181 20 0 15.8971 0 10.8398C0 5.93195 3.79395 1.89378 8.60352 1.68797L8.98275 10.8398Z" fill="#4455D7"/>
</svg>
