<svg width="25" height="25" viewBox="0 0 25 25" fill="none" xmlns="http://www.w3.org/2000/svg">
<path d="M5.89944 1.46363L4.67628 4.12113C4.64158 4.19698 4.58416 4.262 4.51084 4.30848C4.43751 4.35496 4.35136 4.38095 4.26259 4.38337L1.18784 4.63974L3.53417 6.54082C3.5973 6.59206 3.64429 6.65821 3.67015 6.73224C3.696 6.80627 3.69976 6.88542 3.68101 6.96127L2.98732 9.77846L5.66102 8.29539C5.73459 8.25478 5.81879 8.23375 5.90439 8.23461C5.98999 8.23547 6.07368 8.25819 6.14629 8.30028L7.42419 9.00934L7.20682 9.89224L5.89944 9.16707L3.1089 10.7146C3.02943 10.7605 2.94048 10.7922 2.84785 10.8079C2.75048 10.8235 2.64995 10.822 2.55101 10.8015C2.3489 10.759 2.18469 10.6443 2.08311 10.4948C1.981 10.3439 1.94048 10.1564 1.98679 9.97037L2.71364 7.01938L0.283626 5.05092C0.258363 5.03334 0.235205 5.01332 0.214152 4.99134C0.172046 4.95179 0.134678 4.90686 0.104151 4.85852L0.0809933 4.8214C0.0425721 4.75108 0.0162561 4.67344 0.00572978 4.59091L0.00151923 4.55038C-0.0111124 4.36725 0.05573 4.19438 0.175731 4.06156C0.294679 3.92922 0.467311 3.83839 0.663628 3.81739L3.92996 3.54686L5.21049 0.764828C5.24891 0.681811 5.30207 0.60612 5.36944 0.544102C5.42576 0.492827 5.4926 0.4479 5.56839 0.413229L5.60628 0.396626C5.79628 0.321422 6.00155 0.324353 6.17997 0.391254C6.35629 0.457667 6.50681 0.587075 6.58734 0.762875L7.64314 3.05706L6.6705 3.13763L5.89944 1.46363ZM11.3637 18.085C11.3637 18.3121 11.1647 18.4967 10.92 18.4967C10.6753 18.4967 10.4763 18.3121 10.4763 18.085V17.3242C10.4526 17.3124 10.43 17.2988 10.4084 17.2827L9.5542 16.64L8.40261 15.7635C8.1884 15.5994 7.94577 15.4861 7.7184 15.4441C7.57261 15.4172 7.43787 15.4202 7.33261 15.4602C7.24734 15.4924 7.17366 15.5564 7.12419 15.6585C7.05945 15.7908 7.02945 15.9808 7.04734 16.2357C7.06313 16.4623 7.1484 16.7113 7.26103 16.9486C7.42787 17.3002 7.65524 17.6225 7.82261 17.8301L11.2189 22.5977C11.2572 22.6512 11.2812 22.7125 11.2889 22.7764C11.3563 23.2911 11.4742 23.6769 11.6479 23.9186C11.7742 24.0939 11.9379 24.1828 12.1416 24.1779C13.8632 24.1779 15.7311 24.112 17.4342 24.1779C17.7611 24.173 18.0606 24.0837 18.3311 23.9108C18.6332 23.7174 18.9095 23.4171 19.159 23.0123L19.2227 22.9112C19.8774 21.8642 20.5127 20.848 20.5795 19.6413L20.5458 18.2422L20.5411 18.1807L20.5458 17.8511C20.5579 16.827 20.5769 15.2595 19.659 15.1062H19.0642C19.0821 15.5437 19.0548 15.9959 19.03 16.4066C19.0153 16.6488 19.0016 16.8739 19.0016 17.0829C19.0016 17.31 18.8027 17.4946 18.5574 17.4946C18.3127 17.4946 18.1137 17.31 18.1137 17.0829C18.1137 16.8891 18.1295 16.6346 18.1463 16.3612C18.2084 15.3411 18.2911 13.9767 17.5232 13.8414H16.9411C16.9027 13.8414 16.8648 13.837 16.829 13.8282C16.8653 14.3195 16.8337 14.84 16.8053 15.3059C16.7905 15.5486 16.7769 15.7737 16.7769 15.9827C16.7769 16.2098 16.5779 16.3944 16.3332 16.3944C16.0879 16.3944 15.889 16.2098 15.889 15.9827C15.889 15.7888 15.9048 15.5344 15.9216 15.261C15.9837 14.2408 16.0663 12.8764 15.2984 12.7417H14.7163C14.6763 12.7417 14.6374 12.7368 14.6005 12.7275V14.8517C14.6005 15.0793 14.4016 15.2634 14.1569 15.2634C13.9116 15.2634 13.7132 15.0793 13.7132 14.8517V10.5774C13.7132 9.86148 13.3979 9.40928 12.9958 9.22079C12.8484 9.15193 12.6895 9.11677 12.5326 9.11677C12.3768 9.11677 12.2189 9.15095 12.0721 9.21981C11.6747 9.40733 11.3637 9.86148 11.3637 10.5945V18.085ZM10.4763 16.2762V11.2063L8.6184 12.2367C8.53616 12.2822 8.43783 12.2956 8.34498 12.2739C8.25213 12.2522 8.17235 12.1972 8.12314 12.121C8.07511 12.0468 8.06002 11.9582 8.08103 11.8739L9.0884 7.78362L5.68155 5.02357C5.53155 4.90198 5.51628 4.69053 5.64786 4.55087C5.67957 4.51708 5.71827 4.48956 5.76167 4.46993C5.80507 4.4503 5.85228 4.43896 5.90049 4.4366L10.391 4.06302L12.1674 0.204711C12.2458 0.033795 12.4579 -0.0458032 12.6416 0.0269583C12.7321 0.0626066 12.7989 0.128531 12.8337 0.206664L14.609 4.06302L19.1116 4.43806C19.31 4.45369 19.4574 4.6163 19.44 4.8004C19.4322 4.8867 19.3884 4.96676 19.3179 5.02357L15.9121 7.78362L16.9195 11.8739C16.9356 11.9391 16.9303 12.0073 16.9044 12.0698C16.8784 12.1322 16.8329 12.186 16.7737 12.2243C16.7145 12.2625 16.6444 12.2835 16.5723 12.2845C16.5001 12.2855 16.4293 12.2665 16.369 12.2299L14.6005 11.2488V11.932C14.6374 11.9227 14.6763 11.9183 14.7163 11.9183H15.3279C15.3632 11.9183 15.3969 11.9217 15.4295 11.9291C16.1642 12.038 16.5305 12.4921 16.7037 13.082C16.7721 13.0415 16.8542 13.0181 16.9411 13.0181H17.5527C17.5879 13.0181 17.6216 13.022 17.6542 13.0288C18.4363 13.145 18.8006 13.6519 18.9595 14.2975C18.9969 14.2882 19.0363 14.2828 19.0769 14.2828H19.689C19.7237 14.2828 19.7579 14.2867 19.7906 14.2941C21.4695 14.5431 21.4453 16.5502 21.4295 17.8589C21.4274 18.4644 21.4569 19.067 21.4637 19.6721C21.389 21.0838 20.699 22.187 19.9885 23.3233L19.9285 23.421C19.6137 23.9308 19.249 24.3205 18.8332 24.5862C18.4127 24.8542 17.9474 24.9924 17.4384 24.9978L12.1521 24.9998C11.6242 25.0081 11.2147 24.7937 10.9137 24.3752C10.671 24.0378 10.51 23.5655 10.4231 22.9707L7.1105 18.3194C6.91524 18.0767 6.64892 17.6987 6.44997 17.2797C6.3005 16.9648 6.18681 16.6229 6.16313 16.2874C6.13523 15.8904 6.19523 15.5701 6.31681 15.3205C6.46787 15.0104 6.70892 14.8078 6.99997 14.6979C7.27155 14.5954 7.57892 14.5802 7.8884 14.6374C8.25893 14.7057 8.64156 14.8806 8.96735 15.1301L10.4763 16.2762ZM18 19.3659C18 19.1803 18.1627 19.0294 18.3627 19.0294C18.5621 19.0294 18.7248 19.1803 18.7248 19.3659V20.9032C18.7231 20.9913 18.6843 21.0754 18.6165 21.1372C18.5487 21.199 18.4574 21.2337 18.3624 21.2337C18.2673 21.2337 18.1761 21.199 18.1083 21.1372C18.0405 21.0754 18.0016 20.9913 18 20.9032V19.3659ZM15.859 18.6861C15.859 18.501 16.0211 18.3502 16.2211 18.3502C16.4211 18.3502 16.5832 18.501 16.5832 18.6861V20.9027C16.5832 21.0882 16.4211 21.2391 16.2211 21.2391C16.0211 21.2391 15.859 21.0882 15.859 20.9027V18.6861ZM19.789 0.764828L21.07 3.54686L24.3364 3.81739C24.5327 3.83839 24.7048 3.92922 24.8243 4.06156C24.9443 4.1939 25.0111 4.36725 24.9985 4.55038L24.9943 4.59091C24.9837 4.67344 24.9574 4.75108 24.919 4.8214L24.8953 4.859C24.8653 4.90686 24.8285 4.9513 24.7869 4.99037C24.7658 5.01234 24.7422 5.03285 24.7164 5.05092L22.2864 7.01938L23.0132 9.97037C23.0595 10.1564 23.0185 10.3444 22.9169 10.4948C22.8645 10.572 22.7962 10.6388 22.7159 10.6914C22.6356 10.7441 22.5449 10.7815 22.449 10.8015C22.35 10.822 22.249 10.8235 22.1522 10.8079C22.0597 10.7921 21.9711 10.7604 21.8911 10.7146L19.1006 9.16707L17.7979 9.8898L17.5774 9.00836L18.8537 8.30028C18.9263 8.25819 19.01 8.23547 19.0956 8.23461C19.1812 8.23375 19.2654 8.25478 19.339 8.29539L22.0127 9.77846L21.3185 6.96127C21.2821 6.81135 21.3332 6.64825 21.4658 6.54082L23.8122 4.63974L20.7374 4.38337C20.6486 4.38095 20.5625 4.35496 20.4892 4.30848C20.4158 4.262 20.3584 4.19698 20.3237 4.12113L19.1006 1.46363L18.3295 3.13861L17.3563 3.05755L18.4127 0.762875C18.4932 0.587075 18.6432 0.458155 18.8206 0.391742C18.9985 0.324353 19.2037 0.321422 19.3937 0.396626L19.4306 0.412741C19.5063 0.447412 19.5742 0.492827 19.63 0.54459C19.6979 0.60612 19.7506 0.681811 19.789 0.764828Z" fill="white"/>
</svg>
