<svg width="20" height="25" viewBox="0 0 20 25" fill="none" xmlns="http://www.w3.org/2000/svg">
<path id="Vector" d="M10.7958 19.4194V24.3245C10.7958 24.6969 10.4386 25 10 25C9.56136 25 9.20422 24.6969 9.20422 24.3245V19.4194C6.76894 19.2546 4.57335 18.3411 2.93864 16.9535C1.12416 15.4154 0 13.2935 0 10.9599C0 10.5876 0.357143 10.2844 0.795781 10.2844C1.23442 10.2844 1.59156 10.5876 1.59156 10.9599C1.59156 12.9211 2.53835 14.7054 4.0628 15.9993C5.58725 17.2933 7.68936 18.0969 10 18.0969C12.3106 18.0969 14.4128 17.2933 15.9372 15.9993C17.4616 14.7054 18.4084 12.9211 18.4084 10.9599C18.4084 10.5876 18.7656 10.2844 19.2042 10.2844C19.6429 10.2844 20 10.5876 20 10.9599C20 13.2955 18.8758 15.4175 17.0638 16.9556C15.4267 18.3431 13.2311 19.2546 10.7958 19.4194ZM10.0527 0C11.582 0 12.9722 0.531006 13.9789 1.3855C14.9856 2.23999 15.6112 3.42 15.6112 4.71802V10.8215C15.6112 12.1195 14.9856 13.2996 13.9789 14.1541C12.9722 15.0085 11.582 15.5396 10.0527 15.5396C8.52349 15.5396 7.13327 15.0085 6.12656 14.1541C5.11985 13.2996 4.49425 12.1195 4.49425 10.8215V4.71802C4.49425 3.42 5.11985 2.23999 6.12656 1.3855C7.13327 0.531006 8.52349 0 10.0527 0ZM12.8523 2.34172C12.1333 1.73136 11.1409 1.35295 10.0527 1.35295C8.96213 1.35295 7.9722 1.73136 7.25312 2.34172C6.53404 2.95207 6.08821 3.79435 6.08821 4.71802V10.8215C6.08821 11.7472 6.53404 12.5875 7.25312 13.1978C7.9722 13.8082 8.96452 14.1866 10.0527 14.1866C11.1433 14.1866 12.1333 13.8082 12.8523 13.1978C13.5714 12.5875 14.0173 11.7452 14.0173 10.8215V4.71802C14.0197 3.79232 13.5714 2.95207 12.8523 2.34172Z" fill="white"/>
</svg>
