<svg width="25" height="25" viewBox="0 0 25 25" fill="none" xmlns="http://www.w3.org/2000/svg">
<path fill-rule="evenodd" clip-rule="evenodd" d="M12.6821 23.1059V15.273C12.6839 14.7712 12.9037 14.2903 13.2935 13.9355C13.6833 13.5806 14.2114 13.3805 14.7627 13.3789H22.9195C23.4707 13.3805 23.9989 13.5806 24.3887 13.9355C24.7785 14.2903 24.9982 14.7712 25 15.273V23.1059C24.9982 23.6077 24.7785 24.0886 24.3887 24.4434C23.9989 24.7983 23.4707 24.9984 22.9195 25H14.7627C14.2114 24.9984 13.6833 24.7983 13.2935 24.4434C12.9037 24.0886 12.6839 23.6077 12.6821 23.1059ZM13.2945 2.33358L17.6723 6.0669H13.2945V2.33358ZM4.63038 14.1154C4.50588 14.1217 4.38913 14.1725 4.30546 14.2566C4.22179 14.3408 4.17794 14.4516 4.18343 14.565C4.17951 14.6214 4.18804 14.678 4.20852 14.7314C4.229 14.7847 4.26102 14.8338 4.30268 14.8757C4.34434 14.9176 4.3948 14.9515 4.45108 14.9754C4.50737 14.9992 4.56833 15.0126 4.63038 15.0147H10.1234V14.1154H4.63038ZM4.63038 17.336C4.50588 17.3423 4.38913 17.3931 4.30546 17.4773C4.22179 17.5614 4.17794 17.6722 4.18343 17.7856C4.17951 17.8421 4.18804 17.8986 4.20852 17.952C4.229 18.0053 4.26102 18.0544 4.30268 18.0963C4.34434 18.1382 4.3948 18.1721 4.45108 18.196C4.50737 18.2199 4.56833 18.2332 4.63038 18.2353H10.1234V17.336H4.63038ZM4.63038 7.67212C4.50588 7.67844 4.38913 7.72918 4.30546 7.81335C4.22179 7.89753 4.17794 8.00833 4.18343 8.12175C4.17982 8.17809 4.18856 8.23454 4.20916 8.28778C4.22975 8.34102 4.26179 8.38999 4.30339 8.43184C4.34499 8.47369 4.39533 8.50759 4.45147 8.53154C4.50761 8.5555 4.56843 8.56904 4.63038 8.57137H9.70993C9.83443 8.56506 9.95118 8.51431 10.0349 8.43014C10.1185 8.34597 10.1624 8.23516 10.1569 8.12175C10.1602 8.06546 10.1512 8.00913 10.1305 7.95601C10.1098 7.90289 10.0778 7.85402 10.0362 7.81223C9.99467 7.77043 9.94445 7.73654 9.88845 7.71249C9.83245 7.68844 9.77178 7.67472 9.70993 7.67212H4.63038ZM4.63038 4.4515C4.50588 4.45781 4.38913 4.50856 4.30546 4.59273C4.22179 4.6769 4.17794 4.78771 4.18343 4.90112C4.17951 4.95754 4.18804 5.01409 4.20852 5.06745C4.229 5.12081 4.26102 5.1699 4.30268 5.21181C4.34434 5.25372 4.3948 5.2876 4.45108 5.31147C4.50737 5.33533 4.56833 5.34869 4.63038 5.35075H7.4238C7.5483 5.34443 7.66504 5.29369 7.74871 5.20952C7.83238 5.12534 7.87623 5.01454 7.87074 4.90112C7.87405 4.84484 7.8651 4.78851 7.84439 4.73539C7.82368 4.68227 7.79163 4.6334 7.75008 4.59161C7.70854 4.54981 7.65832 4.51591 7.60232 4.49187C7.54632 4.46782 7.48565 4.4541 7.4238 4.4515H4.63038ZM4.63038 10.8948C4.50588 10.9011 4.38913 10.9518 4.30546 11.036C4.22179 11.1202 4.17794 11.231 4.18343 11.3444C4.17982 11.4008 4.18856 11.4572 4.20916 11.5104C4.22975 11.5637 4.26179 11.6126 4.30339 11.6545C4.34499 11.6963 4.39533 11.7302 4.45147 11.7542C4.50761 11.7782 4.56843 11.7917 4.63038 11.794H13.2207C13.345 11.7872 13.4614 11.7363 13.545 11.6522C13.6285 11.5682 13.6726 11.4577 13.6677 11.3444C13.6713 11.2881 13.6625 11.2316 13.6419 11.1784C13.6213 11.1251 13.5893 11.0762 13.5477 11.0343C13.5061 10.9925 13.4557 10.9586 13.3996 10.9346C13.3435 10.9107 13.2827 10.8971 13.2207 10.8948H4.63038ZM20.1126 6.60197C20.1128 6.4575 20.0612 6.31693 19.9656 6.20162C19.87 6.08632 19.7357 6.00258 19.583 5.96314L13.1268 0.244142C13.0595 0.167747 12.974 0.106136 12.8769 0.0638742C12.7798 0.0216121 12.6735 -0.000217885 12.5659 1.73608e-06H1.31179C1.13963 -0.000265731 0.969102 0.0303746 0.809961 0.0901695C0.65082 0.149964 0.506192 0.23774 0.384352 0.348475C0.262512 0.459209 0.165851 0.590729 0.0998997 0.735509C0.0339486 0.880288 2.06644e-06 1.03549 2.31712e-06 1.19222V21.6166C-0.000322358 21.7735 0.0334762 21.9289 0.0994479 22.0738C0.16542 22.2187 0.262258 22.3503 0.384377 22.4609C0.631234 22.6834 0.96443 22.8084 1.31179 22.8088H10.1435V21.4762H1.46375V1.33464H11.8307V6.73014C11.8307 6.90767 11.9082 7.07792 12.046 7.20345C12.1839 7.32898 12.3709 7.3995 12.5659 7.3995H18.6444V11.7635H20.1126V6.60197ZM19.6188 20.7886H18.0544C17.898 19.0694 17.574 18.8232 17.574 17.1061C17.574 16.8018 17.7068 16.5099 17.9431 16.2947C18.1795 16.0796 18.5001 15.9587 18.8344 15.9587C19.1686 15.9587 19.4892 16.0796 19.7256 16.2947C19.962 16.5099 20.0948 16.8018 20.0948 17.1061C20.0948 18.8212 19.7662 19.0694 19.6076 20.7886H19.6188ZM18.0544 21.4294H19.6188V22.4223H18.0544V21.4294Z" fill="white"/>
</svg>
