<svg width="21" height="20" viewBox="0 0 21 20" fill="none" xmlns="http://www.w3.org/2000/svg">
<path fill-rule="evenodd" clip-rule="evenodd" d="M19.1927 14.1556L19.7308 14.6193C19.7649 14.6481 19.7919 14.6824 19.8104 14.7202C19.8289 14.7581 19.8384 14.7987 19.8384 14.8397C19.8384 14.8808 19.8289 14.9214 19.8104 14.9593C19.7919 14.9971 19.7649 15.0314 19.7308 15.0602L19.2988 15.4328C19.4195 15.6274 19.51 15.8347 19.5678 16.0495H20.1362C20.2327 16.0495 20.3252 16.0824 20.3935 16.141C20.4617 16.1996 20.5 16.279 20.5 16.3619V17.0127C20.5 17.0957 20.4617 17.1753 20.3936 17.2342C20.3254 17.293 20.2329 17.3263 20.1362 17.3267H19.5243C19.4497 17.5368 19.3433 17.7376 19.2078 17.9239L19.6038 18.2639C19.6719 18.3227 19.71 18.4023 19.71 18.4852C19.71 18.5681 19.6719 18.6477 19.6038 18.7065L19.0676 19.1767C18.9991 19.2351 18.9065 19.2679 18.81 19.2679C18.7134 19.2679 18.6208 19.2351 18.5523 19.1767L18.1203 18.8057C17.8904 18.9094 17.6459 18.987 17.3928 19.0368V19.5249C17.3923 19.6076 17.3538 19.6868 17.2857 19.7453C17.2176 19.8038 17.1253 19.8369 17.029 19.8373H16.2711C16.1745 19.8373 16.0818 19.8044 16.0132 19.7459C15.9447 19.6874 15.906 19.6079 15.9055 19.5249V18.9994C15.66 18.9351 15.4255 18.8432 15.2082 18.726L14.8122 19.0677C14.7437 19.1261 14.6511 19.1589 14.5546 19.1589C14.458 19.1589 14.3654 19.1261 14.2969 19.0677L13.7626 18.5975C13.7287 18.5686 13.7019 18.5342 13.6835 18.4964C13.6652 18.4586 13.6558 18.418 13.6558 18.377C13.6558 18.336 13.6652 18.2954 13.6835 18.2576C13.7019 18.2198 13.7287 18.1854 13.7626 18.1565L14.1946 17.7839C14.0746 17.5891 13.9842 17.3818 13.9255 17.1673H13.3571C13.2628 17.1643 13.1735 17.1302 13.1078 17.072C13.0421 17.0137 13.0052 16.9359 13.0047 16.8549V16.204C13.0052 16.1212 13.0437 16.0418 13.1117 15.983C13.1798 15.9243 13.272 15.8909 13.3685 15.89H13.971C14.0464 15.6804 14.1534 15.4802 14.2893 15.2945L13.8914 14.9545C13.8234 14.8956 13.7852 14.8161 13.7852 14.7332C13.7852 14.6503 13.8234 14.5707 13.8914 14.5119L14.4314 14.0498C14.4651 14.0207 14.505 13.9977 14.5491 13.9819C14.5932 13.9662 14.6404 13.9581 14.6881 13.9581C14.7359 13.9581 14.7831 13.9662 14.8272 13.9819C14.8712 13.9977 14.9112 14.0207 14.9449 14.0498L15.3787 14.4208C15.6056 14.3177 15.8469 14.24 16.0968 14.1897V13.7016C16.0973 13.6189 16.1358 13.5397 16.2039 13.4812C16.272 13.4227 16.3643 13.3896 16.4606 13.3892H17.2185C17.3148 13.3896 17.407 13.4227 17.4751 13.4812C17.5432 13.5397 17.5817 13.6189 17.5822 13.7016V14.2272C17.8273 14.291 18.0612 14.3829 18.2776 14.5005L18.6773 14.1556C18.7461 14.0975 18.8386 14.065 18.935 14.065C19.0314 14.065 19.1239 14.0975 19.1927 14.1556ZM11.9172 19.0368C12.0501 19.0556 12.1709 19.1144 12.2581 19.2026C12.3453 19.2908 12.3931 19.4027 12.3931 19.5184C12.3931 19.6341 12.3453 19.746 12.2581 19.8342C12.1709 19.9224 12.0501 19.9812 11.9172 20H1.80543C1.63352 20 1.4633 19.9708 1.30455 19.9142C1.1458 19.8576 1.00164 19.7745 0.880345 19.6699C0.759051 19.5653 0.663013 19.4412 0.597745 19.3046C0.532477 19.168 0.499264 19.0217 0.500012 18.8741V1.1146C0.499387 0.968093 0.532549 0.822932 0.597586 0.687491C0.662624 0.55205 0.758249 0.429009 0.878944 0.325468C0.999995 0.221011 1.14416 0.138408 1.30295 0.0825214C1.46173 0.0266353 1.63194 -0.0014041 1.80354 5.40884e-05H17.8399C18.186 0.000484486 18.5177 0.118733 18.7624 0.328878C19.0071 0.539023 19.1448 0.823916 19.1453 1.12111V11.1016C19.1453 11.1113 19.1453 11.1211 19.1453 11.1308C19.126 11.2472 19.0585 11.3537 18.9551 11.4307C18.8517 11.5077 18.7195 11.5501 18.5826 11.5501C18.4458 11.5501 18.3135 11.5077 18.2101 11.4307C18.1067 11.3537 18.0392 11.2472 18.0199 11.1308V1.12111C18.0192 1.07978 18.0003 1.04022 17.9668 1.01046C17.9325 0.981181 17.8864 0.964298 17.838 0.96328H1.80543C1.78012 0.961841 1.75474 0.965064 1.73099 0.972732C1.70724 0.980401 1.68568 0.992337 1.66774 1.00774C1.6498 1.02315 1.6359 1.04167 1.62697 1.06206C1.61804 1.08245 1.61429 1.10425 1.61596 1.12599V18.8741C1.61712 18.9148 1.63605 18.9537 1.66902 18.9831C1.70384 19.0128 1.7507 19.0297 1.79975 19.0303H11.9172V19.0368ZM4.09986 16.7036V15.6199H9.56215V16.6987H4.10175L4.09986 16.7036ZM14.5773 9.72342V10.7176H12.9327V9.72342H14.5773ZM11.6349 8.84806V10.7176H9.98845V8.84806H11.6349ZM8.6925 6.1699V10.7257H7.04605V6.1699H8.6925ZM5.74821 4.29715V10.7176H4.09986V4.29715H5.74821ZM13.5731 4.769L16.057 4.77713C16.0555 5.05855 15.9892 5.33694 15.8621 5.59633C15.735 5.85572 15.5495 6.091 15.3162 6.28868C15.2048 6.38256 15.0837 6.46752 14.9543 6.5425L13.5731 4.769ZM13.3193 4.34596L13.1942 2.06643C13.1932 2.04469 13.2021 2.02347 13.2191 2.00734C13.2361 1.99121 13.2599 1.98146 13.2852 1.9802H13.3837C14.086 1.97321 14.7651 2.19658 15.2822 2.60475C15.7994 3.01291 16.1158 3.57513 16.1669 4.17674C16.168 4.1984 16.1594 4.21958 16.1428 4.23593C16.1262 4.25228 16.103 4.26254 16.0779 4.2646L13.4254 4.42731C13.413 4.4282 13.4006 4.42695 13.3888 4.42365C13.377 4.42034 13.3661 4.41505 13.3568 4.40807C13.3474 4.4011 13.3398 4.39258 13.3343 4.38303C13.3288 4.37348 13.3257 4.36309 13.3249 4.35247L13.3193 4.34596ZM13.4765 2.14128L13.5997 4.17674L15.8278 4.00427C15.7795 3.50931 15.5074 3.05026 15.0699 2.7254C14.6038 2.35605 14.1719 2.1364 13.4936 2.14291L13.4765 2.14128ZM13.0237 4.66975L14.3499 6.64989C14.0103 6.81845 13.6316 6.92047 13.2407 6.94866C12.8498 6.97686 12.4565 6.93052 12.0889 6.81297C11.7213 6.69541 11.3885 6.50955 11.1143 6.26868C10.8401 6.0278 10.6313 5.73786 10.5028 5.4196C10.3743 5.10134 10.3293 4.76263 10.371 4.42769C10.4127 4.09274 10.54 3.76985 10.744 3.48211C10.9479 3.19437 11.2234 2.94888 11.5507 2.76322C11.8779 2.57755 12.249 2.45629 12.6372 2.40812L13.0161 4.66975H13.0237ZM4.09986 13.8025V12.7156H11.8414V13.7944L4.09986 13.8025ZM16.7429 15.3287C17.0386 15.3287 17.3276 15.404 17.5734 15.545C17.8192 15.6861 18.0108 15.8866 18.124 16.1212C18.2371 16.3557 18.2667 16.6139 18.2091 16.8629C18.1514 17.1119 18.009 17.3407 17.7999 17.5202C17.5909 17.6997 17.3245 17.822 17.0345 17.8715C16.7446 17.9211 16.444 17.8956 16.1708 17.7985C15.8977 17.7013 15.6642 17.5368 15.4999 17.3257C15.3357 17.1145 15.248 16.8663 15.248 16.6124C15.248 16.272 15.4055 15.9454 15.6859 15.7047C15.9662 15.4639 16.3464 15.3287 16.7429 15.3287Z" fill="white"/>
</svg>
