<svg width="34" height="34" viewBox="0 0 34 34" fill="none" xmlns="http://www.w3.org/2000/svg">
<path d="M12.1667 33.3333L11.5 28C11.1389 27.8611 10.7989 27.6944 10.48 27.5C10.16 27.3056 9.84722 27.0972 9.54167 26.875L4.58333 28.9583L0 21.0417L4.29167 17.7917C4.26389 17.5972 4.25 17.4094 4.25 17.2283V16.1033C4.25 15.9233 4.26389 15.7361 4.29167 15.5417L0 12.2917L4.58333 4.375L9.54167 6.45833C9.84722 6.23611 10.1667 6.02778 10.5 5.83333C10.8333 5.63889 11.1667 5.47222 11.5 5.33333L12.1667 0H21.3333L22 5.33333C22.3611 5.47222 22.7017 5.63889 23.0217 5.83333C23.3406 6.02778 23.6528 6.23611 23.9583 6.45833L28.9167 4.375L33.5 12.2917L29.2083 15.5417C29.2361 15.7361 29.25 15.9233 29.25 16.1033V17.2283C29.25 17.4094 29.2222 17.5972 29.1667 17.7917L33.4583 21.0417L28.875 28.9583L23.9583 26.875C23.6528 27.0972 23.3333 27.3056 23 27.5C22.6667 27.6944 22.3333 27.8611 22 28L21.3333 33.3333H12.1667ZM16.8333 22.5C18.4444 22.5 19.8194 21.9306 20.9583 20.7917C22.0972 19.6528 22.6667 18.2778 22.6667 16.6667C22.6667 15.0556 22.0972 13.6806 20.9583 12.5417C19.8194 11.4028 18.4444 10.8333 16.8333 10.8333C15.1944 10.8333 13.8122 11.4028 12.6867 12.5417C11.5622 13.6806 11 15.0556 11 16.6667C11 18.2778 11.5622 19.6528 12.6867 20.7917C13.8122 21.9306 15.1944 22.5 16.8333 22.5ZM16.8333 19.1667C16.1389 19.1667 15.5489 18.9233 15.0633 18.4367C14.5767 17.9511 14.3333 17.3611 14.3333 16.6667C14.3333 15.9722 14.5767 15.3822 15.0633 14.8967C15.5489 14.41 16.1389 14.1667 16.8333 14.1667C17.5278 14.1667 18.1183 14.41 18.605 14.8967C19.0906 15.3822 19.3333 15.9722 19.3333 16.6667C19.3333 17.3611 19.0906 17.9511 18.605 18.4367C18.1183 18.9233 17.5278 19.1667 16.8333 19.1667ZM15.0833 30H18.375L18.9583 25.5833C19.8194 25.3611 20.6183 25.0344 21.355 24.6033C22.0906 24.1733 22.7639 23.6528 23.375 23.0417L27.5 24.75L29.125 21.9167L25.5417 19.2083C25.6806 18.8194 25.7778 18.4094 25.8333 17.9783C25.8889 17.5483 25.9167 17.1111 25.9167 16.6667C25.9167 16.2222 25.8889 15.7844 25.8333 15.3533C25.7778 14.9233 25.6806 14.5139 25.5417 14.125L29.125 11.4167L27.5 8.58333L23.375 10.3333C22.7639 9.69444 22.0906 9.15944 21.355 8.72833C20.6183 8.29833 19.8194 7.97222 18.9583 7.75L18.4167 3.33333H15.125L14.5417 7.75C13.6806 7.97222 12.8822 8.29833 12.1467 8.72833C11.41 9.15944 10.7361 9.68056 10.125 10.2917L6 8.58333L4.375 11.4167L7.95833 14.0833C7.81944 14.5 7.72222 14.9167 7.66667 15.3333C7.61111 15.75 7.58333 16.1944 7.58333 16.6667C7.58333 17.1111 7.61111 17.5417 7.66667 17.9583C7.72222 18.375 7.81944 18.7917 7.95833 19.2083L4.375 21.9167L6 24.75L10.125 23C10.7361 23.6389 11.41 24.1733 12.1467 24.6033C12.8822 25.0344 13.6806 25.3611 14.5417 25.5833L15.0833 30Z" fill="white"/>
</svg>
