<svg width="25" height="25" viewBox="0 0 25 25" fill="none" xmlns="http://www.w3.org/2000/svg">
<path d="M12.4964 1.23021e-05C15.3885 -0.000814392 18.1914 1.00124 20.4275 2.83542C22.6636 4.66961 24.1945 7.22241 24.7593 10.0588C25.3241 12.8953 24.8879 15.8398 23.525 18.3906C22.1621 20.9414 19.9568 22.9408 17.285 24.0479C14.6132 25.155 11.6402 25.3014 8.87252 24.4621C6.10487 23.6228 3.71389 21.8498 2.107 19.4452C0.500108 17.0405 -0.223247 14.1531 0.0601966 11.2749C0.34364 8.39675 1.61634 5.7059 3.66143 3.66093C4.82005 2.49844 6.19711 1.57653 7.71337 0.948249C9.22962 0.319965 10.8552 -0.00229495 12.4964 1.23021e-05ZM13.1188 15.4206L10.1697 14.064C9.85782 14.4269 9.44476 14.6884 8.98339 14.8151C8.52202 14.9418 8.03334 14.928 7.57988 14.7753C7.12642 14.6227 6.72881 14.3383 6.43795 13.9584C6.14708 13.5785 5.97619 13.1204 5.94714 12.6429C5.91809 12.1653 6.03221 11.6899 6.27488 11.2776C6.51756 10.8652 6.87775 10.5347 7.30937 10.3282C7.74099 10.1218 8.2244 10.0488 8.69772 10.1187C9.17105 10.1885 9.61276 10.398 9.96633 10.7204L13.0984 9.41263C13.0798 9.28807 13.0703 9.16232 13.07 9.03637C13.07 8.40179 13.3211 7.79299 13.7684 7.34294C14.2158 6.89289 14.8231 6.63817 15.4577 6.6344C15.8444 6.63305 16.2258 6.72503 16.5694 6.90254C16.913 7.08004 17.2088 7.33782 17.4315 7.65401C17.6542 7.97019 17.7973 8.33545 17.8487 8.71877C17.9002 9.10208 17.8583 9.49215 17.7268 9.85585C17.5953 10.2196 17.378 10.5462 17.0933 10.808C16.8086 11.0697 16.465 11.259 16.0916 11.3596C15.7181 11.4602 15.3259 11.4693 14.9483 11.386C14.5706 11.3027 14.2186 11.1295 13.9221 10.8811L10.7311 12.2031C10.7419 12.2953 10.748 12.3868 10.7494 12.4776L14.0666 14.0132C14.505 13.7052 15.0342 13.5533 15.5692 13.5819C16.1042 13.6106 16.6142 13.818 17.0173 14.171C17.4203 14.5241 17.6932 15.0022 17.7921 15.5288C17.891 16.0554 17.8102 16.6 17.5627 17.0752C17.3152 17.5504 16.9153 17.9287 16.4271 18.1496C15.9389 18.3704 15.3907 18.4209 14.8704 18.293C14.3501 18.1651 13.8878 17.8661 13.5576 17.4441C13.2275 17.0221 13.0486 16.5015 13.0496 15.9657C13.0503 15.7822 13.0714 15.5994 13.1127 15.4206H13.1188ZM19.9098 5.08462C18.1943 3.37045 15.9375 2.30414 13.5239 2.06737C11.1103 1.8306 8.68935 2.43802 6.67343 3.78614C4.65752 5.13425 3.1714 7.13965 2.4683 9.46064C1.7652 11.7816 1.88861 14.2746 2.81752 16.5148C3.74643 18.755 5.42335 20.6038 7.56256 21.7462C9.70177 22.8886 12.1709 23.254 14.5493 22.78C16.9277 22.306 19.0681 21.022 20.6059 19.1467C22.1437 17.2715 22.9838 14.9211 22.9829 12.4959C22.9842 11.119 22.7133 9.75548 22.186 8.48359C21.6586 7.21171 20.885 6.05659 19.9098 5.08462Z" fill="white"/>
</svg>
