<svg width="30" height="30" viewBox="0 0 30 30" fill="none" xmlns="http://www.w3.org/2000/svg">
<path d="M2.41231 18.9486C2.43926 12.9788 2.46446 7.01137 2.492 1.06497C2.492 0.669141 2.71231 0.338786 3.00235 0.261276V0.259771C4.69747 -0.193997 7.35294 -0.078862 9.1588 0.808357C10.4063 1.42241 11.5383 2.40144 12.3645 3.81166C13.2 2.49626 14.3145 1.54959 15.569 0.937791C17.2828 0.103247 19.8616 -0.0984275 21.7213 0.251494C22.0424 0.310943 22.2721 0.664626 22.2721 1.06873H22.2733V7.3357C21.8801 7.26606 21.4837 7.23111 21.0868 7.2311L20.9848 7.23186V1.80168C19.4959 1.61957 17.3619 1.82952 16.0207 2.48196C14.7674 3.09225 13.6875 4.09536 12.9856 5.53267V14.4636C12.2385 17.0417 12.2385 19.9479 13.0922 22.5893C13.2739 23.1514 13.4901 23.6909 13.7373 24.2019C13.3899 24.3516 13.0436 24.5247 12.6967 24.7219C12.5883 24.8135 12.4608 24.8609 12.3311 24.8581C12.2004 24.8611 12.0733 24.8129 11.9655 24.7219C10.2381 23.7414 8.51662 23.3531 6.79513 23.3674C5.02911 23.3817 2.64727 23.8196 0.851955 24.4811C0.787501 24.5097 0.717189 24.5247 0.643946 24.5247C0.288282 24.5247 0 24.1545 0 23.6985V4.65297C0 4.1962 0.288282 3.82596 0.643946 3.82596H1.28848V22.6156C2.91446 22.0768 5.14571 21.7321 6.79044 21.7193C8.30861 21.7081 9.82736 21.9782 11.3479 22.6397C10.4016 21.6561 9.34748 20.9345 8.22365 20.4649C6.80743 19.8704 4.67462 19.6732 3.10723 19.8463C2.75274 19.8824 2.44161 19.5461 2.41231 19.0908C2.40997 19.0419 2.40997 18.9945 2.41231 18.9486ZM21.2719 9.34568C23.1862 9.34568 25.0143 10.3194 26.3655 12.0563C28.2352 14.456 28.9301 17.9936 28.1778 21.243C28.0048 21.9891 27.7586 22.7039 27.4454 23.3704L29.9098 26.8553C30.0376 27.0359 30.0288 27.3158 29.8887 27.4814L27.8397 29.8834C27.8065 29.9228 27.7675 29.9534 27.7251 29.9733C27.6826 29.9932 27.6375 30.0022 27.5923 29.9996C27.5471 29.997 27.5028 29.9829 27.4619 29.9582C27.421 29.9335 27.3843 29.8986 27.354 29.8556L25.0125 26.5069C23.8817 27.3911 22.5961 27.8516 21.2719 27.8516C19.3582 27.8516 17.5313 26.8801 16.1783 25.1418C15.5082 24.2824 14.9767 23.2615 14.6145 22.1377C13.4977 18.6837 14.1323 14.684 16.1783 12.0563C16.8405 11.2059 17.6332 10.5181 18.518 10.0493C19.367 9.59552 20.2975 9.34568 21.2719 9.34568ZM25.3366 13.3792C23.6965 11.2706 21.2098 10.6378 19.0729 11.7748C15.2385 13.8126 14.3573 20.1624 17.2061 23.8189C18.8502 25.9244 21.3323 26.561 23.4715 25.424C25.6219 24.2764 27.02 21.5892 27.02 18.5979C27.02 17.5963 26.8665 16.6421 26.587 15.7752C26.2965 14.879 25.8717 14.0648 25.3366 13.3792ZM23.3737 7.62542V3.82596H24.0176C24.3739 3.82596 24.6616 4.1962 24.6616 4.65297V8.22367C24.2461 7.98136 23.8149 7.78119 23.3737 7.62542ZM14.1405 11.7259C14.1049 11.5994 14.1039 11.4611 14.1377 11.3338C14.1715 11.2065 14.2379 11.0977 14.3262 11.0253C14.4955 10.8861 14.6766 10.7529 14.8664 10.6242C14.6039 10.9726 14.3619 11.3406 14.1405 11.7259ZM14.8324 7.45912C14.7289 7.54345 14.6036 7.57157 14.4839 7.53728C14.3643 7.50299 14.2601 7.40911 14.1944 7.27625C14.0573 6.99933 14.1217 6.63285 14.3367 6.45751C14.9953 5.92097 15.8391 5.45064 16.6893 5.09771C17.5946 4.72371 18.518 4.4799 19.2457 4.42722C19.5 4.40991 19.718 4.65975 19.7315 4.98634C19.745 5.31218 19.5504 5.59212 19.2967 5.60943C18.6451 5.65683 17.8049 5.88033 16.9711 6.22574C16.1948 6.54631 15.4272 6.97449 14.8324 7.45912ZM10.3852 15.6074C10.599 15.7857 10.6594 16.1537 10.5211 16.4269C10.3828 16.7 10.0963 16.7791 9.88361 16.6007C9.29474 16.1093 8.52072 15.6729 7.73205 15.3425C6.88361 14.9873 6.02579 14.7555 5.36544 14.7081C5.11173 14.6908 4.91661 14.4109 4.93067 14.085C4.94415 13.7592 5.16153 13.5086 5.41583 13.5267C6.15704 13.5793 7.09982 13.8314 8.0174 14.2145C8.87463 14.5742 9.72599 15.0558 10.3852 15.6074ZM10.336 11.0253C10.387 11.0671 10.4311 11.1214 10.4658 11.1851C10.5005 11.2488 10.5251 11.3206 10.5381 11.3965C10.5512 11.4724 10.5525 11.5508 10.5419 11.6274C10.5313 11.7039 10.5091 11.777 10.4766 11.8425C10.3401 12.1172 10.0547 12.1985 9.84025 12.0224C9.24904 11.5385 8.4797 11.1096 7.69806 10.7852C6.86134 10.4391 6.01818 10.2141 5.36544 10.1667C5.11173 10.1494 4.91661 9.87019 4.93067 9.54359C4.94415 9.21775 5.16153 8.96716 5.41583 8.98447C6.14532 9.03715 7.07286 9.28247 7.97931 9.65797C8.82951 10.0102 9.67443 10.4835 10.336 11.0253ZM10.3248 6.45751C10.3761 6.49918 10.4205 6.55344 10.4554 6.61718C10.4903 6.68091 10.5151 6.75287 10.5283 6.82893C10.5416 6.90499 10.543 6.98365 10.5325 7.06042C10.522 7.13718 10.4998 7.21052 10.4672 7.27625C10.3307 7.55318 10.0453 7.63445 9.8297 7.45912C9.23439 6.97449 8.46681 6.54631 7.69103 6.22574C6.85724 5.88033 6.017 5.65683 5.36544 5.60943C5.11173 5.59212 4.91661 5.31218 4.93067 4.98634C4.94415 4.65975 5.16153 4.40991 5.41583 4.42722C6.14415 4.4799 7.06759 4.72371 7.97228 5.09771C8.82306 5.45064 9.66681 5.92097 10.3248 6.45751ZM11.6977 20.9059V5.50859C11.0221 3.98098 9.93283 2.95906 8.70002 2.35328C7.30548 1.66698 5.1381 1.51121 3.77169 1.7618L3.69903 18.1449C5.18966 18.0756 7.24806 18.3195 8.62091 18.8936C9.71369 19.3519 10.7485 20.0194 11.6977 20.9059Z" fill="#4455D7"/>
</svg>
