<svg width="20" height="20" viewBox="0 0 20 20" fill="none" xmlns="http://www.w3.org/2000/svg">
<path d="M17.6596 1.35593H14.3277V0.508475C14.3277 0.375936 14.2628 0.248617 14.1468 0.153641C14.0307 0.058661 13.8727 0.00353559 13.7064 0H6.12339C5.95412 0 5.79177 0.0535729 5.67207 0.148929C5.55237 0.244285 5.48509 0.37362 5.48509 0.508475V1.35593H2.34041C1.72007 1.35683 1.12539 1.55354 0.68675 1.90299C0.248064 2.25244 0.00112341 2.72614 0 3.22034V18.1356C0.00112341 18.6298 0.248064 19.1035 0.68675 19.4529C1.12539 19.8024 1.72007 19.9991 2.34041 20H17.6596C18.28 19.9991 18.8746 19.8024 19.3133 19.4529C19.752 19.1035 19.9989 18.6298 20 18.1356V3.22034C19.9989 2.72614 19.752 2.25244 19.3133 1.90299C18.8746 1.55354 18.28 1.35683 17.6596 1.35593ZM6.76169 1.01695H13.0511V2.71186H6.76169V1.01695ZM18.7234 18.1356C18.7234 18.3603 18.6113 18.5759 18.4118 18.7348C18.2123 18.8938 17.9417 18.9831 17.6596 18.9831H2.34041C2.05828 18.9831 1.78769 18.8938 1.5882 18.7348C1.38866 18.5759 1.27658 18.3603 1.27658 18.1356V3.22034C1.27658 2.99559 1.38866 2.78003 1.5882 2.62108C1.78769 2.46217 2.05828 2.37288 2.34041 2.37288H5.48509V3.22034C5.48509 3.35519 5.55237 3.48454 5.67207 3.5799C5.79177 3.67525 5.95412 3.72881 6.12339 3.72881H13.7064C13.8757 3.72881 14.038 3.67525 14.1577 3.5799C14.2774 3.48454 14.3447 3.35519 14.3447 3.22034V2.37288H17.6766C17.9588 2.37288 18.2294 2.46217 18.4289 2.62108C18.6283 2.78003 18.7404 2.99559 18.7404 3.22034L18.7234 18.1356Z" fill="#171560"/>
<path d="M15.1958 5.84747H4.55749C4.38821 5.84747 4.22583 5.90103 4.10613 5.99639C3.98642 6.09174 3.91919 6.2211 3.91919 6.35595C3.91919 6.4908 3.98642 6.62015 4.10613 6.71551C4.22583 6.81086 4.38821 6.86442 4.55749 6.86442H15.1958C15.3651 6.86442 15.5275 6.81086 15.6472 6.71551C15.7669 6.62015 15.8341 6.4908 15.8341 6.35595C15.8341 6.2211 15.7669 6.09174 15.6472 5.99639C15.5275 5.90103 15.3651 5.84747 15.1958 5.84747Z" fill="#171560"/>
<path d="M15.1958 9.21014H4.55749C4.38821 9.21014 4.22583 9.26374 4.10613 9.35909C3.98642 9.45445 3.91919 9.58377 3.91919 9.71862C3.91919 9.85347 3.98642 9.98282 4.10613 10.0782C4.22583 10.1735 4.38821 10.2271 4.55749 10.2271H15.1958C15.3651 10.2271 15.5275 10.1735 15.6472 10.0782C15.7669 9.98282 15.8341 9.85347 15.8341 9.71862C15.8341 9.58377 15.7669 9.45445 15.6472 9.35909C15.5275 9.26374 15.3651 9.21014 15.1958 9.21014Z" fill="#171560"/>
<path d="M15.1958 12.5695H4.55749C4.38821 12.5695 4.22583 12.6231 4.10613 12.7184C3.98642 12.8138 3.91919 12.9431 3.91919 13.078C3.91919 13.2128 3.98642 13.3422 4.10613 13.4375C4.22583 13.5329 4.38821 13.5865 4.55749 13.5865H15.1958C15.3651 13.5865 15.5275 13.5329 15.6472 13.4375C15.7669 13.3422 15.8341 13.2128 15.8341 13.078C15.8341 12.9431 15.7669 12.8138 15.6472 12.7184C15.5275 12.6231 15.3651 12.5695 15.1958 12.5695Z" fill="#171560"/>
<path d="M15.1958 15.9322H4.55749C4.38821 15.9322 4.22583 15.9857 4.10613 16.0811C3.98642 16.1765 3.91919 16.3058 3.91919 16.4407C3.91919 16.5755 3.98642 16.7049 4.10613 16.8002C4.22583 16.8956 4.38821 16.9491 4.55749 16.9491H15.1958C15.3651 16.9491 15.5275 16.8956 15.6472 16.8002C15.7669 16.7049 15.8341 16.5755 15.8341 16.4407C15.8341 16.3058 15.7669 16.1765 15.6472 16.0811C15.5275 15.9857 15.3651 15.9322 15.1958 15.9322Z" fill="#171560"/>
</svg>
