<svg width="20" height="20" viewBox="0 0 20 20" fill="none" xmlns="http://www.w3.org/2000/svg">
<path fill-rule="evenodd" clip-rule="evenodd" d="M1.35417 0H18.6458C19.0047 0.000879502 19.3487 0.147135 19.6024 0.406779C19.8562 0.666422 19.9991 1.01832 20 1.38551V18.6145C19.9987 18.9815 19.8556 19.3332 19.602 19.5927C19.3483 19.8523 19.0046 19.9987 18.6458 20H1.35417C0.995284 19.9991 0.651345 19.8529 0.397576 19.5932C0.143806 19.3336 0.000859604 18.9817 0 18.6145L0 1.38551C0.000859604 1.01832 0.143806 0.666422 0.397576 0.406779C0.651345 0.147135 0.995284 0.000879502 1.35417 0ZM16.3802 16.0067C16.4902 15.9998 16.5935 15.9502 16.6691 15.868C16.7446 15.7858 16.7866 15.6773 16.7866 15.5645C16.7866 15.4517 16.7446 15.3432 16.6691 15.2611C16.5935 15.1789 16.4902 15.1293 16.3802 15.1224H6.9694C6.85938 15.1293 6.75607 15.1789 6.68056 15.2611C6.60504 15.3432 6.56299 15.4517 6.56299 15.5645C6.56299 15.6773 6.60504 15.7858 6.68056 15.868C6.75607 15.9502 6.85938 15.9998 6.9694 16.0067H16.3802ZM16.3802 12.04C16.4902 12.0331 16.5935 11.9835 16.6691 11.9013C16.7446 11.8192 16.7866 11.7106 16.7866 11.5978C16.7866 11.4851 16.7446 11.3765 16.6691 11.2944C16.5935 11.2122 16.4902 11.1626 16.3802 11.1557H6.9694C6.85938 11.1626 6.75607 11.2122 6.68056 11.2944C6.60504 11.3765 6.56299 11.4851 6.56299 11.5978C6.56299 11.7106 6.60504 11.8192 6.68056 11.9013C6.75607 11.9835 6.85938 12.0331 6.9694 12.04H16.3802ZM3.25521 11.8235C3.19667 11.7309 3.17608 11.6186 3.19786 11.5106C3.21965 11.4027 3.28208 11.3078 3.37166 11.2466C3.46123 11.1853 3.57076 11.1626 3.67658 11.1833C3.7824 11.204 3.876 11.2665 3.93717 11.3572L4.15853 11.607L4.9349 10.6078C5.00592 10.5294 5.10351 10.4817 5.20774 10.4744C5.31197 10.4672 5.41499 10.5008 5.49578 10.5686C5.57656 10.6364 5.62902 10.7332 5.64245 10.8392C5.65588 10.9452 5.62926 11.0524 5.56803 11.1391L4.45638 12.5112C4.42873 12.5478 4.3958 12.5798 4.35872 12.6062C4.26845 12.6678 4.15798 12.6903 4.05151 12.6688C3.94504 12.6472 3.85125 12.5834 3.79069 12.4913L3.25521 11.8235ZM4.86654 14.5495C4.90009 14.5152 4.93993 14.488 4.98377 14.4694C5.02762 14.4508 5.07461 14.4412 5.12207 14.4412C5.16953 14.4412 5.21652 14.4508 5.26037 14.4694C5.30421 14.488 5.34405 14.5152 5.3776 14.5495C5.4454 14.6202 5.48338 14.7153 5.48338 14.8143C5.48338 14.9134 5.4454 15.0084 5.3776 15.0791L4.9349 15.542L5.3776 16.005C5.44509 16.0748 5.48294 16.1691 5.48294 16.2673C5.48294 16.3655 5.44509 16.4597 5.3776 16.5296C5.3443 16.564 5.30464 16.5914 5.26091 16.6101C5.21719 16.6288 5.17027 16.6384 5.12288 16.6384C5.0755 16.6384 5.02858 16.6288 4.98486 16.6101C4.94113 16.5914 4.90147 16.564 4.86816 16.5296L4.42871 16.0699L3.986 16.5329C3.95256 16.5674 3.91276 16.5948 3.8689 16.6136C3.82504 16.6323 3.77799 16.6419 3.73047 16.6419C3.68295 16.6419 3.6359 16.6323 3.59204 16.6136C3.54818 16.5948 3.50838 16.5674 3.47494 16.5329C3.40714 16.4622 3.36916 16.3671 3.36916 16.2681C3.36916 16.1691 3.40714 16.074 3.47494 16.0033L3.91927 15.5404L3.47494 15.0774C3.40705 15.0078 3.36893 14.9135 3.36893 14.8152C3.36893 14.7168 3.40705 14.6225 3.47494 14.5529C3.50799 14.5182 3.54748 14.4907 3.59108 14.4719C3.63469 14.4531 3.68152 14.4434 3.72884 14.4434C3.77616 14.4434 3.823 14.4531 3.8666 14.4719C3.91021 14.4907 3.9497 14.5182 3.98275 14.5529L4.42383 15.0108L4.86491 14.5495H4.86654ZM5.34017 7.05579H4.28874V7.46545H5.5778V8.3264H3.2373V4.96087H5.55176L5.41992 5.82848H4.28874V6.28143H5.34017V7.06078V7.05579ZM7.15169 4.96087L7.51465 5.86012H7.56836L7.93132 4.96087H9.07064L8.33984 6.58618L9.07227 8.3264H7.90527L7.50977 7.3572H7.46257L7.07357 8.3264H5.95866L6.67318 6.61782L5.95866 4.95254L7.15169 4.96087ZM10.3158 8.3264H9.20573L10.057 4.96253H11.6846L12.5326 8.3264H11.4258L11.3525 7.79351H10.389L10.3158 8.3264ZM10.7422 5.995L10.5794 6.93589H11.1589L10.9961 5.995H10.7422ZM13.859 8.3264H12.7604L12.9606 4.96253H14.3327L14.7428 6.67444H14.7803L15.1904 4.96253H16.5625L16.7643 8.3264H15.6641L15.6006 6.69609H15.5632L15.1644 8.3264H14.3506L13.9551 6.69442H13.9225L13.859 8.3264ZM19.2057 3.34721H0.861003V18.7494C0.860787 18.7997 0.870323 18.8496 0.889059 18.8962C0.907796 18.9428 0.935362 18.9851 0.970167 19.0207C1.00497 19.0563 1.04632 19.0845 1.09184 19.1037C1.13736 19.1229 1.18613 19.1326 1.23535 19.1324H18.8135C18.8627 19.1326 18.9115 19.1229 18.957 19.1037C19.0025 19.0845 19.0439 19.0563 19.0787 19.0207C19.1135 18.9851 19.141 18.9428 19.1598 18.8962C19.1785 18.8496 19.188 18.7997 19.1878 18.7494V3.34721H19.2057ZM17.3568 1.20233C17.4891 1.20233 17.6184 1.24247 17.7284 1.31768C17.8384 1.39288 17.9242 1.49978 17.9748 1.62484C18.0254 1.7499 18.0387 1.88752 18.0129 2.02029C17.9871 2.15305 17.9233 2.27501 17.8298 2.37073C17.7362 2.46645 17.617 2.53163 17.4873 2.55804C17.3575 2.58445 17.223 2.57089 17.1008 2.51909C16.9785 2.46729 16.8741 2.37956 16.8006 2.26701C16.7271 2.15446 16.6878 2.02213 16.6878 1.88676C16.6878 1.70524 16.7583 1.53115 16.8838 1.4028C17.0092 1.27444 17.1794 1.20233 17.3568 1.20233ZM12.8255 1.20233C12.9578 1.20233 13.0872 1.24247 13.1972 1.31768C13.3072 1.39288 13.3929 1.49978 13.4435 1.62484C13.4942 1.7499 13.5074 1.88752 13.4816 2.02029C13.4558 2.15305 13.3921 2.27501 13.2985 2.37073C13.205 2.46645 13.0858 2.53163 12.956 2.55804C12.8263 2.58445 12.6918 2.57089 12.5695 2.51909C12.4473 2.46729 12.3428 2.37956 12.2693 2.26701C12.1958 2.15446 12.1566 2.02213 12.1566 1.88676C12.1566 1.70524 12.2271 1.53115 12.3525 1.4028C12.478 1.27444 12.6481 1.20233 12.8255 1.20233ZM15.0911 1.20233C15.2235 1.20233 15.3528 1.24247 15.4628 1.31768C15.5728 1.39288 15.6585 1.49978 15.7092 1.62484C15.7598 1.7499 15.7731 1.88752 15.7472 2.02029C15.7214 2.15305 15.6577 2.27501 15.5642 2.37073C15.4706 2.46645 15.3514 2.53163 15.2217 2.55804C15.0919 2.58445 14.9574 2.57089 14.8352 2.51909C14.7129 2.46729 14.6084 2.37956 14.5349 2.26701C14.4614 2.15446 14.4222 2.02213 14.4222 1.88676C14.4222 1.70524 14.4927 1.53115 14.6181 1.4028C14.7436 1.27444 14.9137 1.20233 15.0911 1.20233Z" fill="#EDEDED"/>
</svg>
