<svg width="123" height="110" viewBox="0 0 123 110" fill="none" xmlns="http://www.w3.org/2000/svg">
<path d="M115.47 65.19C113.08 77.89 106.31 89.05 96.8 97.04C87.23 105.08 74.91 109.92 61.47 109.92C48.84 109.92 37.19 105.65 27.9 98.47C18.4 91.14 11.38 80.77 8.27 68.81L15.13 67.03C17.83 77.44 23.95 86.47 32.22 92.86C40.3 99.1 50.44 102.81 61.46 102.81C73.19 102.81 83.93 98.6 92.24 91.62C100.19 84.94 105.94 75.71 108.22 65.18H100.89L111.88 51.79L122.87 65.18H115.47V65.19ZM61.29 69.07V56.52C56.87 55.4 53.64 53.71 51.59 51.45C49.53 49.18 48.49 46.43 48.49 43.19C48.49 39.91 49.66 37.15 51.99 34.93C54.32 32.7 57.42 31.42 61.29 31.08V28.13H66.23V31.08C69.85 31.46 72.72 32.55 74.87 34.34C77 36.13 78.37 38.53 78.96 41.53L70.33 42.51C69.8 40.15 68.43 38.55 66.23 37.71V49.42C71.69 50.71 75.41 52.4 77.38 54.46C79.36 56.53 80.35 59.18 80.35 62.42C80.35 66.04 79.11 69.08 76.62 71.56C74.13 74.04 70.67 75.58 66.23 76.19V81.79H61.29V76.26C57.39 75.84 54.23 74.57 51.78 72.43C49.33 70.29 47.78 67.26 47.1 63.35L55.93 62.43C56.29 64.03 56.97 65.4 57.97 66.56C58.97 67.72 60.07 68.55 61.29 69.07ZM61.29 37.6C59.96 38.02 58.91 38.71 58.14 39.67C57.36 40.63 56.98 41.69 56.98 42.85C56.98 43.91 57.33 44.89 58.04 45.8C58.75 46.7 59.84 47.44 61.3 47.99V37.6H61.29ZM66.23 69.57C67.93 69.24 69.33 68.52 70.39 67.42C71.47 66.31 72 65.01 72 63.5C72 62.17 71.55 61.01 70.64 60.05C69.75 59.08 68.28 58.34 66.22 57.82V69.57H66.23ZM7.46 44.74C9.83 32.15 16.5 21.08 25.87 13.1C35.47 4.93 47.9 0 61.46 0C73.39 0 84.43 3.8 93.44 10.26C102.69 16.89 109.79 26.32 113.52 37.32L110.16 38.46L106.8 39.6C106.71 39.32 106.61 39.04 106.51 38.77C103.2 29.56 97.13 21.66 89.31 16.05C81.47 10.43 71.86 7.12 61.47 7.12C49.63 7.12 38.8 11.4 30.46 18.5C22.62 25.17 16.97 34.32 14.7 44.74H21.99L10.99 58.13L0 44.74H7.46Z" fill="white"/>
</svg>
