<svg width="25" height="25" viewBox="0 0 25 25" fill="none" xmlns="http://www.w3.org/2000/svg">
<path d="M13.9319 23.0164C14.6461 22.9235 15.2103 23.6084 14.9683 24.2741C14.8418 24.6116 14.548 24.8485 14.1834 24.8959C13.3445 25.0018 12.497 25.027 11.653 24.9711C8.53944 24.7655 5.73811 23.4423 3.66289 21.4069C1.39992 19.1874 0 16.1209 0 12.7344C0 9.34752 1.39992 6.28151 3.66289 4.06198C5.92586 1.84246 9.0519 0.46942 12.5051 0.46942C13.7023 0.46942 14.8692 0.638424 15.9813 0.953476C16.8936 1.21167 17.7727 1.57173 18.6013 2.0266L18.3548 1.39357C18.1491 0.863112 18.4205 0.269643 18.9609 0.0674242C19.5017 -0.134306 20.1068 0.1319 20.313 0.662358L21.3548 3.33614C21.3941 3.43787 21.417 3.54499 21.4226 3.65364C21.5042 4.15186 21.1999 4.64568 20.694 4.79613L17.9036 5.63333C17.3513 5.79745 16.7681 5.49168 16.6008 4.95048C16.4335 4.40927 16.7452 3.83681 17.297 3.67269L17.5266 3.60381C16.8652 3.25272 16.1673 2.97236 15.4449 2.76759C14.5201 2.50578 13.534 2.3651 12.5051 2.3651C9.58577 2.3651 6.94231 3.52566 5.02944 5.40229C3.11607 7.27844 1.93279 9.87065 1.93279 12.7344C1.93279 15.5977 3.11607 18.19 5.02944 20.0666C6.76303 21.7669 9.09622 22.8796 11.6914 23.073C12.4334 23.1282 13.1969 23.1101 13.9319 23.0164ZM10.5908 7.74589C10.5908 7.22275 11.0235 6.79829 11.5574 6.79829C12.0908 6.79829 12.5235 7.22275 12.5235 7.74589V13.5155L16.55 15.2514C17.038 15.462 17.2592 16.0207 17.0445 16.4994C16.8299 16.9776 16.2601 17.195 15.7721 16.9845L11.2173 15.0209C10.8512 14.8856 10.5908 14.5393 10.5908 14.1334V7.74589ZM17.299 22.0033C16.5211 22.3936 16.6247 23.5126 17.4628 23.7583C17.7054 23.8257 17.9469 23.8052 18.173 23.6943C18.7965 23.3871 19.3951 23.0251 19.9564 22.6188C20.2303 22.4185 20.3727 22.1029 20.3434 21.7693C20.2687 21.0323 19.4131 20.6586 18.805 21.0962C18.3302 21.4401 17.8264 21.7436 17.299 22.0033ZM21.2413 18.6061C20.801 19.2499 21.2956 20.1154 22.0864 20.0812C22.3957 20.0651 22.6726 19.9166 22.8459 19.6626C23.2373 19.0931 23.5755 18.4967 23.8653 17.8715C24.1447 17.2541 23.7094 16.5624 23.0207 16.5336C22.6258 16.5209 22.2682 16.7373 22.1038 17.0905C21.8583 17.6204 21.573 18.1235 21.2413 18.6061ZM23.0172 13.7451C22.9823 14.1173 23.1666 14.466 23.4948 14.655C24.1103 14.9979 24.8693 14.614 24.9415 13.9238C25.0078 13.239 25.0182 12.561 24.9704 11.8748C24.9465 11.5451 24.7523 11.2544 24.4535 11.1006C23.7831 10.7596 22.9888 11.2696 23.0421 12.0076C23.0829 12.5899 23.0735 13.1638 23.0172 13.7451ZM22.2164 8.64659C22.433 9.13651 23.0142 9.3568 23.5087 9.13309C23.9853 8.91817 24.199 8.37062 23.9923 7.89779C23.7184 7.26818 23.3887 6.66299 23.0117 6.08662C22.5381 5.3725 21.4236 5.58058 21.2512 6.41632C21.2039 6.66201 21.2487 6.90184 21.3867 7.11334C21.7064 7.60277 21.9843 8.11174 22.2164 8.64659Z" fill="white"/>
</svg>
