<svg width="30" height="30" viewBox="0 0 30 30" fill="none" xmlns="http://www.w3.org/2000/svg">
<path d="M13.1502 13.9183C13.0752 13.9229 12.9999 13.9145 12.929 13.8935C12.858 13.8726 12.793 13.8396 12.7379 13.7967C12.6828 13.7537 12.6389 13.7017 12.6088 13.6438C12.5788 13.586 12.5633 13.5235 12.5633 13.4604C12.5633 13.3973 12.5788 13.3349 12.6088 13.2771C12.6389 13.2192 12.6828 13.1672 12.7379 13.1242C12.793 13.0813 12.858 13.0483 12.929 13.0274C12.9999 13.0064 13.0752 12.998 13.1502 13.0026H15.2483C15.3233 12.998 15.3987 13.0064 15.4696 13.0274C15.5406 13.0483 15.6056 13.0813 15.6607 13.1242C15.7158 13.1672 15.7597 13.2192 15.7897 13.2771C15.8198 13.3349 15.8353 13.3973 15.8353 13.4604C15.8353 13.5235 15.8198 13.586 15.7897 13.6438C15.7597 13.7017 15.7158 13.7537 15.6607 13.7967C15.6056 13.8396 15.5406 13.8726 15.4696 13.8935C15.3987 13.9145 15.3233 13.9229 15.2483 13.9183H13.1502ZM14.3841 6.04591C14.3841 5.19616 14.419 4.47827 15.6906 4.217C15.6616 4.16408 15.6458 4.10675 15.6441 4.04851V3.90689H15.6237L15.8361 2.93016C15.9592 2.73021 16.1391 2.55877 16.3598 2.431C16.5806 2.30324 16.8355 2.22308 17.102 2.19762C17.0988 2.17737 17.0988 2.15684 17.102 2.13658V1.59694C17.0993 1.56605 17.0993 1.53504 17.102 1.50415C17.393 0.00244174 19.1564 0.0219762 20.594 0.0390689H20.9694L22.6222 0H22.6717C24.0801 0.0561615 24.9997 0.520104 26.0473 1.0573C26.7864 1.44555 28.9864 1.70926 29.5218 2.34657C29.829 2.71277 29.9955 3.14898 29.9991 3.59678V8.27771C30.0085 8.49896 29.9471 8.71827 29.8212 8.91282C29.6953 9.10737 29.5095 9.27003 29.2832 9.38385C28.8991 9.60361 26.8388 9.74524 26.1608 9.81849C24.5065 10.7326 22.7895 11.5643 21.0188 12.3091C20.6519 12.4663 20.2599 12.5782 19.8548 12.6412V13.3469H25.0055C25.1124 13.3467 25.2169 13.373 25.306 13.4225C25.3951 13.472 25.4647 13.5426 25.506 13.6253L28.416 18.3502C28.462 18.4255 28.4831 18.5098 28.4771 18.5943L28.5179 29.5458C28.5171 29.6665 28.4594 29.782 28.3575 29.8671C28.2555 29.9522 28.1175 30 27.9737 30H0.544168C0.400348 30 0.262376 29.9522 0.160408 29.8671C0.0584402 29.782 0.000769088 29.6665 0 29.5458L0 18.5577V18.5431L3.04676 13.5911C3.09253 13.5174 3.16149 13.4557 3.24615 13.4127C3.33081 13.3696 3.42791 13.3469 3.5269 13.3469H8.56409V9.01514C8.56332 8.94056 8.58025 8.86661 8.6139 8.79758C8.64755 8.72856 8.69725 8.66585 8.7601 8.61311C8.82294 8.56038 8.89768 8.51867 8.97994 8.49044C9.0622 8.4622 9.15034 8.44799 9.23921 8.44864H10.9852C10.9009 8.17333 10.899 7.8848 10.9797 7.60874C11.0605 7.33267 11.2213 7.07764 11.4479 6.86635C12.7487 5.60882 14.3579 6.41706 14.3782 6.05323L14.3841 6.04591ZM18.749 12.6388C17.1078 12.3677 16.3832 10.8807 17.7655 9.77698H13.5547C12.9226 9.79811 12.2982 9.65391 11.768 9.36432H9.65243V15.6935H18.7549V12.6363L18.749 12.6388ZM25.5788 9.12746C25.6433 9.08923 25.7185 9.06567 25.797 9.05909C26.379 8.99805 28.3491 8.89305 28.6255 8.73922C28.7174 8.69479 28.7931 8.63013 28.8444 8.55224C28.8957 8.47435 28.9206 8.38617 28.9165 8.29725V3.62608C28.9125 3.33646 28.8039 3.05467 28.6052 2.81784C28.2269 2.35146 26.0066 2.05112 25.4304 1.7581C23.1431 0.588475 23.181 0.883933 20.7511 0.844864C19.6861 0.844864 18.3707 0.820446 18.2078 1.63845V2.16588C18.4988 2.16588 18.8131 2.18541 19.107 2.19762C19.4009 2.20983 19.622 2.22692 19.8665 2.22692C19.9907 2.22692 20.1099 2.26834 20.1978 2.34207C20.2856 2.4158 20.335 2.51579 20.335 2.62006C20.335 2.72432 20.2856 2.82431 20.1978 2.89804C20.1099 2.97177 19.9907 3.01319 19.8665 3.01319C19.6191 3.01319 19.3398 2.99853 19.0459 2.98388C18.0419 2.93016 16.8954 2.86912 16.7499 3.53817V4.06316C16.7529 4.09159 16.7529 4.12019 16.7499 4.14862C17.1136 4.14862 17.4861 4.16328 17.8499 4.18281C18.1176 4.19746 18.3649 4.21211 18.6094 4.20967C18.7276 4.21748 18.838 4.26242 18.9185 4.33551C18.9991 4.40861 19.0438 4.50448 19.0438 4.60402C19.0438 4.70356 18.9991 4.79944 18.9185 4.87253C18.838 4.94562 18.7276 4.99056 18.6094 4.99837C18.3649 4.99837 18.0856 4.98372 17.7888 4.96907C16.7848 4.91535 15.6383 4.85431 15.4957 5.5258V6.05323C15.4954 6.08857 15.4905 6.12377 15.4811 6.15823H17.3086C17.3734 6.15394 17.4386 6.16096 17.5 6.17884C17.5615 6.19671 17.6179 6.22506 17.6656 6.2621C17.7134 6.29913 17.7515 6.34406 17.7775 6.39405C17.8036 6.44404 17.817 6.49802 17.817 6.55258C17.817 6.60714 17.8036 6.66112 17.7775 6.71111C17.7515 6.7611 17.7134 6.80603 17.6656 6.84306C17.6179 6.8801 17.5615 6.90845 17.5 6.92632C17.4386 6.9442 17.3734 6.95122 17.3086 6.94693H13.61C12.6264 6.94693 11.5235 7.47436 12.0503 8.34853L12.1172 8.4462V8.45841V8.47062V8.48283H12.1317V8.49504L12.1463 8.50724H12.1608H12.1783L12.1987 8.51945H12.219H12.2365H12.251L12.2947 8.54143H12.3092H12.3296H12.3529H12.3762H12.3995H12.4198H12.4373H12.4547H12.4722H12.4926H12.5159H12.542H12.5682H12.5944H12.6177H12.6439H13.0949H13.1124H13.1328H13.159H21.0072C21.6183 8.54143 21.6328 9.16653 21.0072 9.17142C20.6153 9.18272 20.2255 9.22523 19.8432 9.29839H19.8228H19.8083H19.7879H19.7705H19.7501H19.7297H19.7093H19.689H19.6715H19.6511H19.6308H19.6104H19.5755H19.558H19.5406H19.5202H19.5027H19.4853H19.4649H19.4474H19.43H19.4125H19.3951H19.3776H19.3601H19.3427H19.3252H19.3078H19.2903H19.2728H19.2554H19.2379H19.2205L19.1943 9.3106H19.1768H19.1623H19.1477L19.1215 9.32525C19.0124 9.39583 18.9146 9.4779 18.8305 9.56943C18.0419 10.827 18.0419 11.496 18.7549 11.7207H18.7927H18.8305H18.8684H18.9149H18.9411H18.9702H18.9993H19.0197H19.0604H19.0779H19.1244H19.4562H19.5929H19.6744H19.7355H19.7588H19.8228H19.8432L19.9625 11.7011C21.2691 11.474 22.8929 10.678 25.5788 9.07374V9.12746ZM8.56409 14.2552H3.85573L1.45499 18.1084H27.0629L24.6651 14.2601H19.8432V15.6935H21.045C21.1893 15.6935 21.3278 15.7416 21.4298 15.8272C21.5319 15.9128 21.5892 16.029 21.5892 16.1501C21.5892 16.2712 21.5319 16.3873 21.4298 16.473C21.3278 16.5586 21.1893 16.6067 21.045 16.6067H7.65909C7.51476 16.6067 7.37635 16.5586 7.2743 16.473C7.17225 16.3873 7.11492 16.2712 7.11492 16.1501C7.11492 16.029 7.17225 15.9128 7.2743 15.8272C7.37635 15.7416 7.51476 15.6935 7.65909 15.6935H8.57864V14.2601L8.56409 14.2552ZM1.08834 19.0217V29.0916H27.4324L27.3888 19.0217H1.08834ZM11.1191 11.7793C11.0441 11.7839 10.9687 11.7754 10.8978 11.7545C10.8268 11.7336 10.7618 11.7006 10.7067 11.6576C10.6516 11.6147 10.6077 11.5627 10.5777 11.5048C10.5476 11.447 10.5321 11.3845 10.5321 11.3214C10.5321 11.2583 10.5476 11.1959 10.5777 11.138C10.6077 11.0802 10.6516 11.0282 10.7067 10.9852C10.7618 10.9422 10.8268 10.9093 10.8978 10.8883C10.9687 10.8674 11.0441 10.859 11.1191 10.8636H15.2454C15.3204 10.859 15.3958 10.8674 15.4667 10.8883C15.5376 10.9093 15.6027 10.9422 15.6578 10.9852C15.7129 11.0282 15.7568 11.0802 15.7868 11.138C15.8169 11.1959 15.8324 11.2583 15.8324 11.3214C15.8324 11.3845 15.8169 11.447 15.7868 11.5048C15.7568 11.5627 15.7129 11.6147 15.6578 11.6576C15.6027 11.7006 15.5376 11.7336 15.4667 11.7545C15.3958 11.7754 15.3204 11.7839 15.2454 11.7793H11.1191Z" fill="#F78B05"/>
</svg>
