<svg width="20" height="20" viewBox="0 0 20 20" fill="none" xmlns="http://www.w3.org/2000/svg">
<path d="M10.254 1.30491C10.1678 1.30939 10.0817 1.29584 10.0008 1.26509C9.91985 1.23434 9.84588 1.18704 9.78335 1.12605C9.72081 1.06506 9.67102 0.991668 9.637 0.910324C9.60297 0.828981 9.58543 0.74139 9.58543 0.652874C9.58543 0.564358 9.60297 0.476766 9.637 0.395423C9.67102 0.31408 9.72081 0.240684 9.78335 0.179697C9.84588 0.118709 9.91985 0.0714037 10.0008 0.0406559C10.0817 0.00990806 10.1678 -0.0036401 10.254 0.000834915C12.0046 -0.0015009 13.7233 0.48199 15.2279 1.40009L15.1644 1.45519C14.8812 1.71734 14.5834 2.02291 14.2823 2.34851C13.0449 1.66267 11.6604 1.304 10.254 1.30491ZM7.80284 7.89042L9.48902 7.86705L9.61435 7.90044C9.95646 8.09935 10.2796 8.3308 10.5795 8.59172C10.7988 8.78211 11.006 8.9868 11.1996 9.20452C11.9572 8.00212 12.7771 6.8422 13.6557 5.72976C14.4027 4.80639 15.4623 3.50732 16.2907 2.74758L16.4535 2.68246H18.2943L17.9232 3.10491C16.7148 4.5314 15.5877 6.02833 14.5476 7.5882C13.6117 8.97576 12.2445 11.1247 11.5007 12.5975L11.2696 13.055L11.0564 12.5891C10.6791 11.7442 10.2019 10.9501 9.63551 10.2247C9.07023 9.50531 8.40633 8.8737 7.66449 8.3496L7.80284 7.88708V7.89042ZM6.53169 5.29396C6.48578 5.21989 6.45497 5.13705 6.44113 5.05044C6.42729 4.96382 6.43071 4.87522 6.45117 4.79C6.47164 4.70478 6.50873 4.62469 6.5602 4.55458C6.61168 4.48447 6.67647 4.42579 6.75066 4.38209C6.82486 4.33838 6.90692 4.31056 6.99189 4.30029C7.07686 4.29003 7.16297 4.29754 7.24503 4.32237C7.32709 4.3472 7.4034 4.38884 7.46934 4.44476C7.53528 4.50069 7.58949 4.56974 7.62869 4.64776L7.91352 5.14869C7.95498 5.22269 7.98183 5.30435 7.99253 5.389C8.00324 5.47365 7.99758 5.55964 7.9759 5.64205C7.95421 5.72446 7.91691 5.80168 7.86613 5.8693C7.81536 5.93692 7.75209 5.99362 7.67996 6.03616C7.60782 6.0787 7.52822 6.10625 7.44571 6.11723C7.36319 6.12821 7.27938 6.12241 7.19905 6.10016C7.11872 6.07791 7.04345 6.03964 6.97754 5.98755C6.91162 5.93546 6.85636 5.87056 6.81489 5.79655L6.53169 5.29562V5.29396ZM4.68112 7.83532C4.60899 7.79245 4.54578 7.73543 4.49513 7.6675C4.44448 7.59958 4.40736 7.52208 4.3859 7.43944C4.34255 7.27253 4.36561 7.0948 4.45 6.94534C4.53439 6.79588 4.6732 6.68693 4.83589 6.64247C4.91645 6.62045 5.00044 6.61493 5.08308 6.62621C5.16571 6.6375 5.24537 6.66537 5.31751 6.70824L5.80579 7.00044C5.95147 7.08702 6.05767 7.22942 6.10101 7.39633C6.14435 7.56323 6.12129 7.74096 6.0369 7.89042C5.95251 8.03988 5.81371 8.14883 5.65102 8.1933C5.48833 8.23776 5.31509 8.2141 5.1694 8.12753L4.68112 7.83532ZM5.57467 13.8264C5.50253 13.8689 5.42293 13.8965 5.34042 13.9075C5.25791 13.9184 5.17409 13.9126 5.09376 13.8904C5.01344 13.8681 4.93817 13.8299 4.87225 13.7778C4.80634 13.7257 4.75107 13.6608 4.7096 13.5868C4.66814 13.5128 4.64129 13.4311 4.63059 13.3465C4.61988 13.2618 4.62554 13.1758 4.64722 13.0934C4.69102 12.927 4.79748 12.7852 4.94316 12.6993L5.43144 12.4071C5.57713 12.3212 5.75011 12.2982 5.91234 12.3431C6.07458 12.388 6.21276 12.4973 6.2965 12.6467C6.38025 12.7962 6.40269 12.9736 6.35889 13.1401C6.31508 13.3065 6.20863 13.4483 6.06295 13.5342L5.57467 13.8264ZM4.21726 10.6539C4.04934 10.6539 3.8883 10.5854 3.76957 10.4636C3.65083 10.3418 3.58413 10.1766 3.58413 10.0043C3.58413 9.83206 3.65083 9.66685 3.76957 9.54504C3.8883 9.42323 4.04934 9.3548 4.21726 9.3548H4.78529C4.9532 9.3548 5.11424 9.42323 5.23298 9.54504C5.35172 9.66685 5.41842 9.83206 5.41842 10.0043C5.41842 10.1766 5.35172 10.3418 5.23298 10.4636C5.11424 10.5854 4.9532 10.6539 4.78529 10.6539H4.21726ZM10.6902 15.9971C10.6902 16.1693 10.6235 16.3346 10.5047 16.4564C10.386 16.5782 10.225 16.6466 10.0571 16.6466C9.88913 16.6466 9.7281 16.5782 9.60936 16.4564C9.49062 16.3346 9.42392 16.1693 9.42392 15.9971V15.4127C9.42392 15.2404 9.49062 15.0752 9.60936 14.9534C9.7281 14.8316 9.88913 14.7631 10.0571 14.7631C10.225 14.7631 10.386 14.8316 10.5047 14.9534C10.6235 15.0752 10.6902 15.2404 10.6902 15.4127V15.9971ZM9.42392 4.00824C9.42392 3.83598 9.49062 3.67077 9.60936 3.54895C9.7281 3.42714 9.88913 3.35871 10.0571 3.35871C10.225 3.35871 10.386 3.42714 10.5047 3.54895C10.6235 3.67077 10.6902 3.83598 10.6902 4.00824V4.59266C10.6902 4.67796 10.6738 4.76242 10.642 4.84122C10.6102 4.92003 10.5635 4.99163 10.5047 5.05195C10.446 5.11226 10.3762 5.16011 10.2993 5.19275C10.2225 5.22539 10.1402 5.24219 10.0571 5.24219C9.97391 5.24219 9.89158 5.22539 9.81476 5.19275C9.73795 5.16011 9.66815 5.11226 9.60936 5.05195C9.55057 4.99163 9.50393 4.92003 9.47211 4.84122C9.4403 4.76242 9.42392 4.67796 9.42392 4.59266V4.00824ZM7.68565 15.5145C7.60126 15.6638 7.46254 15.7725 7.3 15.8168C7.13747 15.8611 6.96443 15.8374 6.81896 15.7508C6.67349 15.6642 6.5675 15.5219 6.52431 15.3552C6.48112 15.1884 6.50427 15.0109 6.58866 14.8616L6.87186 14.3607C6.91343 14.2864 6.96887 14.2212 7.035 14.1688C7.10114 14.1165 7.17668 14.078 7.25731 14.0556C7.33794 14.0332 7.42208 14.0273 7.50493 14.0382C7.58778 14.0492 7.66772 14.0768 7.74018 14.1194C7.81263 14.1621 7.87619 14.219 7.92723 14.2868C7.97826 14.3547 8.01577 14.4322 8.03761 14.5149C8.05944 14.5976 8.06519 14.6839 8.05451 14.7689C8.04383 14.8539 8.01694 14.9359 7.97536 15.0103L7.69054 15.5112L7.68565 15.5145ZM13.7859 14.8616C13.8539 15.0087 13.8656 15.1767 13.8186 15.3322C13.7717 15.4877 13.6695 15.6195 13.5323 15.7014C13.3952 15.7833 13.233 15.8094 13.078 15.7744C12.923 15.7395 12.7865 15.6462 12.6954 15.5128L12.4105 15.0119C12.3264 14.8625 12.3035 14.6848 12.347 14.5181C12.3905 14.3513 12.4968 14.2091 12.6425 14.1228C12.7882 14.0364 12.9613 14.013 13.1239 14.0576C13.2864 14.1022 13.425 14.2113 13.5092 14.3607L13.794 14.8616H13.7859ZM15.4314 12.691C15.5711 12.7803 15.6716 12.9219 15.7115 13.0858C15.7514 13.2497 15.7277 13.4231 15.6453 13.5694C15.5629 13.7157 15.4283 13.8234 15.2699 13.8698C15.1116 13.9162 14.9419 13.8977 14.7966 13.818L14.3083 13.5258C14.1626 13.4393 14.0564 13.2969 14.0131 13.13C13.9697 12.9631 13.9928 12.7853 14.0772 12.6359C14.1616 12.4864 14.3004 12.3775 14.4631 12.333C14.6258 12.2885 14.799 12.3122 14.9447 12.3988L15.433 12.691H15.4314ZM16.2875 9.35146C16.4554 9.35146 16.6164 9.41989 16.7352 9.5417C16.8539 9.66351 16.9206 9.82872 16.9206 10.001C16.9206 10.1733 16.8539 10.3385 16.7352 10.4603C16.6164 10.5821 16.4554 10.6505 16.2875 10.6505H15.682C15.5141 10.6505 15.353 10.5821 15.2343 10.4603C15.1156 10.3385 15.0489 10.1733 15.0489 10.001C15.0489 9.82872 15.1156 9.66351 15.2343 9.5417C15.353 9.41989 15.5141 9.35146 15.682 9.35146H16.2875ZM2.6857 2.83942C2.76765 2.80809 2.85386 2.79006 2.94123 2.78598C3.13813 2.753 3.34 2.79461 3.5092 2.90306C3.6784 3.01151 3.80337 3.1794 3.86082 3.37541L4.53627 5.62791C4.57132 5.73528 4.58503 5.84877 4.57657 5.96167C4.56811 6.07457 4.53766 6.18458 4.48702 6.28519C4.43638 6.38581 4.36658 6.47497 4.28175 6.54742C4.19692 6.61986 4.09879 6.67412 3.99316 6.70696C3.88753 6.7398 3.77656 6.75058 3.6668 6.73864C3.55704 6.7267 3.45073 6.69229 3.35416 6.63745C3.2576 6.58261 3.17274 6.50845 3.1046 6.41937C3.03647 6.33028 2.98645 6.22808 2.9575 6.11881L2.85008 5.75982C1.85188 7.59254 1.53365 9.73386 1.95415 11.7885C2.37464 13.8431 3.50547 15.6723 5.13788 16.9384C6.77028 18.2045 8.79404 18.822 10.8356 18.6769C12.8771 18.5318 14.7985 17.6339 16.2451 16.149C17.5179 14.8435 18.3526 13.1564 18.6285 11.3319C18.9044 9.50731 18.6073 7.64001 17.78 6.00026C18.0632 5.62624 18.3529 5.25722 18.641 4.90657C19.4047 6.23049 19.8604 7.71734 19.9727 9.25144C20.0849 10.7855 19.8506 12.3255 19.288 13.7515C18.7254 15.1776 17.8497 16.4512 16.729 17.4734C15.6083 18.4956 14.2729 19.2387 12.8266 19.645C11.3802 20.0513 9.86204 20.1097 8.39009 19.8158C6.91815 19.5219 5.53216 18.8835 4.33994 17.9504C3.14772 17.0173 2.18142 15.8146 1.51623 14.4358C0.851044 13.057 0.504898 11.5394 0.504726 10.001C0.504903 8.24171 0.958005 6.51368 1.81819 4.99173L1.12158 5.26223C0.916327 5.34216 0.688526 5.33517 0.488293 5.2428C0.288061 5.15042 0.131799 4.98023 0.0538838 4.76965C-0.0240315 4.55908 -0.0172179 4.32538 0.0728256 4.11996C0.162869 3.91454 0.328767 3.75423 0.534023 3.67429L2.6857 2.83942Z" fill="#646463"/>
</svg>
