<svg width="20" height="20" viewBox="0 0 20 20" fill="none" xmlns="http://www.w3.org/2000/svg">
<path id="Vector" d="M1.78439 1.24148H3.69868V0.106506H4.61702V1.24148H7.47725V0.106506H8.39559V1.24148H11.2558V0.106506H12.1747V1.24148H15.0344V0.106506H15.9532V1.24148H17.8675C18.2191 1.24148 18.5395 1.34531 18.7728 1.51285C19.0057 1.67928 19.15 1.91017 19.15 2.16393V18.3553C19.15 18.609 19.0046 18.8396 18.7728 19.0064C18.54 19.1735 18.2181 19.2781 17.8675 19.2781H1.78439C1.43331 19.2781 1.11192 19.1739 0.879081 19.0064C0.647283 18.8396 0.501953 18.6094 0.501953 18.3553V2.16393C0.501953 1.91092 0.646241 1.6804 0.878039 1.51323L0.880122 1.5121C1.11192 1.34531 1.43227 1.24148 1.78439 1.24148ZM15.9585 16.3005H3.69347V15.6397H15.9585V16.3005ZM15.9585 13.6227H3.69347V12.9619H15.9585V13.6227ZM15.9585 10.945H3.69347V10.2842H15.9585V10.945ZM15.9585 8.26722H3.69347V7.60602H15.9585V8.26722ZM15.9585 5.58946H3.69347V4.92827H15.9585V5.58946ZM15.9532 1.9023V2.59648H15.0344V1.9023H12.1747V2.59648H11.2558V1.9023H8.39559V2.59648H7.47725V1.9023H4.61702V2.59648H3.69868V1.9023H1.78439C1.68386 1.9023 1.59271 1.93191 1.52655 1.97876C1.45871 2.02805 1.42054 2.09456 1.42029 2.16393V18.3553C1.42029 18.4261 1.46248 18.4913 1.52864 18.5389C1.59531 18.5869 1.68647 18.6169 1.78439 18.6169H17.8675C17.9655 18.6169 18.0566 18.5869 18.1233 18.5389C18.1894 18.4913 18.2316 18.4258 18.2316 18.3553V2.16393C18.2316 2.09271 18.19 2.02711 18.1238 1.97951C18.0905 1.95491 18.0506 1.9354 18.0066 1.92213C17.9626 1.90887 17.9153 1.90212 17.8675 1.9023H15.9532Z" fill="black"/>
</svg>
