<svg width="20" height="18" viewBox="0 0 20 18" fill="none" xmlns="http://www.w3.org/2000/svg">
<path fill-rule="evenodd" clip-rule="evenodd" d="M11.1898 13.7168C11.027 13.7168 10.8984 13.4801 10.8984 13.1903C10.8984 12.9004 11.0286 12.6637 11.1898 12.6637H17.0345C17.1973 12.6637 17.3242 12.9004 17.3242 13.1903C17.3242 13.4801 17.194 13.7168 17.0345 13.7168H11.1898ZM4.17643 0H15.8236C15.9639 0.00072412 16.0997 0.0671146 16.2082 0.187998C16.3167 0.308882 16.3912 0.476879 16.4193 0.663717H17.8499C18.4194 0.666048 18.965 0.974406 19.3678 1.52151C19.7706 2.06862 19.9979 2.81006 20 3.58407V15.0885C19.9977 15.8601 19.7706 16.5991 19.3685 17.1438C18.9668 17.6909 18.4218 17.9989 17.8532 18H2.15007C1.5812 17.9977 1.03606 17.6899 0.633351 17.1438C0.230646 16.5976 0.00300276 15.8573 0 15.0841L0 3.57965C0.000610956 3.19743 0.0567075 2.81914 0.165074 2.46645C0.273441 2.11376 0.431948 1.7936 0.63151 1.52434C0.83035 1.25181 1.0669 1.03547 1.32752 0.887764C1.58815 0.740058 1.8677 0.663914 2.15007 0.663717H3.58073C3.6085 0.476689 3.68297 0.308455 3.79153 0.187502C3.90009 0.0665486 4.03607 0.000309236 4.17643 0ZM16.4388 2.02876V2.13717C16.4384 2.35585 16.3743 2.56541 16.2605 2.72004C16.1468 2.87468 15.9926 2.96181 15.8317 2.96239H4.17643C4.01555 2.96181 3.86138 2.87468 3.74763 2.72004C3.63387 2.56541 3.56977 2.35585 3.56934 2.13717V2.02876H2.15007C1.99896 2.02758 1.84919 2.06726 1.70948 2.1455C1.56977 2.22375 1.4429 2.33899 1.33626 2.48451C1.2295 2.62965 1.14502 2.80218 1.08774 2.99208C1.03046 3.18198 1.00152 3.38547 1.0026 3.59071V15.0951C1.00474 15.505 1.12545 15.8972 1.33866 16.187C1.55186 16.4768 1.84042 16.6409 2.14193 16.6438H17.8418C17.9929 16.645 18.1427 16.6053 18.2824 16.5271C18.4221 16.4488 18.549 16.3336 18.6556 16.1881C18.7627 16.0431 18.8474 15.8707 18.905 15.6807C18.9626 15.4908 18.9918 15.2873 18.9909 15.0819V3.57743C18.9879 3.16795 18.8669 2.77638 18.6539 2.48682C18.4409 2.19725 18.1528 2.0328 17.8516 2.02876H16.4388ZM7.29329 10.6571C8.44564 12.0288 9.20085 10.0531 9.76562 13.2743C9.76481 13.3405 9.75422 13.4057 9.73448 13.4662C9.71475 13.5267 9.68627 13.5811 9.65073 13.6263C9.6152 13.6715 9.57335 13.7065 9.52766 13.7293C9.48197 13.7521 9.43337 13.7621 9.38477 13.7588H3.17708C3.12859 13.7615 3.08018 13.751 3.03469 13.728C2.98919 13.7051 2.94751 13.67 2.91207 13.6249C2.87664 13.5798 2.84814 13.5256 2.82826 13.4654C2.80837 13.4052 2.79748 13.3403 2.79622 13.2743C3.34635 10.1018 4.00879 12.0199 5.25391 10.677C5.31656 10.471 5.37089 10.2605 5.41667 10.0465C5.45736 9.87389 5.20508 9.53319 5.12044 9.34956L4.80632 8.66814C4.70562 8.48731 4.64365 8.27216 4.62728 8.04646C4.62484 7.97045 4.63543 7.89472 4.6582 7.82522C4.6831 7.75657 4.72068 7.69788 4.76725 7.65487C4.79098 7.6328 4.81669 7.61496 4.84375 7.60177C4.82112 7.19545 4.81569 6.7877 4.82747 6.38053C4.84049 6.28867 4.859 6.1984 4.88281 6.11062C4.94991 5.83773 5.06414 5.59067 5.21592 5.39013C5.3677 5.18958 5.55263 5.04139 5.75521 4.95796C5.95215 4.86726 5.87565 4.64602 6.08073 4.6615C6.54948 4.69469 7.27376 5.10398 7.54557 5.54646C7.9362 6.15708 7.83529 6.90929 7.82227 7.65708C7.86163 7.67035 7.89759 7.69796 7.92627 7.73695C7.95495 7.77593 7.97527 7.82481 7.98503 7.87832C8.00305 8.08028 7.97341 8.2848 7.90039 8.46239V8.47788L7.53092 9.29204C7.40477 9.60524 7.24821 9.89397 7.06543 10.1504C7.01172 10.2102 7.24935 10.6062 7.28516 10.6704L7.29329 10.6571ZM11.1995 7.3385C11.0368 7.3385 10.9082 7.10177 10.9082 6.81195C10.9082 6.52212 11.0384 6.2854 11.1995 6.2854H14.6826C14.8454 6.2854 14.974 6.52212 14.974 6.81195C14.974 7.10177 14.8438 7.3385 14.6826 7.3385H11.1995ZM11.1995 10.5177C11.0368 10.5177 10.9082 10.281 10.9082 9.99115C10.9082 9.70133 11.0384 9.4646 11.1995 9.4646H16.7334C16.8962 9.4646 17.0247 9.70133 17.0247 9.99115C17.0247 10.281 16.8945 10.5177 16.7334 10.5177H11.1995Z" fill="#646463"/>
</svg>
