<svg width="30" height="30" viewBox="0 0 30 30" fill="none" xmlns="http://www.w3.org/2000/svg">
<path d="M13.1307 28.4081C13.6183 28.4081 14.0166 28.7645 14.0166 29.204C14.0166 29.6435 13.6211 30 13.1307 30H2.05887C1.49268 30 0.977963 29.7925 0.604116 29.4555C0.230268 29.121 0 28.6596 0 28.1468V1.85562C0 1.34288 0.230268 0.881419 0.604116 0.544478C0.977963 0.207536 1.48997 0 2.05887 0H27.3342C27.9004 0 28.4151 0.209978 28.789 0.544478C29.1628 0.881419 29.3931 1.34288 29.3931 1.85562V15.0281C29.3931 15.4676 28.9976 15.824 28.5099 15.824C28.0223 15.824 27.6268 15.4676 27.6268 15.0281V1.85562C27.6268 1.78481 27.5943 1.71889 27.5401 1.6725C27.4859 1.62367 27.4128 1.59437 27.3369 1.59437H2.05887C1.98031 1.59437 1.90716 1.62367 1.85298 1.67006C1.80151 1.72133 1.769 1.78481 1.769 1.85562V28.1468C1.769 28.2176 1.80151 28.2836 1.85569 28.3299C1.90987 28.3788 1.98302 28.4081 2.06158 28.4081H13.1307ZM9.19448 14.1418C9.02652 13.8805 9.14843 13.1334 9.50873 12.8697C10.5382 12.3277 11.9577 12.4961 12.9492 11.8711C13.0061 11.793 13.0684 11.6806 13.1307 11.5561C13.2201 11.3706 13.3041 11.1679 13.3556 11.0287C13.1361 10.7943 12.9465 10.5306 12.7677 10.2718L12.1717 9.41727C11.955 9.12428 11.8412 8.8557 11.8331 8.63596C11.8304 8.53341 11.8493 8.43819 11.8927 8.35517C11.936 8.26727 12.0038 8.19647 12.0986 8.14031C12.1419 8.11345 12.1907 8.09148 12.2421 8.07439C12.2015 7.61048 12.188 7.02694 12.2151 6.53618C12.2286 6.42142 12.253 6.30422 12.2882 6.18703C12.4399 5.69626 12.8219 5.30072 13.296 5.02971C13.556 4.88077 13.8432 4.76601 14.1412 4.69032C14.3308 4.64149 13.9786 4.09701 14.1764 4.07748C15.1246 3.98958 16.6552 4.76845 17.3162 5.41304C17.6467 5.73533 17.8553 6.16505 17.9013 6.7315L17.8634 8.12566C18.0287 8.17205 18.1343 8.26483 18.1777 8.41865C18.2264 8.58957 18.1749 8.8264 18.0124 9.15358C18.0097 9.15846 18.007 9.16578 18.0016 9.17067L17.3216 10.1791C17.0724 10.5502 16.8177 10.9213 16.4872 11.2143C16.517 11.2534 16.5495 11.2924 16.5793 11.3315C16.7148 11.5097 16.8502 11.688 17.0236 11.8467C17.029 11.8516 17.0344 11.8589 17.0371 11.8638C17.8201 12.3618 19.7245 12.4839 20.456 12.8502L20.4858 12.8648C20.8623 13.1261 20.9788 13.8732 20.8054 14.1345H9.19448V14.1418ZM27.7108 19.2984C27.5672 19.1739 27.4019 19.1153 27.2123 19.1178C27.02 19.1202 26.8574 19.1886 26.7247 19.3155L25.6275 20.3459L28.7077 23.0268L29.8157 21.9867C29.9484 21.8646 30.0026 21.7083 29.9999 21.5374C29.9972 21.3689 29.9295 21.2127 29.794 21.0979L27.7108 19.2984ZM22.9022 28.3641C22.4959 28.4813 22.0895 28.601 21.6859 28.7206C21.2795 28.8427 20.8731 28.9648 20.4695 29.0868C19.5132 29.3701 18.9768 29.5263 18.863 29.5556C18.7547 29.5849 18.817 29.1821 19.0608 28.3373L19.822 25.693L24.6495 21.2542L27.727 23.9228L22.9022 28.3641ZM8.59849 23.2831C8.11086 23.2831 7.71264 22.9218 7.71264 22.475C7.71264 22.0282 8.10816 21.6668 8.59849 21.6668H14.6153C15.1029 21.6668 15.5011 22.0282 15.5011 22.475C15.5011 22.9218 15.1056 23.2831 14.6153 23.2831H8.59849ZM8.59849 18.2315C8.11086 18.2315 7.71534 17.875 7.71534 17.4331C7.71534 16.9936 8.11086 16.6371 8.59849 16.6371H20.5318C21.0194 16.6371 21.415 16.9936 21.415 17.4331C21.415 17.8725 21.0194 18.2315 20.5318 18.2315H8.59849Z" fill="#F78B05"/>
</svg>
