<svg width="30" height="30" viewBox="0 0 30 30" fill="none" xmlns="http://www.w3.org/2000/svg">
<path d="M14.9994 0C19.1408 0 22.892 1.6793 25.6061 4.39336C28.3201 7.10742 30 10.858 30 15C30 19.1414 28.3201 22.892 25.6061 25.6061C22.892 28.3201 19.1408 30 14.9994 30C10.858 30 7.10742 28.3201 4.39336 25.6061C1.6793 22.892 0 19.1414 0 15C0 10.8592 1.6793 7.10742 4.39336 4.39336C7.10742 1.6793 10.858 0 14.9994 0ZM19.5346 15.8092C20.3402 15.2889 20.3373 14.7094 19.5346 14.2488L13.0734 9.75059C12.4178 9.33809 11.7322 9.58066 11.7504 10.4373L11.7762 19.4883C11.8324 20.4176 12.3633 20.6725 13.1455 20.2424L19.5346 15.8092ZM24.184 5.81543C21.8344 3.46582 18.5859 2.01152 14.9994 2.01152C11.4129 2.01152 8.16562 3.46582 5.81543 5.81543C3.46582 8.16562 2.01152 11.4135 2.01152 15C2.01152 18.5871 3.46582 21.8344 5.81543 24.184C8.16562 26.5342 11.4129 27.9885 14.9994 27.9885C18.5859 27.9885 21.8344 26.5342 24.184 24.184C26.5342 21.8344 27.9885 18.5871 27.9885 15C27.9885 11.4129 26.5342 8.16562 24.184 5.81543Z" fill="#4455D7"/>
</svg>
