<svg width="10" height="10" viewBox="0 0 10 10" fill="none" xmlns="http://www.w3.org/2000/svg">
<path id="Vector" fill-rule="evenodd" clip-rule="evenodd" d="M7.49444 0.430981C8.06546 -0.141469 8.99376 -0.143992 9.568 0.425447C10.1418 0.994722 10.1443 1.92038 9.5736 2.49234L7.06817 5.00114L9.57624 7.51222C10.1422 8.08011 10.1346 8.99991 9.55909 9.5669C8.98345 10.1337 8.05796 10.1322 7.49213 9.56438L5.00121 7.07063L2.50559 9.56902C1.93457 10.1415 1.00627 10.144 0.432034 9.57455C-0.141792 9.00528 -0.144348 8.07962 0.426428 7.50766L2.93186 4.99886L0.423873 2.4877C-0.142204 1.91981 -0.134455 1.00001 0.441019 0.433015C1.01666 -0.133656 1.94215 -0.132273 2.50798 0.435538L4.9989 2.92937L7.49444 0.430981Z" fill="#FF0000"/>
</svg>
