<svg width="40" height="40" viewBox="0 0 40 40" fill="none" xmlns="http://www.w3.org/2000/svg">
<path id="Vector" fill-rule="evenodd" clip-rule="evenodd" d="M20 0C31.0457 0 40 8.95426 40 20C40 31.0457 31.0457 40 20 40C8.95426 40 0 31.0457 0 20C0 8.95426 8.95426 0 20 0ZM30.8591 13.2647C30.0607 13.6218 29.2005 13.859 28.3023 13.9649C29.2226 13.4137 29.9263 12.5405 30.2623 11.5007C29.4021 12.0093 28.4463 12.3824 27.4334 12.582C26.6189 11.7167 25.4623 11.1787 24.1808 11.1787C21.7203 11.1787 19.7283 13.1719 19.7283 15.6308C19.7283 15.978 19.7667 16.3174 19.8422 16.6448C16.14 16.4571 12.8577 14.6849 10.6607 11.9881C10.2665 12.668 10.058 13.4412 10.058 14.2274C10.058 15.7713 10.8419 17.1374 12.038 17.9337C11.3081 17.9121 10.6215 17.7086 10.0187 17.3786V17.4343C10.0187 19.5934 11.5533 21.3951 13.5926 21.8023C13.2191 21.9037 12.8246 21.9598 12.4183 21.9598C12.1305 21.9598 11.8532 21.9302 11.5775 21.88C12.147 23.6484 13.7912 24.9374 15.7382 24.975C14.2116 26.171 12.2942 26.8832 10.2038 26.8832C9.8431 26.8832 9.49162 26.8611 9.14062 26.8191C11.1165 28.0869 13.4573 28.8212 15.972 28.8212C24.1645 28.8212 28.6483 22.032 28.6483 16.1454C28.6483 15.9498 28.6439 15.7603 28.6358 15.5686C29.5059 14.9462 30.2603 14.1607 30.8575 13.2665L30.8591 13.2647Z" fill="#1DA1F2"/>
</svg>
