<svg width="25" height="26" viewBox="0 0 25 26" fill="none" xmlns="http://www.w3.org/2000/svg">
<path d="M10.9585 12.2002C10.896 12.204 10.8333 12.197 10.7741 12.1796C10.715 12.1621 10.6608 12.1346 10.6149 12.0987C10.569 12.0629 10.5324 12.0195 10.5074 11.9712C10.4823 11.923 10.4694 11.8709 10.4694 11.8182C10.4694 11.7656 10.4823 11.7135 10.5074 11.6652C10.5324 11.617 10.569 11.5736 10.6149 11.5377C10.6608 11.5019 10.715 11.4744 10.7741 11.4569C10.8333 11.4394 10.896 11.4324 10.9585 11.4362H12.7069C12.7694 11.4324 12.8322 11.4394 12.8913 11.4569C12.9505 11.4744 13.0047 11.5019 13.0506 11.5377C13.0965 11.5736 13.1331 11.617 13.1581 11.6652C13.1831 11.7135 13.1961 11.7656 13.1961 11.8182C13.1961 11.8709 13.1831 11.923 13.1581 11.9712C13.1331 12.0195 13.0965 12.0629 13.0506 12.0987C13.0047 12.1346 12.9505 12.1621 12.8913 12.1796C12.8322 12.197 12.7694 12.204 12.7069 12.2002H10.9585ZM11.9867 5.6322C11.9867 4.92324 12.0158 4.3243 13.0755 4.10631C13.0513 4.06217 13.0381 4.01433 13.0367 3.96575V3.84759H13.0198L13.1968 3.0327C13.2993 2.86587 13.4492 2.72284 13.6332 2.61624C13.8172 2.50964 14.0296 2.44277 14.2517 2.42153C14.249 2.40463 14.249 2.3875 14.2517 2.3706V1.92037C14.2494 1.8946 14.2494 1.86873 14.2517 1.84296C14.4942 0.590065 15.9637 0.606363 17.1616 0.620624H17.4745L18.8519 0.588028H18.8931C20.0668 0.634884 20.8331 1.02196 21.7061 1.47015C22.322 1.79406 24.1553 2.01409 24.6015 2.5458C24.8575 2.85133 24.9962 3.21525 24.9992 3.58886V7.49422C25.0071 7.6788 24.9559 7.86178 24.851 8.0241C24.746 8.18641 24.5912 8.32212 24.4027 8.41708C24.0826 8.60043 22.3657 8.71859 21.8007 8.77971C20.4221 9.54236 18.9913 10.2362 17.5157 10.8577C17.2099 10.9888 16.8832 11.0821 16.5457 11.1347V11.7235H20.8379C20.927 11.7233 21.0141 11.7452 21.0883 11.7866C21.1626 11.8279 21.2206 11.8868 21.255 11.9557L23.68 15.8978C23.7184 15.9606 23.7359 16.031 23.7309 16.1015L23.7649 25.2384C23.7643 25.3391 23.7162 25.4355 23.6312 25.5065C23.5462 25.5775 23.4313 25.6174 23.3114 25.6174H0.453473C0.333623 25.6174 0.218647 25.5775 0.133673 25.5065C0.0487002 25.4355 0.000640907 25.3391 0 25.2384L0 16.0709V16.0587L2.53896 11.9272C2.57711 11.8658 2.63458 11.8143 2.70512 11.7784C2.77567 11.7424 2.85659 11.7235 2.93909 11.7235H7.13674V8.10946C7.1361 8.04724 7.15021 7.98554 7.17825 7.92795C7.20629 7.87036 7.24771 7.81804 7.30008 7.77405C7.35245 7.73005 7.41473 7.69526 7.48328 7.6717C7.55183 7.64814 7.62528 7.63628 7.69934 7.63682H9.15433C9.08407 7.40713 9.0825 7.16641 9.14977 6.93608C9.21705 6.70576 9.35107 6.49299 9.53991 6.3167C10.6239 5.26753 11.9649 5.94185 11.9819 5.63831L11.9867 5.6322ZM15.6242 11.1327C14.2565 10.9066 13.6527 9.6659 14.8046 8.74508H11.2956C10.7688 8.76271 10.2485 8.6424 9.80665 8.40078H8.04369V13.6813H15.6291V11.1307L15.6242 11.1327ZM21.3157 8.20317C21.3694 8.17128 21.4321 8.15162 21.4975 8.14613C21.9825 8.0952 23.6242 8.0076 23.8546 7.87926C23.9312 7.84219 23.9943 7.78825 24.037 7.72326C24.0797 7.65827 24.1005 7.58471 24.0971 7.51052V3.61331C24.0937 3.37167 24.0032 3.13657 23.8376 2.93899C23.5224 2.54988 21.6721 2.2993 21.192 2.05483C19.2859 1.079 19.3175 1.3255 17.2926 1.29291C16.4051 1.29291 15.309 1.27254 15.1732 1.95501V2.39505C15.4157 2.39505 15.6776 2.41134 15.9225 2.42153C16.1674 2.43172 16.3517 2.44598 16.5554 2.44598C16.6589 2.44598 16.7583 2.48053 16.8315 2.54204C16.9047 2.60355 16.9458 2.68698 16.9458 2.77397C16.9458 2.86096 16.9047 2.94439 16.8315 3.0059C16.7583 3.06741 16.6589 3.10196 16.5554 3.10196C16.3493 3.10196 16.1165 3.08974 15.8716 3.07752C15.0349 3.0327 14.0795 2.98177 13.9582 3.53997V3.97797C13.9607 4.00169 13.9607 4.02555 13.9582 4.04927C14.2614 4.04927 14.5718 4.0615 14.8749 4.07779C15.098 4.09002 15.3041 4.10224 15.5078 4.1002C15.6064 4.10672 15.6983 4.14421 15.7654 4.2052C15.8325 4.26618 15.8698 4.34617 15.8698 4.42921C15.8698 4.51226 15.8325 4.59225 15.7654 4.65323C15.6983 4.71422 15.6064 4.75171 15.5078 4.75823C15.3041 4.75823 15.0713 4.746 14.824 4.73378C13.9873 4.68896 13.0319 4.63803 12.9131 5.19827V5.63831C12.9128 5.66779 12.9087 5.69716 12.9009 5.72591H14.4238C14.4779 5.72233 14.5322 5.72819 14.5834 5.7431C14.6346 5.75802 14.6815 5.78167 14.7213 5.81257C14.7611 5.84347 14.7929 5.88095 14.8146 5.92266C14.8363 5.96437 14.8475 6.0094 14.8475 6.05492C14.8475 6.10044 14.8363 6.14547 14.8146 6.18718C14.7929 6.22889 14.7611 6.26637 14.7213 6.29727C14.6815 6.32818 14.6346 6.35183 14.5834 6.36674C14.5322 6.38165 14.4779 6.38751 14.4238 6.38393H11.3417C10.522 6.38393 9.60296 6.82397 10.0419 7.5533L10.0977 7.63479V7.64497V7.65516V7.66535H10.1098V7.67553L10.1219 7.68572H10.134H10.1486L10.1656 7.6959H10.1825H10.1971H10.2092L10.2456 7.71424H10.2577H10.2747H10.2941H10.3135H10.3329H10.3499H10.3644H10.379H10.3935H10.4105H10.4299H10.4517H10.4735H10.4954H10.5148H10.5366H10.9125H10.927H10.944H10.9658H17.506C18.0152 7.71424 18.0274 8.23577 17.506 8.23984C17.1794 8.24927 16.8546 8.28475 16.536 8.34578H16.519H16.5069H16.4899H16.4754H16.4584H16.4414H16.4245H16.4075H16.3929H16.3759H16.359H16.342H16.3129H16.2984H16.2838H16.2668H16.2523H16.2377H16.2208H16.2062H16.1917H16.1771H16.1626H16.148H16.1335H16.1189H16.1044H16.0898H16.0753H16.0607H16.0462H16.0316H16.0171L15.9952 8.35597H15.9807H15.9686H15.9564L15.9346 8.36819C15.8437 8.42708 15.7622 8.49555 15.6921 8.57191C15.0349 9.62108 15.0349 10.1793 15.6291 10.3667H15.6606H15.6921H15.7236H15.7624H15.7843H15.8085H15.8328H15.8497H15.8837H15.8982H15.937H16.2135H16.3275H16.3954H16.4463H16.4657H16.519H16.536L16.6354 10.3504C17.7242 10.1609 19.0774 9.49681 21.3157 8.15835V8.20317ZM7.13674 12.4813H3.21311L1.21249 15.6961H22.5524L20.5542 12.4854H16.536V13.6813H17.5375C17.6578 13.6813 17.7731 13.7214 17.8582 13.7929C17.9432 13.8643 17.991 13.9612 17.991 14.0622C17.991 14.1633 17.9432 14.2602 17.8582 14.3316C17.7731 14.4031 17.6578 14.4432 17.5375 14.4432H6.38257C6.2623 14.4432 6.14696 14.4031 6.06192 14.3316C5.97687 14.2602 5.9291 14.1633 5.9291 14.0622C5.9291 13.9612 5.97687 13.8643 6.06192 13.7929C6.14696 13.7214 6.2623 13.6813 6.38257 13.6813H7.14887V12.4854L7.13674 12.4813ZM0.906946 16.458V24.8595H22.8604L22.824 16.458H0.906946ZM9.26588 10.4156C9.20338 10.4194 9.14061 10.4124 9.08148 10.3949C9.02236 10.3775 8.96816 10.35 8.92226 10.3141C8.87636 10.2783 8.83975 10.2349 8.81471 10.1866C8.78968 10.1384 8.77676 10.0863 8.77676 10.0336C8.77676 9.98097 8.78968 9.92889 8.81471 9.88062C8.83975 9.83236 8.87636 9.78895 8.92226 9.7531C8.96816 9.71726 9.02236 9.68975 9.08148 9.67229C9.14061 9.65483 9.20338 9.6478 9.26588 9.65164H12.7045C12.767 9.6478 12.8298 9.65483 12.8889 9.67229C12.948 9.68975 13.0022 9.71726 13.0481 9.7531C13.094 9.78895 13.1307 9.83236 13.1557 9.88062C13.1807 9.92889 13.1936 9.98097 13.1936 10.0336C13.1936 10.0863 13.1807 10.1384 13.1557 10.1866C13.1307 10.2349 13.094 10.2783 13.0481 10.3141C13.0022 10.35 12.948 10.3775 12.8889 10.3949C12.8298 10.4124 12.767 10.4194 12.7045 10.4156H9.26588Z" fill="white"/>
</svg>
